<svg xmlns="http://www.w3.org/2000/svg" xmlns:xlink="http://www.w3.org/1999/xlink" width="500" zoomAndPan="magnify" viewBox="0 0 375 374.999991" height="500" preserveAspectRatio="xMidYMid meet" version="1.0"><defs><g/><clipPath id="607f45ea20"><path d="M 42.347656 114.476562 L 160.097656 114.476562 L 160.097656 248.726562 L 42.347656 248.726562 Z M 42.347656 114.476562 " clip-rule="nonzero"/></clipPath></defs><path fill="#ffffff" d="M 101.28125 166.558594 C 100.421875 166.558594 99.574219 166.476562 98.730469 166.308594 C 97.890625 166.140625 97.074219 165.890625 96.28125 165.5625 C 95.488281 165.234375 94.734375 164.832031 94.023438 164.355469 C 93.308594 163.878906 92.648438 163.335938 92.042969 162.730469 C 91.433594 162.125 90.894531 161.464844 90.417969 160.75 C 89.941406 160.035156 89.539062 159.28125 89.210938 158.488281 C 88.882812 157.695312 88.632812 156.878906 88.464844 156.039062 C 88.296875 155.195312 88.214844 154.347656 88.214844 153.488281 C 88.214844 152.628906 88.296875 151.78125 88.464844 150.9375 C 88.632812 150.097656 88.878906 149.28125 89.210938 148.488281 C 89.539062 147.695312 89.941406 146.941406 90.417969 146.226562 C 90.894531 145.511719 91.433594 144.851562 92.039062 144.246094 C 92.648438 143.640625 93.308594 143.097656 94.019531 142.621094 C 94.734375 142.144531 95.488281 141.742188 96.28125 141.414062 C 97.070312 141.085938 97.890625 140.835938 98.730469 140.667969 C 99.570312 140.5 100.421875 140.417969 101.277344 140.417969 C 102.136719 140.417969 102.988281 140.5 103.828125 140.667969 C 104.667969 140.835938 105.484375 141.085938 106.277344 141.414062 C 107.070312 141.742188 107.824219 142.144531 108.539062 142.621094 C 109.25 143.097656 109.910156 143.640625 110.515625 144.246094 C 111.125 144.851562 111.664062 145.511719 112.140625 146.226562 C 112.617188 146.941406 113.019531 147.695312 113.347656 148.488281 C 113.675781 149.28125 113.925781 150.097656 114.09375 150.9375 C 114.261719 151.78125 114.34375 152.632812 114.34375 153.488281 C 114.34375 154.347656 114.257812 155.195312 114.089844 156.039062 C 113.921875 156.878906 113.675781 157.695312 113.34375 158.488281 C 113.015625 159.28125 112.613281 160.035156 112.136719 160.746094 C 111.660156 161.460938 111.121094 162.121094 110.511719 162.726562 C 109.90625 163.332031 109.246094 163.875 108.535156 164.351562 C 107.820312 164.828125 107.070312 165.230469 106.277344 165.558594 C 105.484375 165.886719 104.667969 166.136719 103.828125 166.304688 C 102.988281 166.472656 102.136719 166.558594 101.28125 166.558594 Z M 101.28125 142.785156 C 100.578125 142.785156 99.882812 142.851562 99.191406 142.988281 C 98.503906 143.125 97.835938 143.328125 97.183594 143.597656 C 96.535156 143.867188 95.917969 144.195312 95.335938 144.585938 C 94.75 144.976562 94.210938 145.421875 93.714844 145.917969 C 93.21875 146.414062 92.773438 146.957031 92.382812 147.539062 C 91.992188 148.125 91.664062 148.742188 91.394531 149.390625 C 91.125 150.039062 90.921875 150.710938 90.785156 151.398438 C 90.648438 152.089844 90.578125 152.785156 90.578125 153.488281 C 90.578125 154.191406 90.648438 154.886719 90.785156 155.578125 C 90.921875 156.265625 91.125 156.933594 91.394531 157.585938 C 91.664062 158.234375 91.992188 158.851562 92.382812 159.433594 C 92.773438 160.019531 93.214844 160.558594 93.714844 161.058594 C 94.210938 161.554688 94.75 162 95.335938 162.386719 C 95.917969 162.777344 96.535156 163.109375 97.183594 163.378906 C 97.832031 163.648438 98.503906 163.851562 99.191406 163.988281 C 99.878906 164.125 100.578125 164.191406 101.277344 164.191406 C 101.980469 164.191406 102.675781 164.125 103.367188 163.988281 C 104.054688 163.851562 104.726562 163.648438 105.375 163.378906 C 106.023438 163.109375 106.640625 162.777344 107.222656 162.390625 C 107.808594 162 108.347656 161.554688 108.84375 161.058594 C 109.34375 160.558594 109.785156 160.019531 110.175781 159.433594 C 110.566406 158.851562 110.894531 158.234375 111.164062 157.585938 C 111.433594 156.933594 111.636719 156.265625 111.773438 155.578125 C 111.910156 154.886719 111.980469 154.191406 111.980469 153.488281 C 111.976562 152.785156 111.910156 152.089844 111.769531 151.402344 C 111.632812 150.710938 111.429688 150.042969 111.160156 149.394531 C 110.890625 148.746094 110.5625 148.128906 110.171875 147.542969 C 109.78125 146.960938 109.339844 146.421875 108.839844 145.921875 C 108.34375 145.425781 107.804688 144.984375 107.222656 144.59375 C 106.636719 144.203125 106.019531 143.871094 105.371094 143.601562 C 104.722656 143.332031 104.054688 143.128906 103.367188 142.992188 C 102.679688 142.855469 101.984375 142.785156 101.28125 142.785156 Z M 101.28125 142.785156 " fill-opacity="1" fill-rule="nonzero"/><g clip-path="url(#607f45ea20)"><path fill="#ffffff" d="M 118.4375 212.980469 C 123.1875 206.425781 128.167969 199.117188 132.539062 191.796875 C 134.148438 191.371094 135.699219 190.898438 137.199219 190.398438 C 137.347656 190.351562 137.480469 190.273438 137.597656 190.171875 C 137.71875 190.070312 137.8125 189.949219 137.882812 189.808594 C 137.953125 189.667969 137.992188 189.519531 138.003906 189.363281 C 138.015625 189.207031 137.996094 189.054688 137.949219 188.90625 C 137.898438 188.753906 137.824219 188.621094 137.71875 188.503906 C 137.617188 188.382812 137.496094 188.289062 137.355469 188.21875 C 137.214844 188.148438 137.066406 188.109375 136.910156 188.097656 C 136.753906 188.085938 136.601562 188.105469 136.453125 188.152344 C 135.746094 188.390625 135.011719 188.613281 134.277344 188.839844 C 140.496094 177.992188 145.132812 167.335938 145.402344 159.351562 C 146.125 159.761719 146.867188 160.121094 147.636719 160.425781 C 147.902344 160.421875 148.136719 160.339844 148.34375 160.179688 C 148.550781 160.019531 148.6875 159.8125 148.757812 159.558594 C 148.828125 159.304688 148.816406 159.058594 148.71875 158.8125 C 148.625 158.570312 148.464844 158.378906 148.242188 158.238281 C 147.34375 157.695312 146.375 157.175781 145.367188 156.667969 C 145.308594 155.261719 145.179688 153.863281 144.984375 152.472656 C 144.792969 151.078125 144.53125 149.699219 144.203125 148.332031 C 143.878906 146.964844 143.488281 145.617188 143.03125 144.285156 C 142.578125 142.957031 142.0625 141.648438 141.480469 140.371094 C 140.902344 139.089844 140.261719 137.839844 139.5625 136.621094 C 138.863281 135.398438 138.109375 134.214844 137.296875 133.070312 C 136.484375 131.921875 135.617188 130.816406 134.699219 129.75 C 133.785156 128.6875 132.816406 127.667969 131.800781 126.695312 C 130.785156 125.722656 129.726562 124.800781 128.625 123.929688 C 127.523438 123.058594 126.378906 122.242188 125.199219 121.480469 C 124.015625 120.71875 122.804688 120.015625 121.554688 119.371094 C 120.304688 118.722656 119.03125 118.136719 117.726562 117.613281 C 116.421875 117.089844 115.09375 116.628906 113.746094 116.234375 C 112.398438 115.835938 111.035156 115.503906 109.65625 115.238281 C 108.277344 114.96875 106.886719 114.769531 105.488281 114.636719 C 104.089844 114.503906 102.6875 114.433594 101.28125 114.433594 C 99.875 114.433594 98.472656 114.503906 97.074219 114.636719 C 95.675781 114.769531 94.285156 114.972656 92.90625 115.238281 C 91.523438 115.503906 90.160156 115.835938 88.8125 116.234375 C 87.464844 116.632812 86.136719 117.09375 84.832031 117.617188 C 83.53125 118.140625 82.253906 118.726562 81.003906 119.371094 C 79.757812 120.019531 78.542969 120.722656 77.359375 121.484375 C 76.179688 122.246094 75.039062 123.0625 73.933594 123.933594 C 72.832031 124.808594 71.773438 125.730469 70.757812 126.703125 C 69.742188 127.675781 68.773438 128.691406 67.859375 129.757812 C 66.941406 130.824219 66.074219 131.929688 65.261719 133.078125 C 64.449219 134.222656 63.695312 135.40625 62.996094 136.628906 C 62.296875 137.847656 61.65625 139.097656 61.078125 140.378906 C 60.5 141.660156 59.980469 142.964844 59.527344 144.296875 C 59.070312 145.625 58.679688 146.972656 58.355469 148.34375 C 58.027344 149.710938 57.769531 151.089844 57.574219 152.480469 C 57.378906 153.875 57.253906 155.273438 57.191406 156.679688 C 55.132812 157.691406 53.175781 158.875 51.328125 160.238281 C 51.203125 160.332031 51.101562 160.445312 51.019531 160.582031 C 50.941406 160.71875 50.890625 160.863281 50.867188 161.015625 C 50.84375 161.171875 50.851562 161.328125 50.890625 161.476562 C 50.929688 161.628906 50.996094 161.769531 51.089844 161.894531 C 51.328125 162.207031 51.644531 162.363281 52.039062 162.367188 C 52.285156 162.367188 55.511719 160.238281 57.15625 159.351562 C 57.347656 164.78125 59.582031 171.867188 63.8125 180.453125 C 62.394531 180.710938 61.203125 181.375 60.242188 182.453125 L 60.136719 182.558594 C 59.832031 182.902344 59.5625 183.277344 59.335938 183.679688 C 59.109375 184.082031 58.929688 184.5 58.789062 184.941406 C 58.652344 185.382812 58.5625 185.832031 58.519531 186.292969 C 58.476562 186.75 58.484375 187.210938 58.539062 187.667969 C 58.59375 188.125 58.695312 188.574219 58.84375 189.011719 C 58.996094 189.445312 59.1875 189.863281 59.425781 190.257812 C 59.664062 190.652344 59.9375 191.019531 60.253906 191.355469 C 60.570312 191.695312 60.917969 191.992188 61.292969 192.257812 C 63.550781 193.820312 65.898438 195.222656 68.339844 196.46875 L 73.921875 208.734375 C 74.070312 209.058594 74.25 209.367188 74.460938 209.65625 C 74.667969 209.945312 74.90625 210.210938 75.164062 210.457031 C 75.425781 210.699219 75.707031 210.917969 76.011719 211.109375 C 76.3125 211.296875 76.632812 211.457031 76.964844 211.585938 C 77.300781 211.710938 77.640625 211.808594 77.992188 211.867188 C 78.347656 211.929688 78.699219 211.957031 79.058594 211.949219 C 79.414062 211.945312 79.769531 211.902344 80.117188 211.828125 C 80.46875 211.75 80.804688 211.644531 81.132812 211.5 C 81.621094 211.292969 82.066406 211.015625 82.46875 210.675781 C 83.015625 211.441406 83.570312 212.210938 84.125 212.980469 C 63.042969 214.910156 42.4375 220.953125 42.4375 230.425781 C 42.4375 241.828125 72.359375 248.640625 101.28125 248.640625 C 130.199219 248.640625 160.125 241.828125 160.125 230.425781 C 160.125 220.953125 139.515625 214.910156 118.4375 212.980469 Z M 81.925781 205.515625 C 82.035156 205.886719 82.074219 206.261719 82.046875 206.644531 C 82.019531 207.027344 81.925781 207.394531 81.765625 207.746094 C 81.605469 208.09375 81.390625 208.40625 81.117188 208.675781 C 80.847656 208.949219 80.539062 209.164062 80.1875 209.324219 C 79.8125 209.492188 79.417969 209.578125 79.007812 209.589844 C 78.59375 209.601562 78.195312 209.53125 77.8125 209.386719 C 77.425781 209.242188 77.085938 209.027344 76.785156 208.746094 C 76.484375 208.464844 76.246094 208.136719 76.074219 207.765625 L 70.136719 194.71875 L 69.761719 194.527344 C 67.289062 193.292969 64.914062 191.890625 62.644531 190.316406 C 62.152344 189.980469 61.753906 189.554688 61.445312 189.046875 C 61.140625 188.539062 60.949219 187.988281 60.882812 187.394531 C 60.8125 186.8125 60.863281 186.242188 61.03125 185.679688 C 61.203125 185.117188 61.480469 184.613281 61.863281 184.167969 L 61.96875 184.058594 C 62.359375 183.621094 62.820312 183.277344 63.355469 183.039062 C 63.894531 182.796875 64.453125 182.675781 65.042969 182.675781 C 65.941406 182.683594 66.761719 182.941406 67.5 183.457031 C 69.347656 184.730469 71.261719 185.898438 73.234375 186.957031 L 73.816406 187.277344 L 85.199219 180.523438 C 85.695312 180.226562 86.230469 180.078125 86.808594 180.085938 C 87.136719 180.085938 87.457031 180.132812 87.769531 180.234375 C 88.082031 180.332031 88.371094 180.476562 88.636719 180.664062 C 88.902344 180.851562 89.136719 181.078125 89.332031 181.339844 C 89.53125 181.601562 89.683594 181.886719 89.789062 182.195312 C 89.898438 182.503906 89.957031 182.824219 89.964844 183.152344 C 89.972656 183.476562 89.933594 183.800781 89.839844 184.113281 C 89.75 184.425781 89.613281 184.722656 89.429688 184.992188 C 89.246094 185.265625 89.027344 185.5 88.773438 185.703125 L 82.1875 190.980469 L 84.300781 191.640625 C 90.277344 193.542969 96.394531 194.523438 102.664062 194.585938 C 103.480469 194.597656 104.296875 194.597656 105.109375 194.574219 C 107.902344 194.503906 110.675781 194.253906 113.433594 193.832031 C 113.433594 193.832031 114.902344 193.582031 115.089844 193.535156 C 115.3125 193.496094 115.515625 193.535156 115.707031 193.65625 C 115.898438 193.773438 116.027344 193.941406 116.089844 194.15625 C 116.152344 194.378906 116.125 194.59375 116.011719 194.796875 C 115.902344 194.996094 115.734375 195.132812 115.515625 195.203125 C 115.515625 195.203125 113.90625 195.699219 113.316406 195.863281 C 110.703125 196.621094 108.28125 197.238281 105.925781 197.746094 C 96.65625 199.78125 88.9375 200.039062 81.617188 198.585938 L 79.667969 198.195312 Z M 107.558594 192.089844 L 110.335938 188.472656 C 110.429688 188.347656 110.550781 188.261719 110.695312 188.210938 C 110.84375 188.164062 110.992188 188.164062 111.140625 188.210938 C 111.292969 188.246094 111.421875 188.324219 111.523438 188.445312 C 111.625 188.566406 111.675781 188.707031 111.683594 188.863281 L 111.957031 191.640625 L 111.957031 191.652344 C 111.875 191.664062 108.691406 192.089844 107.558594 192.089844 Z M 112.878906 201.554688 L 112.878906 201.566406 C 112.914062 201.90625 112.78125 202.15625 112.472656 202.308594 C 112.164062 202.460938 111.886719 202.417969 111.636719 202.179688 L 108.667969 199.542969 C 110.015625 199.207031 111.625 198.8125 112.605469 198.527344 Z M 83.960938 208.6875 C 84.277344 207.976562 84.433594 207.230469 84.433594 206.453125 C 84.429688 205.894531 84.351562 205.351562 84.195312 204.820312 L 83.085938 201.246094 C 90.734375 202.324219 98.316406 201.96875 105.832031 200.183594 L 110.066406 203.957031 C 110.660156 204.480469 111.351562 204.746094 112.144531 204.746094 C 112.644531 204.742188 113.117188 204.628906 113.566406 204.40625 C 114.132812 204.113281 114.574219 203.6875 114.878906 203.128906 C 115.1875 202.566406 115.308594 201.964844 115.242188 201.328125 L 114.914062 197.851562 L 116.199219 197.472656 C 116.664062 197.332031 117.070312 197.101562 117.425781 196.773438 C 117.785156 196.449219 118.050781 196.0625 118.234375 195.617188 C 118.339844 195.371094 118.410156 195.117188 118.449219 194.855469 C 118.492188 194.59375 118.5 194.328125 118.472656 194.0625 C 118.449219 193.796875 118.390625 193.542969 118.300781 193.289062 C 118.214844 193.039062 118.09375 192.804688 117.945312 192.582031 C 117.800781 192.363281 117.628906 192.164062 117.429688 191.984375 C 117.230469 191.804688 117.015625 191.65625 116.78125 191.53125 C 116.546875 191.40625 116.300781 191.3125 116.042969 191.25 C 115.78125 191.1875 115.519531 191.15625 115.253906 191.15625 C 115.054688 191.15625 114.402344 191.265625 114.285156 191.277344 L 114.050781 188.648438 C 113.988281 188.011719 113.753906 187.445312 113.34375 186.953125 C 112.9375 186.457031 112.425781 186.121094 111.808594 185.941406 C 111.195312 185.765625 110.582031 185.773438 109.972656 185.972656 C 109.363281 186.171875 108.863281 186.523438 108.46875 187.03125 L 104.484375 192.222656 C 98.605469 192.332031 92.832031 191.601562 87.164062 190.035156 L 90.25 187.550781 C 90.695312 187.191406 91.078125 186.777344 91.398438 186.300781 C 91.714844 185.824219 91.953125 185.3125 92.113281 184.761719 C 92.269531 184.214844 92.339844 183.652344 92.324219 183.082031 C 92.308594 182.507812 92.207031 181.953125 92.015625 181.414062 C 91.828125 180.875 91.5625 180.375 91.21875 179.917969 C 90.875 179.460938 90.46875 179.066406 90 178.734375 C 89.535156 178.40625 89.03125 178.152344 88.484375 177.980469 C 87.9375 177.804688 87.382812 177.71875 86.808594 177.71875 C 85.800781 177.722656 84.863281 177.980469 83.996094 178.488281 L 73.769531 184.558594 C 72.089844 183.632812 70.433594 182.605469 68.851562 181.515625 C 68.125 181.015625 67.332031 180.671875 66.472656 180.488281 C 61.839844 171.332031 59.507812 163.976562 59.507812 158.605469 C 59.507812 157.238281 59.578125 155.871094 59.710938 154.511719 C 59.84375 153.148438 60.046875 151.796875 60.3125 150.453125 C 60.578125 149.109375 60.910156 147.785156 61.308594 146.476562 C 61.707031 145.164062 62.164062 143.878906 62.6875 142.613281 C 63.210938 141.351562 63.796875 140.113281 64.441406 138.90625 C 65.085938 137.699219 65.789062 136.527344 66.550781 135.390625 C 67.308594 134.25 68.125 133.152344 68.992188 132.09375 C 69.859375 131.039062 70.777344 130.023438 71.742188 129.058594 C 72.710938 128.089844 73.722656 127.171875 74.78125 126.304688 C 75.839844 125.433594 76.9375 124.621094 78.074219 123.859375 C 79.210938 123.097656 80.382812 122.398438 81.589844 121.75 C 82.796875 121.105469 84.03125 120.523438 85.296875 120 C 86.558594 119.472656 87.847656 119.015625 89.15625 118.617188 C 90.464844 118.21875 91.789062 117.886719 93.132812 117.621094 C 94.472656 117.351562 95.824219 117.152344 97.1875 117.019531 C 98.546875 116.882812 99.914062 116.816406 101.28125 116.816406 C 102.648438 116.816406 104.011719 116.882812 105.375 117.019531 C 106.734375 117.152344 108.085938 117.351562 109.429688 117.621094 C 110.769531 117.886719 112.097656 118.21875 113.40625 118.617188 C 114.714844 119.015625 116 119.472656 117.265625 120 C 118.53125 120.523438 119.765625 121.105469 120.972656 121.75 C 122.175781 122.398438 123.347656 123.097656 124.488281 123.859375 C 125.625 124.621094 126.722656 125.433594 127.78125 126.304688 C 128.835938 127.171875 129.847656 128.089844 130.816406 129.058594 C 131.785156 130.023438 132.703125 131.039062 133.570312 132.09375 C 134.4375 133.152344 135.25 134.25 136.011719 135.390625 C 136.773438 136.527344 137.472656 137.699219 138.117188 138.90625 C 138.765625 140.113281 139.347656 141.351562 139.871094 142.613281 C 140.394531 143.878906 140.855469 145.164062 141.253906 146.476562 C 141.648438 147.785156 141.980469 149.109375 142.25 150.453125 C 142.515625 151.796875 142.714844 153.148438 142.851562 154.511719 C 142.984375 155.871094 143.050781 157.238281 143.050781 158.605469 C 143.050781 166.730469 137.742188 178.300781 130.96875 189.761719 C 128.390625 190.425781 125.6875 191 122.859375 191.488281 C 122.707031 191.507812 122.566406 191.558594 122.433594 191.632812 C 122.304688 191.707031 122.191406 191.804688 122.097656 191.921875 C 122 192.039062 121.933594 192.171875 121.886719 192.316406 C 121.84375 192.460938 121.828125 192.609375 121.839844 192.761719 C 121.855469 192.910156 121.894531 193.054688 121.960938 193.191406 C 122.03125 193.324219 122.121094 193.445312 122.234375 193.542969 C 122.347656 193.644531 122.476562 193.722656 122.617188 193.773438 C 122.761719 193.824219 122.90625 193.847656 123.058594 193.84375 C 123.121094 193.839844 123.183594 193.832031 123.246094 193.820312 C 125.304688 193.476562 127.304688 193.074219 129.242188 192.613281 C 124.578125 200.457031 115.902344 212.570312 113.386719 215.855469 C 112.941406 216.4375 108.585938 222.195312 107.453125 223.636719 C 107.085938 224.105469 106.671875 224.53125 106.210938 224.90625 C 105.746094 225.28125 105.25 225.597656 104.714844 225.859375 C 104.179688 226.121094 103.621094 226.320312 103.042969 226.453125 C 102.464844 226.585938 101.875 226.652344 101.28125 226.652344 C 100.683594 226.652344 100.097656 226.585938 99.519531 226.453125 C 98.9375 226.320312 98.378906 226.121094 97.847656 225.859375 C 97.3125 225.597656 96.8125 225.28125 96.351562 224.90625 C 95.886719 224.53125 95.472656 224.105469 95.109375 223.636719 C 92.449219 220.230469 84.90625 210.023438 83.960938 208.6875 Z M 101.28125 246.277344 C 67.5 246.277344 44.800781 238.078125 44.800781 230.425781 C 44.800781 223.554688 61.980469 217.179688 85.746094 215.203125 L 85.757812 215.203125 C 86.359375 216.03125 92.257812 223.839844 93.242188 225.09375 C 93.476562 225.398438 93.734375 225.6875 94.003906 225.964844 C 94.273438 226.238281 94.558594 226.5 94.859375 226.742188 C 95.160156 226.984375 95.472656 227.210938 95.796875 227.417969 C 96.125 227.625 96.460938 227.816406 96.808594 227.984375 C 97.152344 228.15625 97.511719 228.304688 97.875 228.433594 C 98.238281 228.5625 98.609375 228.671875 98.984375 228.757812 C 99.359375 228.84375 99.742188 228.910156 100.125 228.953125 C 100.507812 228.996094 100.894531 229.019531 101.28125 229.019531 C 101.667969 229.019531 102.050781 228.996094 102.4375 228.953125 C 102.820312 228.910156 103.199219 228.84375 103.574219 228.757812 C 103.953125 228.671875 104.324219 228.5625 104.6875 228.433594 C 105.050781 228.304688 105.40625 228.15625 105.753906 227.984375 C 106.101562 227.816406 106.4375 227.625 106.761719 227.417969 C 107.089844 227.210938 107.402344 226.984375 107.703125 226.742188 C 108 226.5 108.289062 226.238281 108.558594 225.964844 C 108.828125 225.6875 109.082031 225.398438 109.320312 225.09375 C 111.886719 221.804688 114.402344 218.492188 116.804688 215.203125 L 116.816406 215.203125 C 140.582031 217.179688 157.757812 223.554688 157.757812 230.425781 C 157.757812 238.078125 135.058594 246.277344 101.28125 246.277344 Z M 101.28125 246.277344 " fill-opacity="1" fill-rule="nonzero"/></g><path fill="#ffffff" d="M 54.578125 182.847656 C 49.84375 179.796875 47.109375 176.34375 46.671875 172.867188 C 46.652344 172.710938 46.605469 172.566406 46.527344 172.429688 C 46.449219 172.292969 46.347656 172.175781 46.226562 172.078125 C 46.101562 171.984375 45.964844 171.914062 45.8125 171.875 C 45.660156 171.832031 45.507812 171.820312 45.351562 171.839844 C 45.195312 171.859375 45.050781 171.910156 44.914062 171.984375 C 44.777344 172.0625 44.664062 172.164062 44.566406 172.289062 C 44.46875 172.410156 44.402344 172.550781 44.359375 172.699219 C 44.316406 172.851562 44.308594 173.003906 44.328125 173.160156 C 44.851562 177.355469 47.953125 181.394531 53.300781 184.835938 C 53.429688 184.925781 53.574219 184.984375 53.726562 185.015625 C 53.882812 185.042969 54.039062 185.042969 54.191406 185.007812 C 54.347656 184.976562 54.488281 184.914062 54.617188 184.820312 C 54.746094 184.730469 54.851562 184.617188 54.933594 184.484375 C 55.015625 184.351562 55.070312 184.207031 55.097656 184.054688 C 55.121094 183.898438 55.121094 183.746094 55.085938 183.59375 C 55.054688 183.441406 54.992188 183.300781 54.90625 183.171875 C 54.816406 183.042969 54.707031 182.933594 54.578125 182.847656 Z M 54.578125 182.847656 " fill-opacity="1" fill-rule="nonzero"/><path fill="#ffffff" d="M 158 169.285156 C 157.960938 169.132812 157.894531 168.992188 157.804688 168.867188 C 157.710938 168.742188 157.597656 168.636719 157.460938 168.558594 C 157.328125 168.476562 157.183594 168.425781 157.027344 168.402344 C 156.871094 168.378906 156.71875 168.386719 156.566406 168.421875 C 156.414062 168.460938 156.277344 168.527344 156.152344 168.621094 C 156.023438 168.714844 155.921875 168.828125 155.839844 168.960938 C 155.757812 169.09375 155.707031 169.238281 155.683594 169.394531 C 155.660156 169.550781 155.667969 169.703125 155.703125 169.855469 C 155.867188 170.511719 155.949219 171.175781 155.953125 171.851562 C 155.953125 175.4375 153.519531 179.023438 148.917969 182.222656 C 148.660156 182.417969 148.503906 182.671875 148.449219 182.988281 C 148.390625 183.304688 148.449219 183.597656 148.621094 183.867188 C 149.058594 184.65625 150.0625 184.308594 150.269531 184.164062 C 155.53125 180.503906 158.316406 176.246094 158.316406 171.851562 C 158.316406 170.984375 158.210938 170.128906 158 169.285156 Z M 158 169.285156 " fill-opacity="1" fill-rule="nonzero"/><g fill="#ffffff" fill-opacity="1"><g transform="translate(47.623061, 137.296768)"><g><path d="M -3.59375 -6.0625 C -3.507812 -6.03125 -3.4375 -5.988281 -3.375 -5.9375 L -1.59375 -3.46875 L 0.515625 -2.75 C 0.617188 -2.71875 0.691406 -2.648438 0.734375 -2.546875 C 0.785156 -2.453125 0.796875 -2.359375 0.765625 -2.265625 C 0.734375 -2.160156 0.664062 -2.082031 0.5625 -2.03125 C 0.46875 -1.988281 0.367188 -1.984375 0.265625 -2.015625 L -1.90625 -2.75 L -4.703125 -1.875 C -4.816406 -1.832031 -4.921875 -1.828125 -5.015625 -1.859375 C -5.109375 -1.890625 -5.179688 -1.957031 -5.234375 -2.0625 C -5.285156 -2.175781 -5.289062 -2.28125 -5.25 -2.375 C -5.21875 -2.488281 -5.125 -2.566406 -4.96875 -2.609375 L -2.46875 -3.40625 L -4 -5.46875 C -4.101562 -5.582031 -4.128906 -5.707031 -4.078125 -5.84375 C -4.046875 -5.9375 -3.976562 -6.003906 -3.875 -6.046875 C -3.78125 -6.085938 -3.6875 -6.09375 -3.59375 -6.0625 Z M -3.59375 -6.0625 "/></g></g></g><g fill="#ffffff" fill-opacity="1"><g transform="translate(50.205502, 130.161928)"><g><path d="M 0.140625 -6.515625 C 0.628906 -6.253906 1.019531 -5.914062 1.3125 -5.5 C 1.601562 -5.09375 1.765625 -4.644531 1.796875 -4.15625 C 1.828125 -3.675781 1.722656 -3.203125 1.484375 -2.734375 C 1.242188 -2.265625 0.914062 -1.898438 0.5 -1.640625 C 0.0820312 -1.378906 -0.378906 -1.242188 -0.890625 -1.234375 C -1.398438 -1.234375 -1.898438 -1.363281 -2.390625 -1.625 C -2.867188 -1.863281 -3.25 -2.191406 -3.53125 -2.609375 C -3.820312 -3.023438 -3.988281 -3.476562 -4.03125 -3.96875 C -4.070312 -4.46875 -3.972656 -4.953125 -3.734375 -5.421875 C -3.492188 -5.890625 -3.160156 -6.25 -2.734375 -6.5 C -2.304688 -6.75 -1.835938 -6.875 -1.328125 -6.875 C -0.828125 -6.875 -0.335938 -6.753906 0.140625 -6.515625 Z M -0.25 -5.78125 C -0.601562 -5.96875 -0.960938 -6.0625 -1.328125 -6.0625 C -1.691406 -6.0625 -2.023438 -5.972656 -2.328125 -5.796875 C -2.628906 -5.628906 -2.863281 -5.382812 -3.03125 -5.0625 C -3.195312 -4.726562 -3.265625 -4.390625 -3.234375 -4.046875 C -3.210938 -3.710938 -3.085938 -3.394531 -2.859375 -3.09375 C -2.640625 -2.800781 -2.351562 -2.5625 -2 -2.375 C -1.632812 -2.1875 -1.265625 -2.085938 -0.890625 -2.078125 C -0.523438 -2.078125 -0.191406 -2.160156 0.109375 -2.328125 C 0.410156 -2.492188 0.644531 -2.742188 0.8125 -3.078125 C 0.976562 -3.398438 1.046875 -3.734375 1.015625 -4.078125 C 0.984375 -4.429688 0.851562 -4.753906 0.625 -5.046875 C 0.40625 -5.347656 0.113281 -5.59375 -0.25 -5.78125 Z M -0.25 -5.78125 "/></g></g></g><g fill="#ffffff" fill-opacity="1"><g transform="translate(54.549873, 122.233158)"><g><path d="M -1.828125 -7.1875 C -1.753906 -7.269531 -1.664062 -7.316406 -1.5625 -7.328125 C -1.46875 -7.347656 -1.375 -7.328125 -1.28125 -7.265625 L 1.25 -5.40625 C 1.59375 -5.15625 1.84375 -4.851562 2 -4.5 C 2.164062 -4.144531 2.226562 -3.773438 2.1875 -3.390625 C 2.15625 -3.003906 2.007812 -2.640625 1.75 -2.296875 C 1.507812 -1.960938 1.207031 -1.71875 0.84375 -1.5625 C 0.488281 -1.40625 0.117188 -1.347656 -0.265625 -1.390625 C -0.660156 -1.441406 -1.03125 -1.59375 -1.375 -1.84375 L -3.90625 -3.703125 C -4 -3.765625 -4.050781 -3.847656 -4.0625 -3.953125 C -4.070312 -4.054688 -4.039062 -4.15625 -3.96875 -4.25 C -3.90625 -4.332031 -3.816406 -4.378906 -3.703125 -4.390625 C -3.597656 -4.410156 -3.503906 -4.394531 -3.421875 -4.34375 L -0.890625 -2.484375 C -0.660156 -2.316406 -0.414062 -2.21875 -0.15625 -2.1875 C 0.101562 -2.164062 0.34375 -2.203125 0.5625 -2.296875 C 0.789062 -2.398438 0.976562 -2.550781 1.125 -2.75 C 1.28125 -2.957031 1.375 -3.1875 1.40625 -3.4375 C 1.445312 -3.695312 1.414062 -3.945312 1.3125 -4.1875 C 1.207031 -4.4375 1.039062 -4.644531 0.8125 -4.8125 L -1.71875 -6.671875 C -1.8125 -6.734375 -1.867188 -6.8125 -1.890625 -6.90625 C -1.910156 -7 -1.890625 -7.09375 -1.828125 -7.1875 Z M -1.828125 -7.1875 "/></g></g></g><g fill="#ffffff" fill-opacity="1"><g transform="translate(59.819278, 115.421181)"><g><path d="M 3.078125 -4.03125 C 3.148438 -4.039062 3.21875 -4.035156 3.28125 -4.015625 C 3.34375 -3.992188 3.394531 -3.960938 3.4375 -3.921875 C 3.519531 -3.835938 3.550781 -3.75 3.53125 -3.65625 C 3.519531 -3.570312 3.476562 -3.492188 3.40625 -3.421875 C 3.332031 -3.347656 3.253906 -3.300781 3.171875 -3.28125 C 3.003906 -3.226562 2.804688 -3.238281 2.578125 -3.3125 C 2.347656 -3.382812 2.097656 -3.5625 1.828125 -3.84375 C 1.628906 -4.039062 1.425781 -4.128906 1.21875 -4.109375 C 1.019531 -4.085938 0.820312 -3.984375 0.625 -3.796875 L -0.53125 -2.625 L 0.765625 -1.328125 C 0.847656 -1.242188 0.890625 -1.148438 0.890625 -1.046875 C 0.898438 -0.953125 0.875 -0.875 0.8125 -0.8125 C 0.71875 -0.71875 0.609375 -0.664062 0.484375 -0.65625 C 0.359375 -0.644531 0.257812 -0.675781 0.1875 -0.75 L -3.296875 -4.21875 C -3.378906 -4.300781 -3.414062 -4.394531 -3.40625 -4.5 C -3.40625 -4.613281 -3.367188 -4.707031 -3.296875 -4.78125 L -1.671875 -6.40625 C -1.460938 -6.613281 -1.21875 -6.753906 -0.9375 -6.828125 C -0.664062 -6.898438 -0.390625 -6.894531 -0.109375 -6.8125 C 0.160156 -6.738281 0.410156 -6.59375 0.640625 -6.375 C 0.847656 -6.15625 0.988281 -5.894531 1.0625 -5.59375 C 1.144531 -5.289062 1.144531 -5.007812 1.0625 -4.75 C 1.269531 -4.820312 1.476562 -4.828125 1.6875 -4.765625 C 1.90625 -4.710938 2.101562 -4.609375 2.28125 -4.453125 C 2.519531 -4.242188 2.6875 -4.109375 2.78125 -4.046875 C 2.882812 -3.992188 2.984375 -3.988281 3.078125 -4.03125 Z M 0.296875 -4.421875 C 0.390625 -4.523438 0.441406 -4.65625 0.453125 -4.8125 C 0.472656 -4.96875 0.445312 -5.128906 0.375 -5.296875 C 0.3125 -5.472656 0.210938 -5.628906 0.078125 -5.765625 C -0.109375 -5.953125 -0.320312 -6.050781 -0.5625 -6.0625 C -0.8125 -6.082031 -1.015625 -6.007812 -1.171875 -5.84375 L -2.46875 -4.546875 L -1.015625 -3.09375 Z M 0.296875 -4.421875 "/></g></g></g><g fill="#ffffff" fill-opacity="1"><g transform="translate(65.980475, 109.628304)"><g/></g></g><g fill="#ffffff" fill-opacity="1"><g transform="translate(70.113608, 106.497417)"><g><path d="M 0.765625 -7.140625 C 0.859375 -7.203125 0.953125 -7.222656 1.046875 -7.203125 C 1.140625 -7.179688 1.21875 -7.125 1.28125 -7.03125 C 1.34375 -6.9375 1.359375 -6.84375 1.328125 -6.75 C 1.296875 -6.65625 1.234375 -6.578125 1.140625 -6.515625 L -0.09375 -5.75 L 2.296875 -1.84375 C 2.347656 -1.757812 2.359375 -1.664062 2.328125 -1.5625 C 2.304688 -1.457031 2.242188 -1.375 2.140625 -1.3125 C 2.035156 -1.25 1.925781 -1.226562 1.8125 -1.25 C 1.707031 -1.28125 1.628906 -1.335938 1.578125 -1.421875 L -0.8125 -5.328125 L -2.03125 -4.578125 C -2.132812 -4.515625 -2.234375 -4.492188 -2.328125 -4.515625 C -2.421875 -4.535156 -2.492188 -4.597656 -2.546875 -4.703125 C -2.609375 -4.785156 -2.625 -4.875 -2.59375 -4.96875 C -2.570312 -5.0625 -2.507812 -5.140625 -2.40625 -5.203125 Z M 0.765625 -7.140625 "/></g></g></g><g fill="#ffffff" fill-opacity="1"><g transform="translate(76.940801, 102.548377)"><g><path d="M 4.375 -2.578125 C 4.4375 -2.554688 4.488281 -2.523438 4.53125 -2.484375 C 4.582031 -2.453125 4.625 -2.40625 4.65625 -2.34375 C 4.695312 -2.238281 4.691406 -2.144531 4.640625 -2.0625 C 4.597656 -1.988281 4.53125 -1.929688 4.4375 -1.890625 C 4.34375 -1.847656 4.253906 -1.835938 4.171875 -1.859375 C 3.992188 -1.878906 3.8125 -1.960938 3.625 -2.109375 C 3.445312 -2.265625 3.28125 -2.523438 3.125 -2.890625 C 3.019531 -3.140625 2.867188 -3.296875 2.671875 -3.359375 C 2.472656 -3.421875 2.25 -3.394531 2 -3.28125 L 0.484375 -2.640625 L 1.203125 -0.9375 C 1.253906 -0.832031 1.257812 -0.734375 1.21875 -0.640625 C 1.1875 -0.546875 1.128906 -0.484375 1.046875 -0.453125 C 0.929688 -0.398438 0.816406 -0.390625 0.703125 -0.421875 C 0.585938 -0.460938 0.507812 -0.53125 0.46875 -0.625 L -1.453125 -5.15625 C -1.503906 -5.257812 -1.507812 -5.359375 -1.46875 -5.453125 C -1.425781 -5.554688 -1.351562 -5.628906 -1.25 -5.671875 L 0.859375 -6.5625 C 1.128906 -6.675781 1.398438 -6.71875 1.671875 -6.6875 C 1.953125 -6.65625 2.207031 -6.550781 2.4375 -6.375 C 2.675781 -6.195312 2.851562 -5.960938 2.96875 -5.671875 C 3.09375 -5.398438 3.132812 -5.109375 3.09375 -4.796875 C 3.050781 -4.492188 2.9375 -4.234375 2.75 -4.015625 C 2.96875 -3.992188 3.171875 -3.914062 3.359375 -3.78125 C 3.546875 -3.65625 3.691406 -3.488281 3.796875 -3.28125 C 3.921875 -3 4.019531 -2.8125 4.09375 -2.71875 C 4.175781 -2.625 4.269531 -2.578125 4.375 -2.578125 Z M 1.9375 -3.984375 C 2.0625 -4.046875 2.160156 -4.144531 2.234375 -4.28125 C 2.304688 -4.425781 2.34375 -4.585938 2.34375 -4.765625 C 2.351562 -4.953125 2.316406 -5.132812 2.234375 -5.3125 C 2.128906 -5.550781 1.96875 -5.722656 1.75 -5.828125 C 1.53125 -5.941406 1.316406 -5.953125 1.109375 -5.859375 L -0.578125 -5.140625 L 0.21875 -3.25 Z M 1.9375 -3.984375 "/></g></g></g><g fill="#ffffff" fill-opacity="1"><g transform="translate(84.746768, 99.457068)"><g><path d="M 4.765625 -1.765625 C 4.796875 -1.734375 4.816406 -1.6875 4.828125 -1.625 C 4.859375 -1.53125 4.847656 -1.4375 4.796875 -1.34375 C 4.753906 -1.25 4.679688 -1.191406 4.578125 -1.171875 C 4.503906 -1.148438 4.429688 -1.15625 4.359375 -1.1875 C 4.285156 -1.21875 4.21875 -1.269531 4.15625 -1.34375 L 3.375 -2.375 L 0.9375 -1.734375 L 0.75 -0.453125 C 0.738281 -0.359375 0.710938 -0.28125 0.671875 -0.21875 C 0.628906 -0.15625 0.570312 -0.113281 0.5 -0.09375 C 0.382812 -0.0625 0.285156 -0.0664062 0.203125 -0.109375 C 0.128906 -0.160156 0.0820312 -0.234375 0.0625 -0.328125 C 0.0507812 -0.347656 0.046875 -0.394531 0.046875 -0.46875 L 0.78125 -5.890625 C 0.789062 -5.960938 0.820312 -6.03125 0.875 -6.09375 C 0.9375 -6.164062 1.007812 -6.207031 1.09375 -6.21875 C 1.164062 -6.238281 1.238281 -6.234375 1.3125 -6.203125 C 1.394531 -6.179688 1.460938 -6.140625 1.515625 -6.078125 Z M 1.046875 -2.515625 L 2.890625 -3 L 1.375 -4.984375 Z M 1.046875 -2.515625 "/></g></g></g><g fill="#ffffff" fill-opacity="1"><g transform="translate(92.618509, 97.598725)"><g><path d="M 4.171875 -6.21875 C 4.273438 -6.226562 4.367188 -6.203125 4.453125 -6.140625 C 4.546875 -6.078125 4.597656 -5.992188 4.609375 -5.890625 C 4.617188 -5.835938 4.613281 -5.773438 4.59375 -5.703125 L 3.0625 -0.59375 C 3.03125 -0.5 2.984375 -0.425781 2.921875 -0.375 C 2.859375 -0.332031 2.785156 -0.304688 2.703125 -0.296875 C 2.640625 -0.296875 2.570312 -0.3125 2.5 -0.34375 C 2.4375 -0.375 2.378906 -0.429688 2.328125 -0.515625 L -0.265625 -5.171875 C -0.296875 -5.210938 -0.316406 -5.269531 -0.328125 -5.34375 C -0.335938 -5.457031 -0.304688 -5.550781 -0.234375 -5.625 C -0.160156 -5.707031 -0.0703125 -5.753906 0.03125 -5.765625 C 0.1875 -5.773438 0.316406 -5.703125 0.421875 -5.546875 L 2.640625 -1.578125 L 3.84375 -5.921875 C 3.875 -6.015625 3.914062 -6.082031 3.96875 -6.125 C 4.03125 -6.175781 4.097656 -6.207031 4.171875 -6.21875 Z M 4.171875 -6.21875 "/></g></g></g><g fill="#ffffff" fill-opacity="1"><g transform="translate(100.93367, 96.911965)"><g><path d="M 3.921875 -0.625 C 4.035156 -0.625 4.128906 -0.582031 4.203125 -0.5 C 4.273438 -0.414062 4.3125 -0.320312 4.3125 -0.21875 C 4.300781 -0.113281 4.257812 -0.03125 4.1875 0.03125 C 4.113281 0.09375 4.019531 0.125 3.90625 0.125 L 1.0625 0.03125 C 0.957031 0.03125 0.863281 -0.0078125 0.78125 -0.09375 C 0.707031 -0.175781 0.675781 -0.269531 0.6875 -0.375 L 0.84375 -5.296875 C 0.84375 -5.410156 0.878906 -5.5 0.953125 -5.5625 C 1.035156 -5.632812 1.128906 -5.671875 1.234375 -5.671875 L 4.078125 -5.578125 C 4.191406 -5.578125 4.285156 -5.539062 4.359375 -5.46875 C 4.429688 -5.394531 4.46875 -5.300781 4.46875 -5.1875 C 4.457031 -5.070312 4.414062 -4.984375 4.34375 -4.921875 C 4.269531 -4.859375 4.175781 -4.828125 4.0625 -4.828125 L 1.640625 -4.90625 L 1.59375 -3.25 L 3.65625 -3.1875 C 3.769531 -3.1875 3.859375 -3.144531 3.921875 -3.0625 C 3.992188 -2.988281 4.03125 -2.898438 4.03125 -2.796875 C 4.019531 -2.679688 3.976562 -2.59375 3.90625 -2.53125 C 3.832031 -2.46875 3.738281 -2.4375 3.625 -2.4375 L 1.5625 -2.5 L 1.5 -0.703125 Z M 3.921875 -0.625 "/></g></g></g><g fill="#ffffff" fill-opacity="1"><g transform="translate(108.454572, 97.343382)"><g><path d="M 3.90625 -0.125 C 4.019531 -0.101562 4.101562 -0.0546875 4.15625 0.015625 C 4.21875 0.0976562 4.238281 0.195312 4.21875 0.3125 C 4.195312 0.414062 4.144531 0.5 4.0625 0.5625 C 3.988281 0.625 3.894531 0.644531 3.78125 0.625 L 1.046875 0.171875 C 0.929688 0.148438 0.84375 0.09375 0.78125 0 C 0.71875 -0.0820312 0.695312 -0.175781 0.71875 -0.28125 L 1.53125 -5.125 C 1.539062 -5.238281 1.59375 -5.328125 1.6875 -5.390625 C 1.78125 -5.453125 1.882812 -5.472656 2 -5.453125 C 2.113281 -5.429688 2.203125 -5.375 2.265625 -5.28125 C 2.328125 -5.195312 2.351562 -5.097656 2.34375 -4.984375 L 1.59375 -0.5 Z M 3.90625 -0.125 "/></g></g></g><g fill="#ffffff" fill-opacity="1"><g transform="translate(115.735882, 98.780337)"><g><path d="M 1.53125 0.015625 C 1.5 0.128906 1.429688 0.210938 1.328125 0.265625 C 1.234375 0.316406 1.132812 0.328125 1.03125 0.296875 C 0.914062 0.265625 0.832031 0.203125 0.78125 0.109375 C 0.726562 0.015625 0.71875 -0.0859375 0.75 -0.203125 L 2.09375 -4.921875 C 2.125 -5.035156 2.1875 -5.113281 2.28125 -5.15625 C 2.375 -5.207031 2.472656 -5.21875 2.578125 -5.1875 C 2.691406 -5.15625 2.773438 -5.09375 2.828125 -5 C 2.890625 -4.914062 2.90625 -4.816406 2.875 -4.703125 Z M 1.53125 0.015625 "/></g></g></g><g fill="#ffffff" fill-opacity="1"><g transform="translate(120.59826, 100.219526)"><g><path d="M 6.765625 -3.328125 C 6.859375 -3.285156 6.921875 -3.21875 6.953125 -3.125 C 6.992188 -3.039062 6.992188 -2.953125 6.953125 -2.859375 L 5.03125 1.6875 C 4.988281 1.789062 4.914062 1.863281 4.8125 1.90625 C 4.71875 1.957031 4.617188 1.957031 4.515625 1.90625 C 4.460938 1.882812 4.414062 1.851562 4.375 1.8125 C 4.332031 1.769531 4.300781 1.726562 4.28125 1.6875 L 2.953125 -3.40625 L 1.421875 0.21875 C 1.378906 0.3125 1.3125 0.375 1.21875 0.40625 C 1.132812 0.445312 1.046875 0.445312 0.953125 0.40625 C 0.859375 0.363281 0.789062 0.296875 0.75 0.203125 C 0.71875 0.117188 0.722656 0.03125 0.765625 -0.0625 L 2.6875 -4.625 C 2.738281 -4.726562 2.8125 -4.800781 2.90625 -4.84375 C 3 -4.882812 3.097656 -4.882812 3.203125 -4.84375 C 3.253906 -4.8125 3.304688 -4.773438 3.359375 -4.734375 C 3.410156 -4.703125 3.441406 -4.65625 3.453125 -4.59375 L 4.765625 0.5 L 6.296875 -3.140625 C 6.335938 -3.234375 6.398438 -3.296875 6.484375 -3.328125 C 6.578125 -3.367188 6.671875 -3.367188 6.765625 -3.328125 Z M 6.765625 -3.328125 "/></g></g></g><g fill="#ffffff" fill-opacity="1"><g transform="translate(128.613409, 103.858549)"><g><path d="M 5.71875 0.015625 C 5.8125 0.0664062 5.867188 0.144531 5.890625 0.25 C 5.910156 0.351562 5.894531 0.453125 5.84375 0.546875 L 4.875 2.09375 C 4.789062 2.226562 4.679688 2.289062 4.546875 2.28125 C 4.234375 2.300781 3.925781 2.265625 3.625 2.171875 C 3.320312 2.085938 3.035156 1.96875 2.765625 1.8125 C 2.304688 1.519531 1.953125 1.144531 1.703125 0.6875 C 1.460938 0.226562 1.347656 -0.253906 1.359375 -0.765625 C 1.367188 -1.285156 1.515625 -1.78125 1.796875 -2.25 C 2.078125 -2.695312 2.445312 -3.046875 2.90625 -3.296875 C 3.375 -3.546875 3.867188 -3.660156 4.390625 -3.640625 C 4.910156 -3.617188 5.398438 -3.460938 5.859375 -3.171875 C 6.085938 -3.035156 6.296875 -2.875 6.484375 -2.6875 C 6.671875 -2.5 6.816406 -2.304688 6.921875 -2.109375 C 6.953125 -2.046875 6.96875 -1.984375 6.96875 -1.921875 C 6.96875 -1.859375 6.945312 -1.796875 6.90625 -1.734375 C 6.851562 -1.648438 6.773438 -1.59375 6.671875 -1.5625 C 6.578125 -1.53125 6.484375 -1.539062 6.390625 -1.59375 C 6.328125 -1.632812 6.273438 -1.679688 6.234375 -1.734375 C 6.023438 -2.066406 5.765625 -2.328125 5.453125 -2.515625 C 5.117188 -2.722656 4.757812 -2.828125 4.375 -2.828125 C 4 -2.835938 3.644531 -2.753906 3.3125 -2.578125 C 2.988281 -2.398438 2.722656 -2.144531 2.515625 -1.8125 C 2.304688 -1.46875 2.191406 -1.101562 2.171875 -0.71875 C 2.160156 -0.34375 2.238281 0.0078125 2.40625 0.34375 C 2.582031 0.6875 2.835938 0.960938 3.171875 1.171875 C 3.335938 1.265625 3.519531 1.34375 3.71875 1.40625 C 3.914062 1.476562 4.097656 1.519531 4.265625 1.53125 L 4.9375 0.421875 L 4.09375 -0.09375 C 4 -0.15625 3.941406 -0.234375 3.921875 -0.328125 C 3.898438 -0.429688 3.914062 -0.523438 3.96875 -0.609375 C 4.03125 -0.703125 4.109375 -0.757812 4.203125 -0.78125 C 4.304688 -0.8125 4.40625 -0.796875 4.5 -0.734375 Z M 5.71875 0.015625 "/></g></g></g><g fill="#ffffff" fill-opacity="1"><g transform="translate(135.753257, 108.608738)"><g/></g></g><g fill="#ffffff" fill-opacity="1"><g transform="translate(139.74395, 111.867906)"><g><path d="M 8.03125 0.125 C 8.09375 0.207031 8.125 0.300781 8.125 0.40625 C 8.132812 0.507812 8.101562 0.597656 8.03125 0.671875 L 4.453125 4.09375 C 4.378906 4.164062 4.285156 4.203125 4.171875 4.203125 C 4.066406 4.203125 3.972656 4.15625 3.890625 4.0625 C 3.804688 3.976562 3.765625 3.878906 3.765625 3.765625 C 3.765625 3.660156 3.804688 3.570312 3.890625 3.5 L 6.625 0.890625 L 3.796875 1.40625 C 3.734375 1.414062 3.671875 1.410156 3.609375 1.390625 C 3.546875 1.378906 3.488281 1.34375 3.4375 1.28125 C 3.40625 1.257812 3.378906 1.210938 3.359375 1.140625 C 3.347656 1.078125 3.347656 1.019531 3.359375 0.96875 L 4.046875 -1.890625 L 1.265625 0.765625 C 1.179688 0.835938 1.085938 0.875 0.984375 0.875 C 0.890625 0.875 0.800781 0.832031 0.71875 0.75 C 0.644531 0.664062 0.609375 0.570312 0.609375 0.46875 C 0.617188 0.375 0.664062 0.289062 0.75 0.21875 L 4.328125 -3.203125 C 4.398438 -3.273438 4.488281 -3.304688 4.59375 -3.296875 C 4.707031 -3.296875 4.804688 -3.253906 4.890625 -3.171875 C 4.929688 -3.128906 4.957031 -3.070312 4.96875 -3 C 4.988281 -2.9375 4.992188 -2.867188 4.984375 -2.796875 L 4.21875 0.625 L 7.671875 0.015625 C 7.816406 -0.00390625 7.9375 0.03125 8.03125 0.125 Z M 8.03125 0.125 "/></g></g></g><g fill="#ffffff" fill-opacity="1"><g transform="translate(146.12355, 118.944404)"><g><path d="M 3.296875 3.875 C 3.273438 3.914062 3.238281 3.953125 3.1875 3.984375 C 3.101562 4.046875 3.007812 4.066406 2.90625 4.046875 C 2.800781 4.023438 2.71875 3.972656 2.65625 3.890625 C 2.613281 3.828125 2.59375 3.757812 2.59375 3.6875 C 2.601562 3.613281 2.628906 3.53125 2.671875 3.4375 L 3.390625 2.359375 L 1.953125 0.296875 L 0.671875 0.546875 C 0.585938 0.578125 0.503906 0.578125 0.421875 0.546875 C 0.347656 0.523438 0.289062 0.484375 0.25 0.421875 C 0.1875 0.328125 0.160156 0.234375 0.171875 0.140625 C 0.191406 0.0546875 0.242188 -0.0078125 0.328125 -0.0625 C 0.347656 -0.0820312 0.390625 -0.101562 0.453125 -0.125 L 5.796875 -1.28125 C 5.878906 -1.289062 5.957031 -1.28125 6.03125 -1.25 C 6.101562 -1.226562 6.164062 -1.175781 6.21875 -1.09375 C 6.257812 -1.03125 6.28125 -0.957031 6.28125 -0.875 C 6.289062 -0.800781 6.269531 -0.726562 6.21875 -0.65625 Z M 2.71875 0.109375 L 3.796875 1.6875 L 5.15625 -0.421875 Z M 2.71875 0.109375 "/></g></g></g><g fill="#ffffff" fill-opacity="1"><g transform="translate(150.558459, 125.72081)"><g><path d="M 7.046875 1.359375 C 7.097656 1.460938 7.109375 1.5625 7.078125 1.65625 C 7.054688 1.757812 6.992188 1.835938 6.890625 1.890625 C 6.785156 1.929688 6.6875 1.929688 6.59375 1.890625 C 6.507812 1.859375 6.441406 1.789062 6.390625 1.6875 L 5.75 0.390625 L 1.65625 2.4375 C 1.5625 2.476562 1.460938 2.484375 1.359375 2.453125 C 1.253906 2.421875 1.175781 2.351562 1.125 2.25 C 1.070312 2.132812 1.0625 2.023438 1.09375 1.921875 C 1.125 1.816406 1.1875 1.742188 1.28125 1.703125 L 5.375 -0.34375 L 4.734375 -1.625 C 4.679688 -1.726562 4.671875 -1.828125 4.703125 -1.921875 C 4.734375 -2.023438 4.800781 -2.101562 4.90625 -2.15625 C 5 -2.195312 5.085938 -2.195312 5.171875 -2.15625 C 5.265625 -2.125 5.335938 -2.054688 5.390625 -1.953125 Z M 7.046875 1.359375 "/></g></g></g><g fill="#ffffff" fill-opacity="1"><g transform="translate(153.903275, 132.882827)"><g><path d="M 1.953125 3.46875 C 1.992188 3.570312 1.988281 3.671875 1.9375 3.765625 C 1.882812 3.859375 1.8125 3.925781 1.71875 3.96875 C 1.613281 4 1.519531 3.988281 1.4375 3.9375 C 1.351562 3.882812 1.289062 3.804688 1.25 3.703125 L 0.34375 1 C 0.3125 0.90625 0.316406 0.804688 0.359375 0.703125 C 0.410156 0.609375 0.488281 0.546875 0.59375 0.515625 L 5.25 -1.0625 C 5.363281 -1.09375 5.46875 -1.082031 5.5625 -1.03125 C 5.65625 -0.988281 5.71875 -0.921875 5.75 -0.828125 L 6.65625 1.875 C 6.695312 1.976562 6.691406 2.078125 6.640625 2.171875 C 6.597656 2.265625 6.523438 2.332031 6.421875 2.375 C 6.316406 2.40625 6.21875 2.394531 6.125 2.34375 C 6.039062 2.289062 5.976562 2.210938 5.9375 2.109375 L 5.15625 -0.1875 L 3.59375 0.34375 L 4.265625 2.296875 C 4.296875 2.398438 4.289062 2.5 4.25 2.59375 C 4.207031 2.695312 4.132812 2.765625 4.03125 2.796875 C 3.925781 2.835938 3.828125 2.832031 3.734375 2.78125 C 3.640625 2.726562 3.578125 2.648438 3.546875 2.546875 L 2.875 0.59375 L 1.171875 1.171875 Z M 1.953125 3.46875 "/></g></g></g><g fill="#ffffff" fill-opacity="1"><g transform="translate(197.300397, 161.162085)"><g><path d="M 12.9375 -16.921875 C 13.363281 -16.921875 13.710938 -16.789062 13.984375 -16.53125 C 14.265625 -16.269531 14.40625 -15.929688 14.40625 -15.515625 C 14.40625 -15.097656 14.265625 -14.765625 13.984375 -14.515625 C 13.710938 -14.265625 13.363281 -14.140625 12.9375 -14.140625 L 9.140625 -14.140625 L 9.140625 -1.46875 C 9.140625 -1.050781 8.984375 -0.703125 8.671875 -0.421875 C 8.367188 -0.140625 7.992188 0 7.546875 0 C 7.085938 0 6.710938 -0.140625 6.421875 -0.421875 C 6.140625 -0.703125 6 -1.050781 6 -1.46875 L 6 -14.140625 L 2.203125 -14.140625 C 1.765625 -14.140625 1.40625 -14.265625 1.125 -14.515625 C 0.851562 -14.773438 0.71875 -15.117188 0.71875 -15.546875 C 0.71875 -15.941406 0.859375 -16.269531 1.140625 -16.53125 C 1.429688 -16.789062 1.785156 -16.921875 2.203125 -16.921875 Z M 12.9375 -16.921875 "/></g></g></g><g fill="#ffffff" fill-opacity="1"><g transform="translate(213.321454, 161.162085)"><g><path d="M 8.296875 -13.171875 C 8.773438 -13.171875 9.175781 -13.035156 9.5 -12.765625 C 9.832031 -12.492188 10 -12.171875 10 -11.796875 C 10 -11.296875 9.867188 -10.921875 9.609375 -10.671875 C 9.359375 -10.421875 9.054688 -10.296875 8.703125 -10.296875 C 8.460938 -10.296875 8.1875 -10.351562 7.875 -10.46875 C 7.832031 -10.476562 7.722656 -10.507812 7.546875 -10.5625 C 7.378906 -10.613281 7.203125 -10.640625 7.015625 -10.640625 C 6.585938 -10.640625 6.179688 -10.507812 5.796875 -10.25 C 5.410156 -9.988281 5.09375 -9.597656 4.84375 -9.078125 C 4.59375 -8.554688 4.46875 -7.929688 4.46875 -7.203125 L 4.46875 -1.46875 C 4.46875 -1.050781 4.332031 -0.703125 4.0625 -0.421875 C 3.789062 -0.140625 3.441406 0 3.015625 0 C 2.597656 0 2.253906 -0.140625 1.984375 -0.421875 C 1.710938 -0.703125 1.578125 -1.050781 1.578125 -1.46875 L 1.578125 -11.453125 C 1.578125 -11.867188 1.710938 -12.21875 1.984375 -12.5 C 2.253906 -12.789062 2.597656 -12.9375 3.015625 -12.9375 C 3.441406 -12.9375 3.789062 -12.789062 4.0625 -12.5 C 4.332031 -12.21875 4.46875 -11.867188 4.46875 -11.453125 L 4.46875 -11.140625 C 4.84375 -11.804688 5.375 -12.3125 6.0625 -12.65625 C 6.757812 -13 7.503906 -13.171875 8.296875 -13.171875 Z M 8.296875 -13.171875 "/></g></g></g><g fill="#ffffff" fill-opacity="1"><g transform="translate(224.703019, 161.162085)"><g><path d="M 12.03125 -13.171875 C 12.457031 -13.171875 12.804688 -13.035156 13.078125 -12.765625 C 13.347656 -12.492188 13.484375 -12.140625 13.484375 -11.703125 L 13.484375 -1.46875 C 13.484375 -1.050781 13.347656 -0.703125 13.078125 -0.421875 C 12.804688 -0.140625 12.457031 0 12.03125 0 C 11.613281 0 11.269531 -0.132812 11 -0.40625 C 10.738281 -0.6875 10.601562 -1.035156 10.59375 -1.453125 C 10.1875 -0.984375 9.640625 -0.582031 8.953125 -0.25 C 8.265625 0.0703125 7.546875 0.234375 6.796875 0.234375 C 5.679688 0.234375 4.671875 -0.046875 3.765625 -0.609375 C 2.867188 -1.179688 2.15625 -1.972656 1.625 -2.984375 C 1.101562 -4.003906 0.84375 -5.160156 0.84375 -6.453125 C 0.84375 -7.742188 1.097656 -8.898438 1.609375 -9.921875 C 2.128906 -10.941406 2.835938 -11.738281 3.734375 -12.3125 C 4.628906 -12.882812 5.617188 -13.171875 6.703125 -13.171875 C 7.472656 -13.171875 8.195312 -13.03125 8.875 -12.75 C 9.550781 -12.46875 10.125 -12.109375 10.59375 -11.671875 L 10.59375 -11.703125 C 10.59375 -12.117188 10.726562 -12.46875 11 -12.75 C 11.269531 -13.03125 11.613281 -13.171875 12.03125 -13.171875 Z M 7.15625 -2.421875 C 8.195312 -2.421875 9.046875 -2.800781 9.703125 -3.5625 C 10.367188 -4.332031 10.703125 -5.296875 10.703125 -6.453125 C 10.703125 -7.609375 10.367188 -8.570312 9.703125 -9.34375 C 9.046875 -10.125 8.195312 -10.515625 7.15625 -10.515625 C 6.125 -10.515625 5.273438 -10.125 4.609375 -9.34375 C 3.953125 -8.570312 3.625 -7.609375 3.625 -6.453125 C 3.625 -5.296875 3.945312 -4.332031 4.59375 -3.5625 C 5.25 -2.800781 6.101562 -2.421875 7.15625 -2.421875 Z M 7.15625 -2.421875 "/></g></g></g><g fill="#ffffff" fill-opacity="1"><g transform="translate(240.651587, 161.162085)"><g><path d="M 11.5 -12.90625 C 11.882812 -12.90625 12.207031 -12.78125 12.46875 -12.53125 C 12.726562 -12.28125 12.859375 -11.972656 12.859375 -11.609375 C 12.859375 -11.410156 12.796875 -11.164062 12.671875 -10.875 L 8.140625 -0.921875 C 8.035156 -0.640625 7.875 -0.421875 7.65625 -0.265625 C 7.4375 -0.109375 7.1875 -0.0195312 6.90625 0 L 6.703125 0.03125 C 6.421875 0.03125 6.160156 -0.0507812 5.921875 -0.21875 C 5.691406 -0.394531 5.515625 -0.628906 5.390625 -0.921875 L 0.890625 -10.875 C 0.773438 -11.132812 0.71875 -11.394531 0.71875 -11.65625 C 0.71875 -11.976562 0.851562 -12.269531 1.125 -12.53125 C 1.40625 -12.800781 1.75 -12.9375 2.15625 -12.9375 C 2.457031 -12.9375 2.738281 -12.851562 3 -12.6875 C 3.257812 -12.53125 3.453125 -12.304688 3.578125 -12.015625 L 6.90625 -4.375 L 10.21875 -11.984375 C 10.351562 -12.296875 10.53125 -12.53125 10.75 -12.6875 C 10.976562 -12.851562 11.226562 -12.925781 11.5 -12.90625 Z M 11.5 -12.90625 "/></g></g></g><g fill="#ffffff" fill-opacity="1"><g transform="translate(255.126148, 161.162085)"><g><path d="M 13.171875 -6.765625 C 13.160156 -6.378906 13.007812 -6.066406 12.71875 -5.828125 C 12.425781 -5.585938 12.085938 -5.46875 11.703125 -5.46875 L 3.71875 -5.46875 C 3.914062 -4.507812 4.359375 -3.757812 5.046875 -3.21875 C 5.742188 -2.6875 6.523438 -2.421875 7.390625 -2.421875 C 8.054688 -2.421875 8.570312 -2.476562 8.9375 -2.59375 C 9.3125 -2.71875 9.609375 -2.847656 9.828125 -2.984375 C 10.046875 -3.117188 10.191406 -3.210938 10.265625 -3.265625 C 10.554688 -3.410156 10.832031 -3.484375 11.09375 -3.484375 C 11.4375 -3.484375 11.726562 -3.359375 11.96875 -3.109375 C 12.207031 -2.867188 12.328125 -2.585938 12.328125 -2.265625 C 12.328125 -1.835938 12.101562 -1.445312 11.65625 -1.09375 C 11.195312 -0.71875 10.585938 -0.398438 9.828125 -0.140625 C 9.078125 0.109375 8.316406 0.234375 7.546875 0.234375 C 6.191406 0.234375 5.007812 -0.046875 4 -0.609375 C 2.988281 -1.171875 2.207031 -1.945312 1.65625 -2.9375 C 1.113281 -3.925781 0.84375 -5.039062 0.84375 -6.28125 C 0.84375 -7.664062 1.132812 -8.878906 1.71875 -9.921875 C 2.300781 -10.972656 3.066406 -11.773438 4.015625 -12.328125 C 4.960938 -12.890625 5.976562 -13.171875 7.0625 -13.171875 C 8.125 -13.171875 9.125 -12.878906 10.0625 -12.296875 C 11.007812 -11.722656 11.765625 -10.941406 12.328125 -9.953125 C 12.890625 -8.972656 13.171875 -7.910156 13.171875 -6.765625 Z M 7.0625 -10.515625 C 5.1875 -10.515625 4.082031 -9.632812 3.75 -7.875 L 10.078125 -7.875 L 10.078125 -8.046875 C 10.015625 -8.722656 9.679688 -9.300781 9.078125 -9.78125 C 8.484375 -10.269531 7.8125 -10.515625 7.0625 -10.515625 Z M 7.0625 -10.515625 "/></g></g></g><g fill="#ffffff" fill-opacity="1"><g transform="translate(270.035664, 161.162085)"><g><path d="M 4.71875 -1.46875 C 4.71875 -1.050781 4.578125 -0.703125 4.296875 -0.421875 C 4.015625 -0.140625 3.660156 0 3.234375 0 C 2.835938 0 2.5 -0.140625 2.21875 -0.421875 C 1.945312 -0.703125 1.8125 -1.050781 1.8125 -1.46875 L 1.8125 -16.40625 C 1.8125 -16.832031 1.953125 -17.1875 2.234375 -17.46875 C 2.515625 -17.75 2.863281 -17.890625 3.28125 -17.890625 C 3.6875 -17.890625 4.023438 -17.75 4.296875 -17.46875 C 4.578125 -17.1875 4.71875 -16.832031 4.71875 -16.40625 Z M 4.71875 -1.46875 "/></g></g></g><g fill="#ffffff" fill-opacity="1"><g transform="translate(197.980085, 194.912082)"><g><path d="M 11.96875 -9.375 C 12.820312 -9.039062 13.515625 -8.523438 14.046875 -7.828125 C 14.585938 -7.140625 14.859375 -6.25 14.859375 -5.15625 C 14.859375 -3.226562 14.3125 -1.882812 13.21875 -1.125 C 12.125 -0.375 10.820312 0 9.3125 0 L 3.28125 0 C 2.863281 0 2.515625 -0.140625 2.234375 -0.421875 C 1.953125 -0.703125 1.8125 -1.050781 1.8125 -1.46875 L 1.8125 -15.453125 C 1.8125 -15.867188 1.953125 -16.21875 2.234375 -16.5 C 2.515625 -16.78125 2.863281 -16.921875 3.28125 -16.921875 L 9.375 -16.921875 C 12.4375 -16.921875 13.96875 -15.488281 13.96875 -12.625 C 13.96875 -11.894531 13.796875 -11.25 13.453125 -10.6875 C 13.109375 -10.132812 12.613281 -9.695312 11.96875 -9.375 Z M 10.828125 -12.078125 C 10.828125 -12.742188 10.660156 -13.238281 10.328125 -13.5625 C 10.003906 -13.894531 9.539062 -14.0625 8.9375 -14.0625 L 4.953125 -14.0625 L 4.953125 -10.296875 L 9.015625 -10.296875 C 9.492188 -10.296875 9.914062 -10.457031 10.28125 -10.78125 C 10.644531 -11.101562 10.828125 -11.535156 10.828125 -12.078125 Z M 9.3125 -2.78125 C 10.0625 -2.78125 10.648438 -2.976562 11.078125 -3.375 C 11.503906 -3.78125 11.71875 -4.375 11.71875 -5.15625 C 11.71875 -6.101562 11.46875 -6.71875 10.96875 -7 C 10.46875 -7.289062 9.859375 -7.4375 9.140625 -7.4375 L 4.953125 -7.4375 L 4.953125 -2.78125 Z M 9.3125 -2.78125 "/></g></g></g><g fill="#ffffff" fill-opacity="1"><g transform="translate(214.701898, 194.912082)"><g><path d="M 11.171875 -12.9375 C 11.585938 -12.9375 11.929688 -12.789062 12.203125 -12.5 C 12.484375 -12.21875 12.625 -11.867188 12.625 -11.453125 L 12.625 -5.3125 C 12.625 -3.570312 12.140625 -2.210938 11.171875 -1.234375 C 10.210938 -0.253906 8.847656 0.234375 7.078125 0.234375 C 5.304688 0.234375 3.945312 -0.253906 3 -1.234375 C 2.050781 -2.210938 1.578125 -3.570312 1.578125 -5.3125 L 1.578125 -11.453125 C 1.578125 -11.867188 1.710938 -12.21875 1.984375 -12.5 C 2.253906 -12.789062 2.597656 -12.9375 3.015625 -12.9375 C 3.441406 -12.9375 3.789062 -12.789062 4.0625 -12.5 C 4.332031 -12.21875 4.46875 -11.867188 4.46875 -11.453125 L 4.46875 -5.3125 C 4.46875 -4.332031 4.6875 -3.601562 5.125 -3.125 C 5.5625 -2.65625 6.210938 -2.421875 7.078125 -2.421875 C 7.960938 -2.421875 8.625 -2.65625 9.0625 -3.125 C 9.5 -3.601562 9.71875 -4.332031 9.71875 -5.3125 L 9.71875 -11.453125 C 9.71875 -11.867188 9.851562 -12.21875 10.125 -12.5 C 10.394531 -12.789062 10.742188 -12.9375 11.171875 -12.9375 Z M 11.171875 -12.9375 "/></g></g></g><g fill="#ffffff" fill-opacity="1"><g transform="translate(229.780556, 194.912082)"><g><path d="M 12.03125 -17.890625 C 12.457031 -17.890625 12.804688 -17.75 13.078125 -17.46875 C 13.347656 -17.195312 13.484375 -16.84375 13.484375 -16.40625 L 13.484375 -1.46875 C 13.484375 -1.050781 13.347656 -0.703125 13.078125 -0.421875 C 12.804688 -0.140625 12.457031 0 12.03125 0 C 11.613281 0 11.269531 -0.132812 11 -0.40625 C 10.738281 -0.6875 10.601562 -1.035156 10.59375 -1.453125 C 10.1875 -0.984375 9.640625 -0.582031 8.953125 -0.25 C 8.265625 0.0703125 7.546875 0.234375 6.796875 0.234375 C 5.679688 0.234375 4.671875 -0.046875 3.765625 -0.609375 C 2.867188 -1.179688 2.15625 -1.972656 1.625 -2.984375 C 1.101562 -4.003906 0.84375 -5.160156 0.84375 -6.453125 C 0.84375 -7.742188 1.097656 -8.898438 1.609375 -9.921875 C 2.128906 -10.941406 2.835938 -11.738281 3.734375 -12.3125 C 4.628906 -12.882812 5.617188 -13.171875 6.703125 -13.171875 C 7.472656 -13.171875 8.195312 -13.03125 8.875 -12.75 C 9.550781 -12.46875 10.125 -12.109375 10.59375 -11.671875 L 10.59375 -16.40625 C 10.59375 -16.832031 10.726562 -17.1875 11 -17.46875 C 11.269531 -17.75 11.613281 -17.890625 12.03125 -17.890625 Z M 7.15625 -2.421875 C 8.195312 -2.421875 9.046875 -2.800781 9.703125 -3.5625 C 10.367188 -4.332031 10.703125 -5.296875 10.703125 -6.453125 C 10.703125 -7.609375 10.367188 -8.570312 9.703125 -9.34375 C 9.046875 -10.125 8.195312 -10.515625 7.15625 -10.515625 C 6.125 -10.515625 5.273438 -10.125 4.609375 -9.34375 C 3.953125 -8.570312 3.625 -7.609375 3.625 -6.453125 C 3.625 -5.296875 3.945312 -4.332031 4.59375 -3.5625 C 5.25 -2.800781 6.101562 -2.421875 7.15625 -2.421875 Z M 7.15625 -2.421875 "/></g></g></g><g fill="#ffffff" fill-opacity="1"><g transform="translate(245.729124, 194.912082)"><g><path d="M 12.03125 -17.890625 C 12.457031 -17.890625 12.804688 -17.75 13.078125 -17.46875 C 13.347656 -17.195312 13.484375 -16.84375 13.484375 -16.40625 L 13.484375 -1.46875 C 13.484375 -1.050781 13.347656 -0.703125 13.078125 -0.421875 C 12.804688 -0.140625 12.457031 0 12.03125 0 C 11.613281 0 11.269531 -0.132812 11 -0.40625 C 10.738281 -0.6875 10.601562 -1.035156 10.59375 -1.453125 C 10.1875 -0.984375 9.640625 -0.582031 8.953125 -0.25 C 8.265625 0.0703125 7.546875 0.234375 6.796875 0.234375 C 5.679688 0.234375 4.671875 -0.046875 3.765625 -0.609375 C 2.867188 -1.179688 2.15625 -1.972656 1.625 -2.984375 C 1.101562 -4.003906 0.84375 -5.160156 0.84375 -6.453125 C 0.84375 -7.742188 1.097656 -8.898438 1.609375 -9.921875 C 2.128906 -10.941406 2.835938 -11.738281 3.734375 -12.3125 C 4.628906 -12.882812 5.617188 -13.171875 6.703125 -13.171875 C 7.472656 -13.171875 8.195312 -13.03125 8.875 -12.75 C 9.550781 -12.46875 10.125 -12.109375 10.59375 -11.671875 L 10.59375 -16.40625 C 10.59375 -16.832031 10.726562 -17.1875 11 -17.46875 C 11.269531 -17.75 11.613281 -17.890625 12.03125 -17.890625 Z M 7.15625 -2.421875 C 8.195312 -2.421875 9.046875 -2.800781 9.703125 -3.5625 C 10.367188 -4.332031 10.703125 -5.296875 10.703125 -6.453125 C 10.703125 -7.609375 10.367188 -8.570312 9.703125 -9.34375 C 9.046875 -10.125 8.195312 -10.515625 7.15625 -10.515625 C 6.125 -10.515625 5.273438 -10.125 4.609375 -9.34375 C 3.953125 -8.570312 3.625 -7.609375 3.625 -6.453125 C 3.625 -5.296875 3.945312 -4.332031 4.59375 -3.5625 C 5.25 -2.800781 6.101562 -2.421875 7.15625 -2.421875 Z M 7.15625 -2.421875 "/></g></g></g><g fill="#ffffff" fill-opacity="1"><g transform="translate(261.677695, 194.912082)"><g><path d="M 11.171875 -12.9375 C 11.585938 -12.9375 11.929688 -12.789062 12.203125 -12.5 C 12.484375 -12.21875 12.625 -11.867188 12.625 -11.453125 L 12.625 -1.1875 C 12.625 0.90625 12.054688 2.429688 10.921875 3.390625 C 9.796875 4.347656 8.289062 4.828125 6.40625 4.828125 C 5.851562 4.828125 5.289062 4.78125 4.71875 4.6875 C 4.15625 4.601562 3.691406 4.488281 3.328125 4.34375 C 2.546875 4.007812 2.15625 3.546875 2.15625 2.953125 C 2.15625 2.835938 2.175781 2.707031 2.21875 2.5625 C 2.320312 2.207031 2.488281 1.9375 2.71875 1.75 C 2.945312 1.5625 3.203125 1.46875 3.484375 1.46875 C 3.640625 1.46875 3.789062 1.492188 3.9375 1.546875 C 4.050781 1.597656 4.25 1.675781 4.53125 1.78125 C 4.8125 1.894531 5.109375 1.988281 5.421875 2.0625 C 5.734375 2.132812 6.0625 2.171875 6.40625 2.171875 C 7.550781 2.171875 8.390625 1.925781 8.921875 1.4375 C 9.460938 0.945312 9.734375 0.101562 9.734375 -1.09375 L 9.734375 -1.328125 C 8.898438 -0.285156 7.597656 0.234375 5.828125 0.234375 C 4.984375 0.234375 4.238281 0.0390625 3.59375 -0.34375 C 2.957031 -0.738281 2.460938 -1.285156 2.109375 -1.984375 C 1.753906 -2.691406 1.578125 -3.5 1.578125 -4.40625 L 1.578125 -11.453125 C 1.578125 -11.867188 1.710938 -12.21875 1.984375 -12.5 C 2.253906 -12.789062 2.597656 -12.9375 3.015625 -12.9375 C 3.441406 -12.9375 3.789062 -12.789062 4.0625 -12.5 C 4.332031 -12.21875 4.46875 -11.867188 4.46875 -11.453125 L 4.46875 -5.265625 C 4.46875 -4.253906 4.6875 -3.523438 5.125 -3.078125 C 5.570312 -2.640625 6.222656 -2.421875 7.078125 -2.421875 C 7.921875 -2.421875 8.570312 -2.664062 9.03125 -3.15625 C 9.488281 -3.644531 9.71875 -4.347656 9.71875 -5.265625 L 9.71875 -11.453125 C 9.71875 -11.867188 9.851562 -12.21875 10.125 -12.5 C 10.394531 -12.789062 10.742188 -12.9375 11.171875 -12.9375 Z M 11.171875 -12.9375 "/></g></g></g></svg>