<svg xmlns="http://www.w3.org/2000/svg" xmlns:xlink="http://www.w3.org/1999/xlink" width="500" zoomAndPan="magnify" viewBox="0 0 375 374.999991" height="500" preserveAspectRatio="xMidYMid meet" version="1.0"><defs><clipPath id="c308932702"><path d="M 37.5 16.558594 L 337.5 16.558594 L 337.5 358.558594 L 37.5 358.558594 Z M 37.5 16.558594 " clip-rule="nonzero"/></clipPath></defs><path fill="#ffffff" d="M 187.652344 149.242188 C 186.558594 149.242188 185.472656 149.1875 184.386719 149.082031 C 183.304688 148.972656 182.226562 148.8125 181.15625 148.601562 C 180.085938 148.386719 179.03125 148.125 177.988281 147.808594 C 176.945312 147.492188 175.917969 147.125 174.914062 146.707031 C 173.90625 146.289062 172.921875 145.824219 171.960938 145.308594 C 171 144.796875 170.0625 144.234375 169.15625 143.628906 C 168.25 143.023438 167.375 142.375 166.535156 141.683594 C 165.691406 140.992188 164.882812 140.261719 164.113281 139.488281 C 163.34375 138.71875 162.613281 137.910156 161.917969 137.066406 C 161.226562 136.226562 160.578125 135.351562 159.972656 134.445312 C 159.367188 133.535156 158.808594 132.601562 158.292969 131.640625 C 157.78125 130.679688 157.316406 129.695312 156.898438 128.6875 C 156.480469 127.679688 156.113281 126.652344 155.796875 125.609375 C 155.480469 124.566406 155.214844 123.511719 155.003906 122.441406 C 154.789062 121.371094 154.632812 120.292969 154.523438 119.207031 C 154.417969 118.125 154.363281 117.035156 154.363281 115.945312 C 154.363281 114.855469 154.417969 113.765625 154.523438 112.679688 C 154.632812 111.597656 154.789062 110.519531 155.003906 109.449219 C 155.214844 108.378906 155.480469 107.324219 155.796875 106.28125 C 156.113281 105.234375 156.480469 104.210938 156.898438 103.203125 C 157.3125 102.195312 157.78125 101.210938 158.292969 100.25 C 158.808594 99.289062 159.367188 98.351562 159.972656 97.445312 C 160.578125 96.539062 161.226562 95.664062 161.917969 94.820312 C 162.609375 93.980469 163.339844 93.171875 164.113281 92.402344 C 164.882812 91.628906 165.6875 90.898438 166.53125 90.207031 C 167.375 89.515625 168.25 88.867188 169.15625 88.261719 C 170.0625 87.65625 170.996094 87.09375 171.957031 86.582031 C 172.917969 86.066406 173.902344 85.601562 174.910156 85.183594 C 175.917969 84.765625 176.941406 84.398438 177.984375 84.082031 C 179.027344 83.765625 180.085938 83.5 181.152344 83.289062 C 182.222656 83.074219 183.300781 82.914062 184.386719 82.808594 C 185.46875 82.703125 186.558594 82.648438 187.648438 82.648438 C 188.738281 82.648438 189.824219 82.703125 190.910156 82.808594 C 191.996094 82.914062 193.070312 83.074219 194.140625 83.289062 C 195.210938 83.5 196.265625 83.765625 197.308594 84.082031 C 198.351562 84.398438 199.378906 84.765625 200.382812 85.183594 C 201.390625 85.601562 202.375 86.066406 203.335938 86.578125 C 204.296875 87.09375 205.230469 87.652344 206.140625 88.261719 C 207.046875 88.867188 207.917969 89.515625 208.761719 90.207031 C 209.605469 90.898438 210.410156 91.628906 211.183594 92.402344 C 211.953125 93.171875 212.683594 93.980469 213.375 94.824219 C 214.066406 95.664062 214.714844 96.539062 215.320312 97.445312 C 215.925781 98.355469 216.488281 99.289062 217 100.25 C 217.515625 101.210938 217.980469 102.195312 218.398438 103.203125 C 218.816406 104.210938 219.179688 105.238281 219.496094 106.28125 C 219.8125 107.324219 220.078125 108.382812 220.292969 109.449219 C 220.503906 110.519531 220.664062 111.597656 220.769531 112.683594 C 220.878906 113.769531 220.929688 114.855469 220.929688 115.949219 C 220.929688 117.039062 220.875 118.125 220.765625 119.210938 C 220.660156 120.292969 220.5 121.371094 220.285156 122.441406 C 220.070312 123.507812 219.808594 124.566406 219.488281 125.609375 C 219.171875 126.652344 218.804688 127.675781 218.386719 128.683594 C 217.96875 129.691406 217.503906 130.671875 216.992188 131.636719 C 216.476562 132.597656 215.917969 133.53125 215.3125 134.4375 C 214.707031 135.34375 214.058594 136.214844 213.367188 137.058594 C 212.675781 137.902344 211.941406 138.707031 211.171875 139.480469 C 210.402344 140.25 209.597656 140.980469 208.753906 141.671875 C 207.910156 142.363281 207.039062 143.011719 206.132812 143.617188 C 205.226562 144.226562 204.292969 144.785156 203.332031 145.300781 C 202.371094 145.8125 201.386719 146.277344 200.378906 146.695312 C 199.375 147.113281 198.351562 147.480469 197.308594 147.800781 C 196.265625 148.117188 195.210938 148.382812 194.140625 148.59375 C 193.070312 148.808594 191.996094 148.96875 190.910156 149.078125 C 189.828125 149.183594 188.738281 149.238281 187.652344 149.242188 Z M 187.652344 88.675781 C 186.757812 88.675781 185.867188 88.71875 184.976562 88.804688 C 184.089844 88.894531 183.207031 89.023438 182.332031 89.199219 C 181.457031 89.375 180.589844 89.589844 179.738281 89.847656 C 178.882812 90.109375 178.042969 90.410156 177.21875 90.75 C 176.394531 91.09375 175.585938 91.472656 174.800781 91.894531 C 174.011719 92.316406 173.246094 92.773438 172.503906 93.269531 C 171.761719 93.765625 171.046875 94.296875 170.355469 94.863281 C 169.664062 95.429688 169.003906 96.03125 168.375 96.660156 C 167.742188 97.292969 167.144531 97.953125 166.578125 98.644531 C 166.011719 99.335938 165.480469 100.050781 164.984375 100.792969 C 164.488281 101.535156 164.027344 102.300781 163.605469 103.089844 C 163.1875 103.878906 162.804688 104.683594 162.464844 105.507812 C 162.121094 106.335938 161.820312 107.175781 161.5625 108.027344 C 161.304688 108.882812 161.085938 109.75 160.910156 110.625 C 160.738281 111.5 160.605469 112.382812 160.519531 113.273438 C 160.433594 114.160156 160.386719 115.050781 160.386719 115.945312 C 160.386719 116.835938 160.433594 117.730469 160.519531 118.617188 C 160.605469 119.507812 160.738281 120.390625 160.910156 121.265625 C 161.085938 122.140625 161.300781 123.007812 161.5625 123.859375 C 161.820312 124.714844 162.121094 125.554688 162.464844 126.378906 C 162.804688 127.207031 163.1875 128.011719 163.605469 128.800781 C 164.027344 129.585938 164.484375 130.351562 164.980469 131.09375 C 165.476562 131.835938 166.007812 132.554688 166.574219 133.246094 C 167.140625 133.933594 167.742188 134.59375 168.371094 135.226562 C 169.003906 135.859375 169.664062 136.457031 170.355469 137.023438 C 171.042969 137.589844 171.761719 138.121094 172.503906 138.617188 C 173.246094 139.113281 174.011719 139.574219 174.796875 139.996094 C 175.585938 140.414062 176.390625 140.796875 177.214844 141.136719 C 178.039062 141.480469 178.878906 141.78125 179.734375 142.039062 C 180.589844 142.300781 181.453125 142.515625 182.328125 142.691406 C 183.207031 142.863281 184.085938 142.996094 184.976562 143.082031 C 185.863281 143.171875 186.753906 143.214844 187.648438 143.214844 C 188.539062 143.214844 189.429688 143.171875 190.320312 143.082031 C 191.207031 142.996094 192.089844 142.863281 192.964844 142.691406 C 193.839844 142.515625 194.707031 142.300781 195.558594 142.039062 C 196.414062 141.78125 197.253906 141.480469 198.078125 141.140625 C 198.902344 140.796875 199.710938 140.414062 200.496094 139.996094 C 201.285156 139.574219 202.050781 139.113281 202.792969 138.617188 C 203.535156 138.121094 204.25 137.589844 204.941406 137.023438 C 205.628906 136.457031 206.292969 135.859375 206.921875 135.226562 C 207.554688 134.597656 208.152344 133.933594 208.71875 133.246094 C 209.285156 132.554688 209.816406 131.835938 210.3125 131.09375 C 210.808594 130.351562 211.265625 129.585938 211.6875 128.800781 C 212.109375 128.011719 212.488281 127.207031 212.832031 126.378906 C 213.171875 125.554688 213.472656 124.714844 213.734375 123.859375 C 213.992188 123.007812 214.207031 122.140625 214.382812 121.265625 C 214.558594 120.390625 214.6875 119.507812 214.777344 118.617188 C 214.863281 117.730469 214.90625 116.835938 214.90625 115.945312 C 214.90625 115.050781 214.859375 114.160156 214.773438 113.273438 C 214.683594 112.386719 214.550781 111.503906 214.378906 110.628906 C 214.203125 109.753906 213.984375 108.886719 213.726562 108.035156 C 213.464844 107.179688 213.164062 106.339844 212.824219 105.515625 C 212.480469 104.691406 212.101562 103.886719 211.679688 103.097656 C 211.257812 102.3125 210.800781 101.546875 210.304688 100.804688 C 209.808594 100.0625 209.277344 99.347656 208.710938 98.65625 C 208.144531 97.964844 207.546875 97.304688 206.914062 96.675781 C 206.28125 96.042969 205.621094 95.445312 204.933594 94.878906 C 204.242188 94.3125 203.527344 93.78125 202.785156 93.285156 C 202.042969 92.789062 201.28125 92.328125 200.492188 91.90625 C 199.707031 91.484375 198.898438 91.105469 198.074219 90.761719 C 197.25 90.421875 196.414062 90.121094 195.558594 89.859375 C 194.707031 89.601562 193.839844 89.382812 192.964844 89.207031 C 192.089844 89.03125 191.210938 88.902344 190.320312 88.8125 C 189.433594 88.722656 188.542969 88.679688 187.652344 88.679688 Z M 187.652344 88.675781 " fill-opacity="1" fill-rule="nonzero"/><g clip-path="url(#c308932702)"><path fill="#ffffff" d="M 231.355469 267.5 C 243.464844 250.808594 256.144531 232.183594 267.289062 213.535156 C 271.386719 212.449219 275.332031 211.242188 279.15625 209.976562 C 279.535156 209.851562 279.875 209.65625 280.179688 209.394531 C 280.480469 209.132812 280.71875 208.824219 280.898438 208.46875 C 281.078125 208.109375 281.183594 207.734375 281.210938 207.335938 C 281.238281 206.9375 281.191406 206.546875 281.066406 206.167969 C 280.941406 205.789062 280.746094 205.449219 280.484375 205.144531 C 280.222656 204.84375 279.914062 204.601562 279.558594 204.421875 C 279.203125 204.242188 278.824219 204.140625 278.425781 204.109375 C 278.027344 204.078125 277.640625 204.128906 277.261719 204.253906 C 275.453125 204.855469 273.585938 205.429688 271.71875 206 C 287.5625 178.371094 299.367188 151.21875 300.0625 130.882812 C 301.894531 131.925781 303.792969 132.839844 305.753906 133.625 C 306.078125 133.617188 306.394531 133.5625 306.703125 133.453125 C 307.011719 133.34375 307.292969 133.191406 307.550781 132.992188 C 307.804688 132.792969 308.027344 132.558594 308.207031 132.289062 C 308.386719 132.015625 308.523438 131.726562 308.609375 131.410156 C 308.695312 131.097656 308.730469 130.777344 308.710938 130.453125 C 308.695312 130.128906 308.628906 129.8125 308.507812 129.511719 C 308.390625 129.207031 308.226562 128.929688 308.019531 128.679688 C 307.808594 128.429688 307.566406 128.21875 307.289062 128.046875 C 305 126.664062 302.53125 125.335938 299.972656 124.042969 C 299.894531 122.253906 299.773438 120.46875 299.609375 118.6875 C 299.449219 116.902344 299.242188 115.125 298.996094 113.355469 C 298.75 111.582031 298.457031 109.816406 298.125 108.058594 C 297.796875 106.300781 297.421875 104.550781 297.007812 102.808594 C 296.589844 101.066406 296.132812 99.339844 295.636719 97.621094 C 295.140625 95.898438 294.601562 94.195312 294.019531 92.5 C 293.441406 90.808594 292.824219 89.128906 292.164062 87.464844 C 291.503906 85.800781 290.804688 84.15625 290.066406 82.523438 C 289.328125 80.894531 288.550781 79.28125 287.738281 77.691406 C 286.921875 76.097656 286.070312 74.523438 285.179688 72.972656 C 284.289062 71.417969 283.363281 69.886719 282.398438 68.378906 C 281.4375 66.871094 280.4375 65.386719 279.40625 63.925781 C 278.371094 62.464844 277.304688 61.03125 276.199219 59.621094 C 275.097656 58.210938 273.960938 56.828125 272.792969 55.472656 C 271.625 54.121094 270.425781 52.792969 269.195312 51.496094 C 267.960938 50.195312 266.699219 48.929688 265.40625 47.691406 C 264.117188 46.453125 262.792969 45.246094 261.445312 44.074219 C 260.09375 42.898438 258.71875 41.757812 257.3125 40.648438 C 255.910156 39.539062 254.480469 38.464844 253.023438 37.421875 C 251.570312 36.382812 250.089844 35.375 248.585938 34.40625 C 247.082031 33.4375 245.554688 32.503906 244.007812 31.605469 C 242.460938 30.710938 240.890625 29.851562 239.300781 29.027344 C 237.710938 28.207031 236.105469 27.421875 234.476562 26.675781 C 232.851562 25.929688 231.207031 25.222656 229.546875 24.558594 C 227.886719 23.890625 226.210938 23.265625 224.523438 22.675781 C 222.832031 22.089844 221.128906 21.542969 219.410156 21.039062 C 217.695312 20.53125 215.96875 20.066406 214.230469 19.644531 C 212.492188 19.222656 210.742188 18.839844 208.988281 18.5 C 207.230469 18.160156 205.464844 17.863281 203.695312 17.609375 C 201.925781 17.351562 200.148438 17.140625 198.367188 16.96875 C 196.585938 16.800781 194.804688 16.671875 193.015625 16.585938 C 191.230469 16.5 189.441406 16.457031 187.652344 16.457031 C 185.863281 16.457031 184.074219 16.5 182.285156 16.585938 C 180.5 16.671875 178.714844 16.800781 176.933594 16.972656 C 175.152344 17.140625 173.375 17.355469 171.605469 17.609375 C 169.832031 17.867188 168.070312 18.164062 166.3125 18.503906 C 164.554688 18.84375 162.808594 19.226562 161.070312 19.648438 C 159.332031 20.074219 157.601562 20.539062 155.886719 21.042969 C 154.171875 21.550781 152.464844 22.09375 150.777344 22.683594 C 149.085938 23.269531 147.410156 23.898438 145.75 24.5625 C 144.089844 25.230469 142.445312 25.9375 140.820312 26.683594 C 139.191406 27.429688 137.585938 28.214844 135.996094 29.035156 C 134.40625 29.859375 132.835938 30.71875 131.289062 31.617188 C 129.742188 32.511719 128.214844 33.449219 126.710938 34.417969 C 125.207031 35.386719 123.726562 36.394531 122.273438 37.433594 C 120.816406 38.476562 119.386719 39.550781 117.980469 40.660156 C 116.578125 41.769531 115.199219 42.910156 113.851562 44.085938 C 112.5 45.261719 111.179688 46.46875 109.886719 47.707031 C 108.59375 48.945312 107.332031 50.210938 106.101562 51.511719 C 104.871094 52.808594 103.671875 54.136719 102.5 55.492188 C 101.332031 56.847656 100.199219 58.230469 99.09375 59.640625 C 97.992188 61.050781 96.925781 62.484375 95.890625 63.945312 C 94.855469 65.40625 93.859375 66.890625 92.894531 68.398438 C 91.933594 69.910156 91.007812 71.4375 90.117188 72.992188 C 89.226562 74.546875 88.375 76.117188 87.558594 77.710938 C 86.746094 79.304688 85.96875 80.917969 85.230469 82.546875 C 84.492188 84.179688 83.792969 85.824219 83.132812 87.488281 C 82.476562 89.152344 81.855469 90.832031 81.277344 92.527344 C 80.699219 94.21875 80.160156 95.925781 79.660156 97.644531 C 79.164062 99.363281 78.707031 101.09375 78.292969 102.835938 C 77.878906 104.578125 77.503906 106.328125 77.171875 108.085938 C 76.839844 109.84375 76.550781 111.609375 76.304688 113.382812 C 76.058594 115.15625 75.851562 116.933594 75.691406 118.714844 C 75.527344 120.496094 75.40625 122.28125 75.332031 124.070312 C 70.078125 126.648438 65.101562 129.671875 60.390625 133.140625 C 60.070312 133.382812 59.808594 133.671875 59.605469 134.015625 C 59.402344 134.359375 59.273438 134.730469 59.214844 135.125 C 59.160156 135.519531 59.179688 135.914062 59.28125 136.300781 C 59.378906 136.6875 59.546875 137.039062 59.789062 137.359375 C 60.074219 137.738281 60.429688 138.03125 60.851562 138.242188 C 61.277344 138.453125 61.722656 138.5625 62.199219 138.566406 C 62.828125 138.566406 71.054688 133.140625 75.238281 130.882812 C 75.722656 144.710938 81.414062 162.761719 92.199219 184.636719 C 90.441406 184.953125 88.78125 185.550781 87.222656 186.421875 C 85.664062 187.292969 84.289062 188.398438 83.101562 189.730469 L 82.832031 190 C 82.441406 190.4375 82.078125 190.898438 81.738281 191.375 C 81.398438 191.851562 81.082031 192.34375 80.792969 192.855469 C 80.507812 193.367188 80.246094 193.890625 80.011719 194.425781 C 79.78125 194.964844 79.578125 195.515625 79.402344 196.074219 C 79.226562 196.632812 79.082031 197.199219 78.96875 197.773438 C 78.851562 198.347656 78.769531 198.929688 78.714844 199.511719 C 78.660156 200.09375 78.636719 200.679688 78.644531 201.265625 C 78.652344 201.851562 78.691406 202.4375 78.761719 203.019531 C 78.832031 203.597656 78.929688 204.175781 79.0625 204.746094 C 79.191406 205.320312 79.351562 205.882812 79.542969 206.4375 C 79.730469 206.992188 79.949219 207.535156 80.195312 208.066406 C 80.445312 208.597656 80.71875 209.113281 81.019531 209.617188 C 81.320312 210.117188 81.648438 210.601562 82 211.070312 C 82.355469 211.539062 82.730469 211.988281 83.132812 212.414062 C 83.53125 212.84375 83.953125 213.25 84.394531 213.632812 C 84.839844 214.015625 85.300781 214.375 85.78125 214.707031 C 91.527344 218.6875 97.507812 222.261719 103.734375 225.4375 L 117.949219 256.683594 C 118.332031 257.507812 118.789062 258.292969 119.324219 259.03125 C 119.855469 259.769531 120.453125 260.449219 121.121094 261.070312 C 121.785156 261.695312 122.503906 262.246094 123.273438 262.730469 C 124.046875 263.210938 124.855469 263.617188 125.707031 263.941406 C 126.554688 264.269531 127.429688 264.511719 128.324219 264.667969 C 129.222656 264.824219 130.125 264.894531 131.035156 264.875 C 131.945312 264.859375 132.847656 264.753906 133.734375 264.5625 C 134.625 264.367188 135.488281 264.09375 136.324219 263.734375 C 137.566406 263.203125 138.699219 262.5 139.726562 261.625 C 141.113281 263.582031 142.53125 265.542969 143.945312 267.5 C 90.238281 272.410156 37.738281 287.808594 37.738281 311.945312 C 37.738281 340.992188 113.976562 358.347656 187.652344 358.347656 C 261.324219 358.347656 337.5625 340.992188 337.5625 311.945312 C 337.5625 287.808594 285.0625 272.410156 231.355469 267.5 Z M 138.34375 248.488281 C 138.480469 248.953125 138.570312 249.429688 138.625 249.910156 C 138.675781 250.394531 138.683594 250.878906 138.648438 251.363281 C 138.613281 251.84375 138.535156 252.324219 138.414062 252.792969 C 138.292969 253.265625 138.132812 253.71875 137.933594 254.160156 C 137.730469 254.601562 137.492188 255.023438 137.214844 255.421875 C 136.9375 255.820312 136.628906 256.191406 136.285156 256.539062 C 135.941406 256.882812 135.574219 257.191406 135.175781 257.46875 C 134.777344 257.746094 134.355469 257.988281 133.914062 258.191406 C 133.441406 258.398438 132.949219 258.558594 132.441406 258.671875 C 131.933594 258.785156 131.421875 258.847656 130.902344 258.863281 C 130.382812 258.875 129.867188 258.839844 129.355469 258.75 C 128.84375 258.664062 128.347656 258.527344 127.859375 258.34375 C 127.375 258.160156 126.914062 257.929688 126.472656 257.65625 C 126.03125 257.382812 125.621094 257.066406 125.242188 256.714844 C 124.863281 256.359375 124.519531 255.972656 124.214844 255.550781 C 123.910156 255.128906 123.648438 254.683594 123.433594 254.210938 L 108.3125 220.976562 L 107.347656 220.496094 C 101.050781 217.351562 95.003906 213.773438 89.214844 209.765625 C 87.96875 208.90625 86.953125 207.828125 86.167969 206.53125 C 85.386719 205.230469 84.90625 203.828125 84.726562 202.324219 C 84.550781 200.839844 84.679688 199.378906 85.113281 197.949219 C 85.550781 196.515625 86.253906 195.234375 87.226562 194.097656 L 87.5 193.828125 C 88.492188 192.707031 89.671875 191.835938 91.035156 191.222656 C 92.402344 190.609375 93.832031 190.300781 95.332031 190.300781 C 97.625 190.316406 99.710938 190.980469 101.59375 192.289062 C 106.300781 195.53125 111.171875 198.503906 116.203125 201.210938 L 117.679688 202.023438 L 146.6875 184.816406 C 147.945312 184.058594 149.3125 183.6875 150.78125 183.703125 C 151.617188 183.699219 152.429688 183.824219 153.226562 184.074219 C 154.019531 184.328125 154.757812 184.695312 155.441406 185.175781 C 156.121094 185.65625 156.710938 186.230469 157.214844 186.898438 C 157.714844 187.5625 158.101562 188.289062 158.378906 189.078125 C 158.652344 189.863281 158.800781 190.675781 158.824219 191.507812 C 158.847656 192.34375 158.742188 193.160156 158.507812 193.960938 C 158.277344 194.761719 157.925781 195.507812 157.460938 196.203125 C 156.996094 196.894531 156.4375 197.5 155.78125 198.015625 L 139.003906 211.453125 L 144.398438 213.140625 C 159.613281 217.984375 175.207031 220.484375 191.175781 220.644531 C 193.253906 220.675781 195.332031 220.675781 197.410156 220.613281 C 204.519531 220.433594 211.585938 219.800781 218.613281 218.714844 C 218.613281 218.714844 222.351562 218.082031 222.832031 217.964844 C 223.105469 217.917969 223.375 217.917969 223.648438 217.972656 C 223.917969 218.023438 224.171875 218.125 224.40625 218.269531 C 224.640625 218.414062 224.84375 218.597656 225.011719 218.816406 C 225.179688 219.039062 225.304688 219.28125 225.382812 219.546875 C 225.457031 219.820312 225.476562 220.097656 225.441406 220.378906 C 225.40625 220.660156 225.320312 220.925781 225.183594 221.171875 C 225.046875 221.421875 224.871094 221.636719 224.652344 221.816406 C 224.429688 221.996094 224.1875 222.128906 223.917969 222.210938 C 223.917969 222.210938 219.820312 223.476562 218.3125 223.898438 C 211.65625 225.828125 205.480469 227.394531 199.488281 228.691406 C 175.875 233.871094 156.203125 234.535156 137.558594 230.828125 L 132.589844 229.835938 Z M 203.644531 214.285156 L 210.722656 205.066406 C 210.957031 204.746094 211.261719 204.527344 211.640625 204.40625 C 212.015625 204.28125 212.394531 204.28125 212.769531 204.402344 C 213.160156 204.492188 213.484375 204.691406 213.742188 205 C 214 205.304688 214.136719 205.660156 214.15625 206.0625 L 214.851562 213.140625 L 214.851562 213.171875 C 214.640625 213.203125 206.535156 214.285156 203.644531 214.285156 Z M 217.199219 238.394531 L 217.199219 238.421875 C 217.242188 238.816406 217.167969 239.183594 216.980469 239.53125 C 216.789062 239.875 216.519531 240.136719 216.164062 240.3125 C 215.8125 240.484375 215.441406 240.542969 215.050781 240.484375 C 214.660156 240.425781 214.324219 240.261719 214.035156 239.988281 L 206.476562 233.269531 C 209.902344 232.417969 214.007812 231.410156 216.507812 230.679688 Z M 143.523438 256.5625 C 144.328125 254.75 144.730469 252.851562 144.726562 250.867188 C 144.726562 249.453125 144.523438 248.066406 144.125 246.710938 L 141.292969 237.609375 C 150.953125 238.96875 160.65625 239.421875 170.398438 238.964844 C 180.140625 238.507812 189.757812 237.152344 199.246094 234.898438 L 210.03125 244.507812 C 210.761719 245.15625 211.585938 245.65625 212.496094 246.003906 C 213.410156 246.351562 214.355469 246.523438 215.332031 246.527344 C 216.605469 246.519531 217.808594 246.226562 218.945312 245.65625 C 219.65625 245.292969 220.296875 244.835938 220.867188 244.28125 C 221.4375 243.726562 221.914062 243.097656 222.296875 242.398438 C 222.675781 241.699219 222.949219 240.960938 223.105469 240.179688 C 223.261719 239.398438 223.304688 238.613281 223.222656 237.820312 L 222.378906 228.960938 L 225.664062 227.996094 C 226.839844 227.640625 227.878906 227.046875 228.785156 226.214844 C 229.695312 225.386719 230.378906 224.40625 230.84375 223.265625 C 230.976562 222.957031 231.085938 222.636719 231.179688 222.3125 C 231.269531 221.988281 231.34375 221.660156 231.394531 221.324219 C 231.445312 220.992188 231.476562 220.65625 231.484375 220.320312 C 231.496094 219.984375 231.484375 219.644531 231.453125 219.308594 C 231.421875 218.972656 231.367188 218.640625 231.296875 218.3125 C 231.222656 217.980469 231.128906 217.660156 231.015625 217.339844 C 230.902344 217.023438 230.769531 216.714844 230.621094 216.410156 C 230.46875 216.109375 230.300781 215.820312 230.113281 215.539062 C 229.925781 215.257812 229.71875 214.988281 229.5 214.734375 C 229.277344 214.480469 229.042969 214.238281 228.792969 214.011719 C 228.542969 213.785156 228.277344 213.578125 228.003906 213.382812 C 227.726562 213.191406 227.4375 213.015625 227.140625 212.855469 C 226.84375 212.699219 226.535156 212.558594 226.21875 212.441406 C 225.90625 212.320312 225.582031 212.21875 225.257812 212.140625 C 224.929688 212.058594 224.597656 212 224.261719 211.960938 C 223.925781 211.921875 223.589844 211.902344 223.253906 211.90625 C 222.742188 211.90625 221.085938 212.179688 220.785156 212.207031 L 220.179688 205.519531 C 220.105469 204.722656 219.914062 203.957031 219.609375 203.21875 C 219.304688 202.484375 218.898438 201.808594 218.386719 201.191406 C 217.878906 200.578125 217.292969 200.050781 216.625 199.613281 C 215.957031 199.175781 215.242188 198.84375 214.476562 198.621094 C 213.707031 198.398438 212.925781 198.292969 212.128906 198.308594 C 211.332031 198.320312 210.550781 198.449219 209.792969 198.695312 C 209.035156 198.945312 208.328125 199.296875 207.675781 199.753906 C 207.023438 200.214844 206.453125 200.757812 205.964844 201.390625 L 195.8125 214.617188 C 180.835938 214.894531 166.125 213.039062 151.6875 209.042969 L 159.546875 202.714844 C 160.113281 202.265625 160.640625 201.773438 161.132812 201.238281 C 161.621094 200.707031 162.070312 200.140625 162.472656 199.535156 C 162.875 198.933594 163.226562 198.304688 163.535156 197.648438 C 163.839844 196.992188 164.089844 196.3125 164.292969 195.617188 C 164.492188 194.921875 164.636719 194.214844 164.730469 193.496094 C 164.820312 192.777344 164.855469 192.054688 164.835938 191.332031 C 164.816406 190.609375 164.738281 189.890625 164.609375 189.175781 C 164.476562 188.464844 164.292969 187.765625 164.050781 187.082031 C 163.8125 186.398438 163.523438 185.738281 163.179688 185.101562 C 162.839844 184.460938 162.449219 183.851562 162.015625 183.273438 C 161.578125 182.695312 161.101562 182.152344 160.582031 181.648438 C 160.0625 181.144531 159.507812 180.683594 158.917969 180.261719 C 158.324219 179.84375 157.707031 179.472656 157.058594 179.152344 C 156.410156 178.828125 155.742188 178.554688 155.050781 178.335938 C 154.359375 178.117188 153.65625 177.953125 152.941406 177.839844 C 152.226562 177.730469 151.507812 177.675781 150.78125 177.675781 C 148.214844 177.683594 145.828125 178.335938 143.613281 179.636719 L 117.558594 195.09375 C 113.28125 192.742188 109.066406 190.121094 105.027344 187.347656 C 103.1875 186.070312 101.167969 185.199219 98.976562 184.726562 C 87.167969 161.40625 81.234375 142.664062 81.234375 128.984375 C 81.234375 127.242188 81.277344 125.5 81.363281 123.757812 C 81.449219 122.019531 81.574219 120.28125 81.746094 118.546875 C 81.917969 116.816406 82.128906 115.085938 82.386719 113.363281 C 82.640625 111.640625 82.9375 109.921875 83.277344 108.214844 C 83.617188 106.503906 84 104.804688 84.421875 103.117188 C 84.847656 101.425781 85.308594 99.746094 85.816406 98.082031 C 86.320312 96.414062 86.867188 94.757812 87.453125 93.117188 C 88.042969 91.476562 88.667969 89.851562 89.335938 88.242188 C 90 86.632812 90.707031 85.042969 91.449219 83.464844 C 92.195312 81.890625 92.976562 80.335938 93.800781 78.800781 C 94.621094 77.261719 95.476562 75.746094 96.375 74.253906 C 97.269531 72.757812 98.199219 71.289062 99.167969 69.839844 C 100.136719 68.390625 101.136719 66.964844 102.175781 65.566406 C 103.214844 64.167969 104.285156 62.792969 105.390625 61.449219 C 106.496094 60.101562 107.632812 58.78125 108.800781 57.492188 C 109.96875 56.199219 111.171875 54.9375 112.402344 53.707031 C 113.632812 52.472656 114.894531 51.273438 116.183594 50.105469 C 117.476562 48.933594 118.792969 47.796875 120.140625 46.691406 C 121.488281 45.585938 122.859375 44.515625 124.257812 43.476562 C 125.65625 42.4375 127.082031 41.433594 128.527344 40.46875 C 129.976562 39.5 131.449219 38.566406 132.941406 37.671875 C 134.433594 36.777344 135.949219 35.917969 137.484375 35.097656 C 139.023438 34.273438 140.578125 33.492188 142.152344 32.746094 C 143.726562 32.003906 145.316406 31.296875 146.925781 30.628906 C 148.535156 29.960938 150.160156 29.335938 151.800781 28.75 C 153.441406 28.160156 155.09375 27.617188 156.757812 27.109375 C 158.425781 26.605469 160.105469 26.140625 161.792969 25.714844 C 163.484375 25.292969 165.179688 24.910156 166.890625 24.570312 C 168.597656 24.230469 170.3125 23.933594 172.035156 23.679688 C 173.757812 23.421875 175.488281 23.210938 177.21875 23.039062 C 178.953125 22.867188 180.691406 22.738281 182.429688 22.652344 C 184.167969 22.570312 185.910156 22.527344 187.652344 22.527344 C 189.390625 22.527344 191.132812 22.570312 192.871094 22.652344 C 194.613281 22.738281 196.347656 22.867188 198.082031 23.039062 C 199.816406 23.210938 201.542969 23.421875 203.265625 23.679688 C 204.988281 23.933594 206.703125 24.230469 208.410156 24.570312 C 210.121094 24.910156 211.820312 25.292969 213.507812 25.714844 C 215.195312 26.140625 216.875 26.605469 218.542969 27.109375 C 220.207031 27.617188 221.863281 28.160156 223.5 28.75 C 225.140625 29.335938 226.765625 29.960938 228.375 30.628906 C 229.984375 31.296875 231.574219 32.003906 233.148438 32.746094 C 234.722656 33.492188 236.277344 34.273438 237.816406 35.097656 C 239.351562 35.917969 240.867188 36.777344 242.359375 37.671875 C 243.855469 38.566406 245.324219 39.5 246.773438 40.46875 C 248.21875 41.433594 249.644531 42.4375 251.042969 43.476562 C 252.441406 44.515625 253.8125 45.585938 255.160156 46.691406 C 256.507812 47.796875 257.824219 48.933594 259.117188 50.105469 C 260.40625 51.273438 261.667969 52.472656 262.898438 53.707031 C 264.128906 54.9375 265.332031 56.199219 266.5 57.492188 C 267.667969 58.78125 268.808594 60.101562 269.910156 61.449219 C 271.015625 62.792969 272.085938 64.167969 273.125 65.566406 C 274.164062 66.964844 275.164062 68.390625 276.132812 69.839844 C 277.101562 71.289062 278.03125 72.757812 278.925781 74.253906 C 279.824219 75.746094 280.679688 77.261719 281.5 78.800781 C 282.324219 80.335938 283.105469 81.890625 283.851562 83.464844 C 284.59375 85.042969 285.300781 86.632812 285.96875 88.242188 C 286.632812 89.851562 287.261719 91.476562 287.847656 93.117188 C 288.433594 94.757812 288.980469 96.414062 289.484375 98.082031 C 289.992188 99.746094 290.453125 101.425781 290.878906 103.117188 C 291.300781 104.804688 291.683594 106.503906 292.023438 108.214844 C 292.363281 109.921875 292.660156 111.640625 292.914062 113.363281 C 293.171875 115.085938 293.382812 116.816406 293.554688 118.546875 C 293.726562 120.28125 293.855469 122.019531 293.9375 123.757812 C 294.023438 125.5 294.066406 127.242188 294.066406 128.984375 C 294.066406 149.683594 280.542969 179.152344 263.285156 208.351562 C 256.71875 210.039062 249.828125 211.503906 242.621094 212.75 C 242.238281 212.804688 241.878906 212.925781 241.546875 213.117188 C 241.210938 213.308594 240.921875 213.554688 240.679688 213.855469 C 240.441406 214.15625 240.265625 214.492188 240.152344 214.859375 C 240.039062 215.230469 240 215.605469 240.035156 215.992188 C 240.066406 216.375 240.167969 216.742188 240.34375 217.085938 C 240.515625 217.429688 240.746094 217.730469 241.035156 217.988281 C 241.320312 218.242188 241.648438 218.4375 242.011719 218.570312 C 242.375 218.699219 242.746094 218.757812 243.132812 218.746094 C 243.296875 218.742188 243.457031 218.722656 243.613281 218.6875 C 248.855469 217.8125 253.945312 216.789062 258.886719 215.613281 C 247.003906 235.597656 224.898438 266.453125 218.496094 274.824219 C 217.355469 276.3125 206.265625 290.972656 203.375 294.648438 C 202.910156 295.246094 202.414062 295.8125 201.882812 296.351562 C 201.355469 296.894531 200.796875 297.402344 200.210938 297.878906 C 199.621094 298.355469 199.011719 298.796875 198.375 299.203125 C 197.738281 299.609375 197.078125 299.976562 196.398438 300.308594 C 195.722656 300.640625 195.027344 300.933594 194.3125 301.1875 C 193.601562 301.4375 192.875 301.648438 192.140625 301.820312 C 191.40625 301.992188 190.660156 302.117188 189.910156 302.203125 C 189.160156 302.289062 188.40625 302.332031 187.652344 302.332031 C 186.894531 302.332031 186.140625 302.289062 185.390625 302.203125 C 184.640625 302.117188 183.898438 301.992188 183.160156 301.820312 C 182.425781 301.648438 181.699219 301.4375 180.988281 301.1875 C 180.277344 300.933594 179.582031 300.640625 178.902344 300.308594 C 178.222656 299.976562 177.5625 299.609375 176.925781 299.203125 C 176.289062 298.796875 175.679688 298.355469 175.089844 297.878906 C 174.503906 297.402344 173.945312 296.894531 173.417969 296.351562 C 172.890625 295.8125 172.390625 295.246094 171.925781 294.648438 C 165.148438 285.972656 145.933594 259.96875 143.523438 256.5625 Z M 187.652344 352.324219 C 101.59375 352.324219 43.761719 331.441406 43.761719 311.945312 C 43.761719 294.4375 87.527344 278.199219 148.070312 273.164062 L 148.101562 273.164062 C 149.636719 275.273438 164.667969 295.160156 167.167969 298.355469 C 167.773438 299.132812 168.421875 299.871094 169.109375 300.574219 C 169.800781 301.277344 170.527344 301.9375 171.292969 302.558594 C 172.054688 303.179688 172.851562 303.753906 173.683594 304.28125 C 174.511719 304.8125 175.371094 305.292969 176.253906 305.726562 C 177.136719 306.15625 178.042969 306.539062 178.972656 306.867188 C 179.898438 307.195312 180.84375 307.46875 181.800781 307.691406 C 182.761719 307.914062 183.730469 308.082031 184.707031 308.191406 C 185.683594 308.304688 186.667969 308.359375 187.652344 308.359375 C 188.636719 308.359375 189.617188 308.304688 190.59375 308.191406 C 191.570312 308.082031 192.539062 307.914062 193.5 307.691406 C 194.457031 307.46875 195.402344 307.195312 196.328125 306.867188 C 197.257812 306.539062 198.164062 306.15625 199.046875 305.726562 C 199.929688 305.292969 200.789062 304.8125 201.617188 304.28125 C 202.449219 303.753906 203.246094 303.179688 204.011719 302.558594 C 204.773438 301.9375 205.5 301.277344 206.191406 300.574219 C 206.878906 299.871094 207.527344 299.132812 208.132812 298.355469 C 214.667969 289.980469 221.085938 281.542969 227.199219 273.164062 L 227.230469 273.164062 C 287.773438 278.199219 331.539062 294.4375 331.539062 311.945312 C 331.539062 331.441406 273.707031 352.324219 187.652344 352.324219 Z M 187.652344 352.324219 " fill-opacity="1" fill-rule="nonzero"/></g><path fill="#ffffff" d="M 68.671875 190.738281 C 56.605469 182.964844 49.640625 174.167969 48.53125 165.308594 C 48.480469 164.914062 48.359375 164.542969 48.160156 164.195312 C 47.960938 163.847656 47.707031 163.550781 47.390625 163.308594 C 47.074219 163.0625 46.722656 162.886719 46.339844 162.78125 C 45.953125 162.675781 45.5625 162.648438 45.167969 162.699219 C 44.769531 162.746094 44.398438 162.871094 44.050781 163.066406 C 43.707031 163.265625 43.410156 163.523438 43.164062 163.835938 C 42.917969 164.152344 42.742188 164.503906 42.636719 164.886719 C 42.53125 165.273438 42.503906 165.664062 42.550781 166.058594 C 43.890625 176.75 51.796875 187.03125 65.410156 195.808594 C 65.746094 196.03125 66.109375 196.183594 66.503906 196.257812 C 66.898438 196.335938 67.292969 196.328125 67.6875 196.246094 C 68.082031 196.160156 68.441406 196 68.769531 195.765625 C 69.097656 195.535156 69.367188 195.246094 69.578125 194.902344 C 69.785156 194.566406 69.921875 194.199219 69.992188 193.808594 C 70.058594 193.417969 70.050781 193.027344 69.964844 192.636719 C 69.878906 192.25 69.726562 191.890625 69.503906 191.5625 C 69.28125 191.234375 69.003906 190.960938 68.671875 190.738281 Z M 68.671875 190.738281 " fill-opacity="1" fill-rule="nonzero"/><path fill="#ffffff" d="M 332.152344 156.183594 C 332.054688 155.796875 331.886719 155.441406 331.648438 155.121094 C 331.410156 154.800781 331.121094 154.539062 330.78125 154.332031 C 330.4375 154.128906 330.070312 153.996094 329.675781 153.9375 C 329.28125 153.878906 328.890625 153.894531 328.5 153.992188 C 328.113281 154.089844 327.761719 154.253906 327.441406 154.492188 C 327.117188 154.730469 326.855469 155.019531 326.648438 155.359375 C 326.441406 155.703125 326.308594 156.070312 326.25 156.464844 C 326.191406 156.859375 326.207031 157.25 326.300781 157.636719 C 326.71875 159.308594 326.929688 161.003906 326.933594 162.726562 C 326.933594 171.859375 320.734375 180.996094 309.011719 189.144531 C 308.699219 189.382812 308.4375 189.667969 308.230469 190.007812 C 308.023438 190.34375 307.886719 190.707031 307.816406 191.09375 C 307.746094 191.484375 307.75 191.871094 307.824219 192.257812 C 307.902344 192.644531 308.046875 193.007812 308.261719 193.339844 C 309.371094 195.347656 311.929688 194.457031 312.453125 194.09375 C 325.867188 184.769531 332.957031 173.921875 332.957031 162.726562 C 332.953125 160.515625 332.6875 158.332031 332.152344 156.183594 Z M 332.152344 156.183594 " fill-opacity="1" fill-rule="nonzero"/></svg>