<svg xmlns="http://www.w3.org/2000/svg" xmlns:xlink="http://www.w3.org/1999/xlink" width="500" zoomAndPan="magnify" viewBox="0 0 375 374.999991" height="500" preserveAspectRatio="xMidYMid meet" version="1.0"><defs><g/><clipPath id="4aa33ce1e6"><path d="M 12.820312 73.449219 L 217.570312 73.449219 L 217.570312 306.699219 L 12.820312 306.699219 Z M 12.820312 73.449219 " clip-rule="nonzero"/></clipPath></defs><path fill="#5e17eb" d="M 115.296875 163.9375 C 114.554688 163.9375 113.8125 163.902344 113.070312 163.828125 C 112.328125 163.757812 111.59375 163.648438 110.863281 163.503906 C 110.136719 163.355469 109.414062 163.175781 108.703125 162.960938 C 107.992188 162.746094 107.289062 162.496094 106.601562 162.210938 C 105.914062 161.925781 105.242188 161.609375 104.585938 161.257812 C 103.929688 160.90625 103.292969 160.523438 102.675781 160.113281 C 102.058594 159.699219 101.460938 159.257812 100.882812 158.785156 C 100.308594 158.3125 99.757812 157.8125 99.234375 157.289062 C 98.707031 156.761719 98.207031 156.210938 97.734375 155.636719 C 97.261719 155.0625 96.820312 154.464844 96.40625 153.847656 C 95.992188 153.226562 95.613281 152.589844 95.261719 151.933594 C 94.910156 151.277344 94.59375 150.605469 94.308594 149.921875 C 94.023438 149.234375 93.773438 148.535156 93.558594 147.820312 C 93.339844 147.109375 93.160156 146.390625 93.015625 145.660156 C 92.871094 144.929688 92.761719 144.195312 92.6875 143.457031 C 92.613281 142.714844 92.578125 141.972656 92.578125 141.230469 C 92.578125 140.484375 92.613281 139.746094 92.6875 139.003906 C 92.761719 138.265625 92.871094 137.527344 93.015625 136.800781 C 93.160156 136.070312 93.339844 135.351562 93.554688 134.636719 C 93.773438 133.925781 94.023438 133.226562 94.308594 132.539062 C 94.59375 131.851562 94.910156 131.179688 95.261719 130.523438 C 95.609375 129.871094 95.992188 129.230469 96.40625 128.613281 C 96.820312 127.996094 97.261719 127.398438 97.734375 126.824219 C 98.207031 126.25 98.707031 125.699219 99.230469 125.171875 C 99.757812 124.648438 100.308594 124.148438 100.882812 123.675781 C 101.457031 123.203125 102.054688 122.761719 102.675781 122.347656 C 103.292969 121.933594 103.929688 121.554688 104.585938 121.203125 C 105.242188 120.851562 105.914062 120.535156 106.601562 120.25 C 107.289062 119.964844 107.988281 119.714844 108.699219 119.5 C 109.414062 119.285156 110.132812 119.101562 110.863281 118.957031 C 111.59375 118.8125 112.328125 118.703125 113.070312 118.628906 C 113.808594 118.558594 114.550781 118.519531 115.296875 118.519531 C 116.039062 118.519531 116.78125 118.558594 117.523438 118.628906 C 118.261719 118.703125 118.996094 118.8125 119.726562 118.957031 C 120.457031 119.101562 121.175781 119.28125 121.890625 119.5 C 122.601562 119.714844 123.300781 119.964844 123.988281 120.25 C 124.675781 120.535156 125.347656 120.851562 126.003906 121.203125 C 126.660156 121.554688 127.296875 121.933594 127.914062 122.347656 C 128.535156 122.761719 129.132812 123.203125 129.707031 123.675781 C 130.28125 124.148438 130.832031 124.648438 131.359375 125.171875 C 131.882812 125.699219 132.382812 126.25 132.855469 126.824219 C 133.328125 127.398438 133.769531 127.996094 134.183594 128.613281 C 134.597656 129.234375 134.980469 129.871094 135.328125 130.527344 C 135.679688 131.183594 135.996094 131.851562 136.28125 132.539062 C 136.566406 133.226562 136.816406 133.925781 137.035156 134.640625 C 137.25 135.351562 137.429688 136.070312 137.574219 136.800781 C 137.71875 137.53125 137.828125 138.265625 137.902344 139.003906 C 137.976562 139.746094 138.011719 140.488281 138.011719 141.230469 C 138.011719 141.976562 137.972656 142.71875 137.898438 143.457031 C 137.828125 144.195312 137.71875 144.929688 137.570312 145.660156 C 137.425781 146.390625 137.246094 147.109375 137.027344 147.820312 C 136.8125 148.53125 136.5625 149.230469 136.277344 149.917969 C 135.992188 150.605469 135.671875 151.273438 135.324219 151.929688 C 134.972656 152.585938 134.589844 153.222656 134.175781 153.839844 C 133.761719 154.460938 133.320312 155.054688 132.847656 155.628906 C 132.375 156.203125 131.878906 156.753906 131.351562 157.28125 C 130.824219 157.804688 130.273438 158.304688 129.699219 158.777344 C 129.125 159.25 128.527344 159.691406 127.910156 160.105469 C 127.292969 160.515625 126.65625 160.898438 126 161.25 C 125.34375 161.601562 124.671875 161.917969 123.984375 162.203125 C 123.300781 162.488281 122.601562 162.738281 121.886719 162.953125 C 121.175781 163.171875 120.457031 163.351562 119.726562 163.496094 C 118.996094 163.644531 118.261719 163.753906 117.523438 163.828125 C 116.78125 163.898438 116.039062 163.9375 115.296875 163.9375 Z M 115.296875 122.632812 C 114.6875 122.632812 114.078125 122.660156 113.472656 122.722656 C 112.867188 122.78125 112.265625 122.871094 111.667969 122.988281 C 111.070312 123.109375 110.480469 123.253906 109.894531 123.433594 C 109.3125 123.609375 108.738281 123.8125 108.175781 124.046875 C 107.613281 124.28125 107.0625 124.539062 106.527344 124.828125 C 105.988281 125.113281 105.464844 125.425781 104.960938 125.765625 C 104.453125 126.105469 103.964844 126.464844 103.492188 126.851562 C 103.023438 127.238281 102.570312 127.648438 102.140625 128.078125 C 101.710938 128.507812 101.300781 128.960938 100.914062 129.429688 C 100.527344 129.902344 100.164062 130.390625 99.824219 130.898438 C 99.488281 131.402344 99.175781 131.925781 98.886719 132.460938 C 98.601562 133 98.339844 133.550781 98.105469 134.113281 C 97.875 134.675781 97.667969 135.246094 97.492188 135.832031 C 97.316406 136.414062 97.167969 137.003906 97.046875 137.601562 C 96.929688 138.199219 96.839844 138.800781 96.78125 139.40625 C 96.71875 140.011719 96.691406 140.621094 96.691406 141.230469 C 96.691406 141.839844 96.71875 142.445312 96.78125 143.050781 C 96.839844 143.660156 96.929688 144.261719 97.046875 144.859375 C 97.167969 145.457031 97.3125 146.046875 97.492188 146.628906 C 97.667969 147.210938 97.871094 147.785156 98.105469 148.347656 C 98.339844 148.910156 98.597656 149.460938 98.886719 149.996094 C 99.175781 150.535156 99.488281 151.054688 99.824219 151.5625 C 100.164062 152.070312 100.527344 152.558594 100.914062 153.027344 C 101.300781 153.5 101.707031 153.949219 102.140625 154.378906 C 102.570312 154.8125 103.019531 155.21875 103.492188 155.605469 C 103.964844 155.992188 104.453125 156.355469 104.957031 156.695312 C 105.464844 157.03125 105.988281 157.34375 106.523438 157.632812 C 107.0625 157.917969 107.613281 158.179688 108.175781 158.414062 C 108.738281 158.644531 109.3125 158.851562 109.894531 159.027344 C 110.476562 159.203125 111.066406 159.351562 111.664062 159.472656 C 112.261719 159.589844 112.863281 159.679688 113.472656 159.738281 C 114.078125 159.796875 114.6875 159.828125 115.296875 159.828125 C 115.90625 159.828125 116.511719 159.796875 117.117188 159.738281 C 117.726562 159.679688 118.328125 159.589844 118.925781 159.472656 C 119.523438 159.351562 120.113281 159.203125 120.695312 159.027344 C 121.277344 158.851562 121.851562 158.644531 122.414062 158.414062 C 122.976562 158.179688 123.527344 157.917969 124.066406 157.632812 C 124.601562 157.34375 125.125 157.03125 125.632812 156.695312 C 126.136719 156.355469 126.628906 155.992188 127.097656 155.605469 C 127.570312 155.21875 128.019531 154.8125 128.449219 154.382812 C 128.882812 153.949219 129.289062 153.5 129.675781 153.027344 C 130.0625 152.558594 130.425781 152.070312 130.765625 151.5625 C 131.101562 151.054688 131.417969 150.535156 131.703125 149.996094 C 131.992188 149.460938 132.25 148.910156 132.484375 148.347656 C 132.71875 147.785156 132.921875 147.210938 133.097656 146.628906 C 133.277344 146.046875 133.421875 145.457031 133.542969 144.859375 C 133.660156 144.261719 133.75 143.660156 133.808594 143.054688 C 133.871094 142.445312 133.898438 141.839844 133.898438 141.230469 C 133.898438 140.621094 133.867188 140.011719 133.808594 139.40625 C 133.75 138.800781 133.660156 138.199219 133.539062 137.601562 C 133.417969 137.007812 133.269531 136.417969 133.09375 135.835938 C 132.917969 135.25 132.710938 134.679688 132.476562 134.117188 C 132.246094 133.554688 131.984375 133.003906 131.695312 132.46875 C 131.410156 131.929688 131.097656 131.410156 130.757812 130.902344 C 130.417969 130.398438 130.058594 129.910156 129.671875 129.4375 C 129.285156 128.96875 128.875 128.515625 128.445312 128.085938 C 128.015625 127.65625 127.5625 127.246094 127.09375 126.863281 C 126.621094 126.476562 126.132812 126.113281 125.628906 125.773438 C 125.121094 125.4375 124.597656 125.125 124.0625 124.835938 C 123.523438 124.546875 122.976562 124.289062 122.414062 124.054688 C 121.851562 123.820312 121.277344 123.617188 120.695312 123.4375 C 120.113281 123.261719 119.523438 123.113281 118.925781 122.996094 C 118.328125 122.875 117.726562 122.785156 117.121094 122.726562 C 116.515625 122.664062 115.90625 122.632812 115.296875 122.632812 Z M 115.296875 122.632812 " fill-opacity="1" fill-rule="nonzero"/><g clip-path="url(#4aa33ce1e6)"><path fill="#5e17eb" d="M 145.125 244.59375 C 153.390625 233.207031 162.046875 220.507812 169.652344 207.789062 C 172.449219 207.046875 175.140625 206.226562 177.753906 205.363281 C 178.011719 205.277344 178.242188 205.144531 178.449219 204.964844 C 178.65625 204.785156 178.820312 204.574219 178.941406 204.332031 C 179.0625 204.089844 179.132812 203.832031 179.152344 203.558594 C 179.171875 203.289062 179.140625 203.023438 179.054688 202.761719 C 178.96875 202.503906 178.835938 202.273438 178.660156 202.066406 C 178.480469 201.859375 178.269531 201.695312 178.027344 201.574219 C 177.78125 201.449219 177.523438 201.378906 177.253906 201.359375 C 176.980469 201.339844 176.714844 201.371094 176.457031 201.457031 C 175.222656 201.867188 173.949219 202.257812 172.675781 202.648438 C 183.488281 183.804688 191.546875 165.289062 192.019531 151.417969 C 193.273438 152.128906 194.566406 152.753906 195.90625 153.285156 C 196.359375 153.277344 196.769531 153.136719 197.128906 152.855469 C 197.492188 152.578125 197.730469 152.21875 197.851562 151.777344 C 197.972656 151.339844 197.953125 150.90625 197.785156 150.480469 C 197.617188 150.058594 197.339844 149.726562 196.953125 149.484375 C 195.390625 148.539062 193.707031 147.636719 191.957031 146.75 C 191.90625 145.53125 191.824219 144.316406 191.710938 143.097656 C 191.601562 141.882812 191.460938 140.671875 191.292969 139.464844 C 191.125 138.253906 190.925781 137.050781 190.699219 135.851562 C 190.472656 134.652344 190.21875 133.457031 189.933594 132.269531 C 189.652344 131.082031 189.339844 129.902344 189 128.730469 C 188.660156 127.558594 188.292969 126.394531 187.898438 125.242188 C 187.5 124.085938 187.078125 122.941406 186.628906 121.804688 C 186.179688 120.671875 185.703125 119.546875 185.199219 118.4375 C 184.695312 117.324219 184.164062 116.226562 183.609375 115.140625 C 183.050781 114.050781 182.46875 112.980469 181.863281 111.921875 C 181.253906 110.863281 180.621094 109.820312 179.964844 108.789062 C 179.308594 107.761719 178.625 106.75 177.921875 105.753906 C 177.214844 104.757812 176.488281 103.777344 175.734375 102.816406 C 174.980469 101.855469 174.207031 100.914062 173.410156 99.988281 C 172.613281 99.0625 171.792969 98.160156 170.953125 97.273438 C 170.113281 96.386719 169.25 95.523438 168.367188 94.679688 C 167.484375 93.835938 166.585938 93.011719 165.664062 92.210938 C 164.742188 91.410156 163.800781 90.632812 162.84375 89.875 C 161.886719 89.117188 160.910156 88.386719 159.914062 87.675781 C 158.921875 86.964844 157.914062 86.28125 156.886719 85.621094 C 155.859375 84.957031 154.820312 84.320312 153.761719 83.710938 C 152.707031 83.097656 151.632812 82.511719 150.550781 81.949219 C 149.464844 81.390625 148.367188 80.855469 147.257812 80.347656 C 146.148438 79.839844 145.027344 79.355469 143.894531 78.902344 C 142.757812 78.449219 141.617188 78.019531 140.460938 77.621094 C 139.308594 77.21875 138.144531 76.847656 136.976562 76.5 C 135.804688 76.15625 134.625 75.839844 133.4375 75.550781 C 132.25 75.261719 131.058594 75.003906 129.859375 74.773438 C 128.660156 74.539062 127.457031 74.335938 126.25 74.164062 C 125.039062 73.988281 123.828125 73.84375 122.613281 73.726562 C 121.394531 73.609375 120.179688 73.523438 118.960938 73.464844 C 117.738281 73.40625 116.519531 73.378906 115.296875 73.378906 C 114.078125 73.378906 112.855469 73.40625 111.636719 73.464844 C 110.414062 73.523438 109.199219 73.613281 107.980469 73.726562 C 106.765625 73.84375 105.554688 73.988281 104.34375 74.164062 C 103.136719 74.339844 101.933594 74.542969 100.734375 74.773438 C 99.535156 75.003906 98.339844 75.265625 97.15625 75.554688 C 95.96875 75.84375 94.789062 76.160156 93.617188 76.503906 C 92.445312 76.851562 91.285156 77.222656 90.128906 77.625 C 88.976562 78.023438 87.832031 78.453125 86.699219 78.90625 C 85.566406 79.363281 84.445312 79.84375 83.335938 80.351562 C 82.222656 80.859375 81.125 81.394531 80.042969 81.957031 C 78.957031 82.515625 77.886719 83.105469 76.828125 83.714844 C 75.773438 84.328125 74.730469 84.964844 73.703125 85.625 C 72.679688 86.289062 71.667969 86.972656 70.675781 87.683594 C 69.683594 88.394531 68.707031 89.128906 67.746094 89.882812 C 66.789062 90.640625 65.847656 91.417969 64.925781 92.222656 C 64.007812 93.023438 63.105469 93.84375 62.222656 94.691406 C 61.339844 95.535156 60.480469 96.398438 59.636719 97.285156 C 58.796875 98.171875 57.980469 99.074219 57.179688 100 C 56.382812 100.925781 55.609375 101.867188 54.855469 102.828125 C 54.105469 103.789062 53.375 104.769531 52.667969 105.765625 C 51.964844 106.761719 51.28125 107.773438 50.625 108.804688 C 49.96875 109.832031 49.335938 110.875 48.726562 111.933594 C 48.121094 112.996094 47.539062 114.066406 46.984375 115.152344 C 46.425781 116.242188 45.898438 117.339844 45.394531 118.453125 C 44.890625 119.566406 44.414062 120.6875 43.964844 121.824219 C 43.511719 122.957031 43.089844 124.101562 42.695312 125.257812 C 42.300781 126.414062 41.933594 127.578125 41.59375 128.75 C 41.253906 129.921875 40.941406 131.101562 40.660156 132.289062 C 40.375 133.476562 40.121094 134.671875 39.894531 135.871094 C 39.667969 137.070312 39.46875 138.273438 39.300781 139.480469 C 39.132812 140.691406 38.992188 141.902344 38.882812 143.121094 C 38.769531 144.335938 38.6875 145.550781 38.636719 146.773438 C 35.054688 148.53125 31.652344 150.59375 28.441406 152.957031 C 28.222656 153.121094 28.042969 153.320312 27.902344 153.554688 C 27.765625 153.789062 27.675781 154.042969 27.636719 154.3125 C 27.597656 154.582031 27.613281 154.847656 27.683594 155.113281 C 27.75 155.375 27.863281 155.617188 28.027344 155.835938 C 28.441406 156.378906 28.988281 156.652344 29.671875 156.65625 C 30.105469 156.65625 35.71875 152.957031 38.574219 151.417969 C 38.902344 160.847656 42.789062 173.160156 50.148438 188.078125 C 48.949219 188.296875 47.816406 188.703125 46.753906 189.296875 C 45.691406 189.890625 44.753906 190.644531 43.941406 191.550781 L 43.753906 191.738281 C 43.488281 192.035156 43.242188 192.347656 43.007812 192.675781 C 42.777344 193 42.5625 193.335938 42.367188 193.683594 C 42.167969 194.03125 41.992188 194.390625 41.832031 194.757812 C 41.675781 195.125 41.535156 195.496094 41.414062 195.878906 C 41.296875 196.261719 41.199219 196.648438 41.117188 197.039062 C 41.039062 197.429688 40.984375 197.824219 40.945312 198.222656 C 40.910156 198.621094 40.894531 199.019531 40.898438 199.421875 C 40.902344 199.820312 40.929688 200.21875 40.976562 200.613281 C 41.027344 201.011719 41.09375 201.40625 41.183594 201.792969 C 41.273438 202.183594 41.382812 202.570312 41.511719 202.945312 C 41.640625 203.324219 41.789062 203.695312 41.957031 204.058594 C 42.125 204.417969 42.3125 204.773438 42.519531 205.113281 C 42.726562 205.457031 42.949219 205.789062 43.191406 206.109375 C 43.429688 206.425781 43.6875 206.730469 43.960938 207.023438 C 44.234375 207.316406 44.523438 207.59375 44.824219 207.855469 C 45.125 208.117188 45.441406 208.359375 45.769531 208.589844 C 49.691406 211.300781 53.773438 213.742188 58.023438 215.90625 L 67.726562 237.214844 C 67.988281 237.78125 68.296875 238.3125 68.664062 238.816406 C 69.027344 239.320312 69.433594 239.785156 69.886719 240.207031 C 70.34375 240.632812 70.832031 241.011719 71.359375 241.339844 C 71.886719 241.667969 72.4375 241.945312 73.019531 242.167969 C 73.597656 242.390625 74.195312 242.554688 74.808594 242.660156 C 75.417969 242.769531 76.035156 242.816406 76.65625 242.804688 C 77.277344 242.792969 77.890625 242.71875 78.5 242.589844 C 79.105469 242.457031 79.695312 242.269531 80.265625 242.023438 C 81.113281 241.660156 81.886719 241.183594 82.589844 240.585938 C 83.535156 241.921875 84.5 243.257812 85.46875 244.59375 C 48.8125 247.941406 12.980469 258.445312 12.980469 274.90625 C 12.980469 294.714844 65.011719 306.554688 115.296875 306.554688 C 165.582031 306.554688 217.613281 294.714844 217.613281 274.90625 C 217.613281 258.445312 181.78125 247.941406 145.125 244.59375 Z M 81.644531 231.625 C 81.832031 232.265625 81.898438 232.921875 81.851562 233.585938 C 81.804688 234.253906 81.640625 234.890625 81.363281 235.496094 C 81.085938 236.105469 80.710938 236.644531 80.238281 237.117188 C 79.769531 237.589844 79.230469 237.964844 78.621094 238.242188 C 78.296875 238.386719 77.960938 238.496094 77.617188 238.574219 C 77.269531 238.648438 76.921875 238.691406 76.566406 238.703125 C 76.210938 238.710938 75.859375 238.6875 75.511719 238.625 C 75.160156 238.566406 74.820312 238.476562 74.488281 238.347656 C 74.160156 238.222656 73.84375 238.066406 73.542969 237.878906 C 73.242188 237.691406 72.960938 237.476562 72.703125 237.238281 C 72.441406 236.996094 72.210938 236.730469 72 236.445312 C 71.792969 236.15625 71.617188 235.851562 71.46875 235.53125 L 61.148438 212.863281 L 60.488281 212.535156 C 56.191406 210.390625 52.066406 207.953125 48.113281 205.21875 C 47.261719 204.632812 46.570312 203.894531 46.035156 203.011719 C 45.5 202.125 45.171875 201.167969 45.050781 200.140625 C 44.929688 199.128906 45.015625 198.132812 45.3125 197.15625 C 45.609375 196.183594 46.09375 195.304688 46.757812 194.53125 L 46.941406 194.347656 C 47.621094 193.582031 48.425781 192.988281 49.355469 192.570312 C 50.289062 192.152344 51.265625 191.941406 52.285156 191.941406 C 53.851562 191.953125 55.277344 192.40625 56.5625 193.300781 C 59.773438 195.511719 63.097656 197.539062 66.535156 199.382812 L 67.539062 199.9375 L 87.339844 188.203125 C 88.199219 187.683594 89.128906 187.429688 90.132812 187.441406 C 90.703125 187.441406 91.257812 187.523438 91.800781 187.695312 C 92.34375 187.867188 92.847656 188.117188 93.3125 188.445312 C 93.777344 188.773438 94.179688 189.167969 94.523438 189.621094 C 94.867188 190.074219 95.128906 190.570312 95.320312 191.109375 C 95.507812 191.644531 95.609375 192.199219 95.621094 192.765625 C 95.636719 193.335938 95.566406 193.890625 95.40625 194.4375 C 95.25 194.984375 95.011719 195.496094 94.691406 195.964844 C 94.375 196.4375 93.992188 196.851562 93.546875 197.203125 L 82.097656 206.371094 L 85.777344 207.519531 C 96.160156 210.824219 106.804688 212.527344 117.703125 212.636719 C 119.121094 212.65625 120.539062 212.65625 121.957031 212.617188 C 126.808594 212.492188 131.632812 212.058594 136.429688 211.320312 C 136.429688 211.320312 138.980469 210.890625 139.308594 210.808594 C 139.496094 210.777344 139.679688 210.777344 139.867188 210.8125 C 140.050781 210.851562 140.222656 210.917969 140.382812 211.015625 C 140.542969 211.117188 140.683594 211.242188 140.796875 211.390625 C 140.910156 211.539062 140.996094 211.707031 141.050781 211.886719 C 141.101562 212.074219 141.113281 212.261719 141.089844 212.457031 C 141.066406 212.648438 141.007812 212.828125 140.914062 212.996094 C 140.820312 213.167969 140.699219 213.3125 140.550781 213.433594 C 140.402344 213.558594 140.234375 213.648438 140.050781 213.707031 C 140.050781 213.707031 137.253906 214.570312 136.226562 214.855469 C 131.683594 216.171875 127.46875 217.242188 123.375 218.125 C 107.257812 221.660156 93.835938 222.109375 81.109375 219.582031 L 77.71875 218.90625 Z M 126.214844 208.300781 L 131.042969 202.011719 C 131.203125 201.792969 131.414062 201.644531 131.671875 201.5625 C 131.929688 201.476562 132.183594 201.476562 132.441406 201.558594 C 132.710938 201.621094 132.929688 201.757812 133.105469 201.964844 C 133.28125 202.175781 133.375 202.417969 133.386719 202.691406 L 133.859375 207.519531 L 133.859375 207.539062 C 133.71875 207.5625 128.183594 208.300781 126.214844 208.300781 Z M 135.464844 224.742188 L 135.464844 224.761719 C 135.492188 225.03125 135.445312 225.28125 135.3125 225.515625 C 135.183594 225.753906 135 225.929688 134.757812 226.050781 C 134.515625 226.167969 134.265625 226.207031 133.996094 226.167969 C 133.730469 226.128906 133.5 226.015625 133.304688 225.832031 L 128.144531 221.246094 C 130.484375 220.667969 133.285156 219.980469 134.992188 219.480469 Z M 85.179688 237.132812 C 85.730469 235.898438 86.003906 234.601562 86.003906 233.25 C 86 232.285156 85.863281 231.339844 85.589844 230.414062 L 83.660156 224.207031 C 90.25 225.132812 96.871094 225.441406 103.523438 225.132812 C 110.171875 224.820312 116.734375 223.894531 123.210938 222.359375 L 130.570312 228.914062 C 131.605469 229.828125 132.8125 230.285156 134.191406 230.289062 C 135.058594 230.285156 135.882812 230.085938 136.65625 229.695312 C 137.140625 229.449219 137.578125 229.136719 137.96875 228.757812 C 138.359375 228.378906 138.683594 227.949219 138.945312 227.472656 C 139.203125 226.996094 139.386719 226.492188 139.496094 225.960938 C 139.605469 225.429688 139.628906 224.890625 139.578125 224.351562 L 139 218.308594 L 141.242188 217.652344 C 142.042969 217.40625 142.753906 217.003906 143.375 216.4375 C 143.992188 215.871094 144.460938 215.203125 144.777344 214.425781 C 144.867188 214.214844 144.941406 213.996094 145.007812 213.773438 C 145.070312 213.554688 145.117188 213.328125 145.152344 213.101562 C 145.1875 212.875 145.210938 212.644531 145.214844 212.414062 C 145.222656 212.183594 145.214844 211.957031 145.191406 211.726562 C 145.171875 211.496094 145.136719 211.269531 145.085938 211.046875 C 145.035156 210.820312 144.972656 210.601562 144.894531 210.382812 C 144.816406 210.167969 144.726562 209.957031 144.625 209.75 C 144.519531 209.542969 144.40625 209.347656 144.277344 209.15625 C 144.148438 208.964844 144.011719 208.78125 143.859375 208.605469 C 143.710938 208.433594 143.546875 208.269531 143.378906 208.113281 C 143.207031 207.960938 143.027344 207.816406 142.839844 207.683594 C 142.648438 207.550781 142.453125 207.433594 142.25 207.324219 C 142.046875 207.21875 141.835938 207.121094 141.621094 207.039062 C 141.40625 206.960938 141.1875 206.890625 140.964844 206.835938 C 140.738281 206.78125 140.515625 206.742188 140.285156 206.714844 C 140.054688 206.6875 139.828125 206.675781 139.597656 206.675781 C 139.246094 206.675781 138.117188 206.863281 137.910156 206.882812 L 137.5 202.320312 C 137.449219 201.777344 137.320312 201.257812 137.109375 200.753906 C 136.902344 200.25 136.625 199.789062 136.277344 199.371094 C 135.929688 198.949219 135.527344 198.589844 135.074219 198.292969 C 134.617188 197.992188 134.128906 197.769531 133.605469 197.617188 C 133.082031 197.464844 132.546875 197.394531 132.003906 197.402344 C 131.460938 197.410156 130.929688 197.5 130.410156 197.667969 C 129.890625 197.835938 129.410156 198.078125 128.964844 198.390625 C 128.519531 198.703125 128.128906 199.074219 127.796875 199.503906 L 120.867188 208.527344 C 110.644531 208.714844 100.605469 207.449219 90.75 204.726562 L 96.117188 200.410156 C 96.894531 199.789062 97.558594 199.066406 98.113281 198.242188 C 98.664062 197.414062 99.078125 196.523438 99.355469 195.570312 C 99.628906 194.613281 99.753906 193.640625 99.726562 192.644531 C 99.699219 191.652344 99.519531 190.6875 99.191406 189.746094 C 98.863281 188.808594 98.398438 187.941406 97.800781 187.148438 C 97.203125 186.355469 96.496094 185.671875 95.6875 185.097656 C 94.875 184.519531 93.996094 184.082031 93.046875 183.78125 C 92.101562 183.480469 91.128906 183.332031 90.132812 183.332031 C 88.382812 183.335938 86.75 183.78125 85.242188 184.667969 L 67.457031 195.210938 C 64.539062 193.605469 61.660156 191.820312 58.90625 189.929688 C 57.648438 189.058594 56.269531 188.460938 54.773438 188.140625 C 46.714844 172.234375 42.664062 159.453125 42.664062 150.121094 C 42.664062 148.933594 42.695312 147.746094 42.753906 146.558594 C 42.8125 145.371094 42.898438 144.1875 43.015625 143.003906 C 43.132812 141.824219 43.277344 140.644531 43.453125 139.46875 C 43.625 138.292969 43.828125 137.121094 44.0625 135.957031 C 44.292969 134.792969 44.554688 133.632812 44.84375 132.480469 C 45.132812 131.328125 45.449219 130.183594 45.792969 129.046875 C 46.136719 127.910156 46.511719 126.78125 46.910156 125.660156 C 47.3125 124.542969 47.738281 123.433594 48.195312 122.335938 C 48.648438 121.238281 49.132812 120.152344 49.640625 119.078125 C 50.148438 118.003906 50.683594 116.945312 51.242188 115.894531 C 51.800781 114.847656 52.386719 113.816406 53 112.796875 C 53.609375 111.777344 54.246094 110.773438 54.90625 109.785156 C 55.566406 108.796875 56.25 107.824219 56.960938 106.871094 C 57.667969 105.917969 58.398438 104.980469 59.152344 104.0625 C 59.90625 103.144531 60.683594 102.242188 61.480469 101.363281 C 62.277344 100.484375 63.097656 99.621094 63.9375 98.78125 C 64.78125 97.941406 65.640625 97.121094 66.519531 96.324219 C 67.402344 95.527344 68.300781 94.75 69.21875 93.996094 C 70.140625 93.242188 71.074219 92.511719 72.03125 91.804688 C 72.984375 91.097656 73.957031 90.414062 74.945312 89.753906 C 75.933594 89.09375 76.9375 88.457031 77.957031 87.847656 C 78.976562 87.234375 80.011719 86.648438 81.058594 86.089844 C 82.105469 85.53125 83.167969 84.996094 84.242188 84.488281 C 85.316406 83.980469 86.402344 83.5 87.503906 83.042969 C 88.601562 82.589844 89.710938 82.160156 90.828125 81.761719 C 91.949219 81.359375 93.074219 80.988281 94.214844 80.644531 C 95.351562 80.296875 96.496094 79.980469 97.648438 79.691406 C 98.800781 79.402344 99.960938 79.144531 101.128906 78.910156 C 102.292969 78.679688 103.464844 78.476562 104.640625 78.300781 C 105.816406 78.128906 106.996094 77.984375 108.179688 77.867188 C 109.359375 77.75 110.546875 77.664062 111.734375 77.605469 C 112.921875 77.546875 114.109375 77.515625 115.296875 77.515625 C 116.484375 77.515625 117.671875 77.546875 118.859375 77.605469 C 120.046875 77.664062 121.234375 77.75 122.417969 77.867188 C 123.597656 77.984375 124.777344 78.128906 125.953125 78.300781 C 127.128906 78.476562 128.300781 78.679688 129.46875 78.910156 C 130.632812 79.144531 131.792969 79.402344 132.945312 79.691406 C 134.097656 79.980469 135.242188 80.296875 136.382812 80.644531 C 137.519531 80.988281 138.648438 81.359375 139.765625 81.761719 C 140.886719 82.160156 141.992188 82.589844 143.09375 83.042969 C 144.191406 83.496094 145.277344 83.980469 146.351562 84.488281 C 147.425781 84.996094 148.488281 85.53125 149.535156 86.089844 C 150.582031 86.648438 151.617188 87.234375 152.636719 87.847656 C 153.65625 88.457031 154.660156 89.09375 155.648438 89.753906 C 156.636719 90.414062 157.609375 91.097656 158.5625 91.804688 C 159.519531 92.511719 160.457031 93.242188 161.375 93.996094 C 162.292969 94.75 163.191406 95.527344 164.074219 96.324219 C 164.953125 97.121094 165.816406 97.941406 166.65625 98.78125 C 167.496094 99.621094 168.316406 100.484375 169.113281 101.363281 C 169.910156 102.242188 170.6875 103.144531 171.441406 104.0625 C 172.195312 104.980469 172.925781 105.917969 173.636719 106.871094 C 174.34375 107.824219 175.027344 108.796875 175.6875 109.785156 C 176.347656 110.773438 176.984375 111.777344 177.59375 112.796875 C 178.207031 113.816406 178.792969 114.847656 179.351562 115.894531 C 179.914062 116.945312 180.445312 118.003906 180.957031 119.078125 C 181.464844 120.152344 181.945312 121.238281 182.398438 122.335938 C 182.855469 123.433594 183.28125 124.542969 183.683594 125.660156 C 184.082031 126.78125 184.457031 127.910156 184.800781 129.046875 C 185.144531 130.183594 185.464844 131.328125 185.75 132.480469 C 186.039062 133.632812 186.300781 134.792969 186.53125 135.957031 C 186.765625 137.121094 186.96875 138.292969 187.140625 139.46875 C 187.316406 140.644531 187.460938 141.824219 187.578125 143.003906 C 187.695312 144.1875 187.78125 145.371094 187.839844 146.558594 C 187.898438 147.746094 187.929688 148.933594 187.929688 150.121094 C 187.929688 164.242188 178.699219 184.339844 166.917969 204.253906 C 162.4375 205.402344 157.734375 206.402344 152.816406 207.253906 C 152.554688 207.289062 152.308594 207.371094 152.082031 207.503906 C 151.851562 207.632812 151.65625 207.800781 151.492188 208.007812 C 151.328125 208.210938 151.207031 208.441406 151.128906 208.691406 C 151.054688 208.945312 151.027344 209.203125 151.050781 209.464844 C 151.070312 209.726562 151.140625 209.972656 151.261719 210.210938 C 151.378906 210.445312 151.535156 210.648438 151.730469 210.824219 C 151.929688 211 152.152344 211.132812 152.398438 211.222656 C 152.644531 211.3125 152.902344 211.351562 153.164062 211.34375 C 153.277344 211.339844 153.386719 211.324219 153.492188 211.300781 C 157.070312 210.707031 160.546875 210.007812 163.917969 209.207031 C 155.808594 222.835938 140.71875 243.878906 136.347656 249.585938 C 135.570312 250.601562 128.003906 260.601562 126.027344 263.109375 C 125.710938 263.515625 125.371094 263.902344 125.011719 264.273438 C 124.648438 264.640625 124.269531 264.984375 123.867188 265.3125 C 123.46875 265.636719 123.050781 265.9375 122.617188 266.214844 C 122.179688 266.492188 121.730469 266.742188 121.269531 266.96875 C 120.804688 267.195312 120.332031 267.394531 119.84375 267.566406 C 119.359375 267.738281 118.863281 267.882812 118.363281 268 C 117.859375 268.117188 117.351562 268.203125 116.839844 268.261719 C 116.328125 268.320312 115.8125 268.351562 115.296875 268.351562 C 114.78125 268.351562 114.265625 268.320312 113.753906 268.261719 C 113.242188 268.203125 112.734375 268.117188 112.234375 268 C 111.730469 267.882812 111.234375 267.738281 110.75 267.566406 C 110.265625 267.394531 109.789062 267.195312 109.324219 266.96875 C 108.863281 266.742188 108.414062 266.492188 107.976562 266.214844 C 107.542969 265.9375 107.125 265.636719 106.726562 265.3125 C 106.324219 264.984375 105.945312 264.640625 105.582031 264.273438 C 105.222656 263.902344 104.882812 263.515625 104.566406 263.109375 C 99.941406 257.191406 86.824219 239.457031 85.179688 237.132812 Z M 115.296875 302.445312 C 56.5625 302.445312 17.089844 288.203125 17.089844 274.90625 C 17.089844 262.964844 46.960938 251.890625 88.285156 248.457031 L 88.304688 248.457031 C 89.351562 249.894531 99.613281 263.457031 101.316406 265.636719 C 101.730469 266.167969 102.171875 266.671875 102.644531 267.152344 C 103.113281 267.628906 103.609375 268.082031 104.132812 268.503906 C 104.652344 268.925781 105.199219 269.320312 105.765625 269.679688 C 106.332031 270.039062 106.914062 270.367188 107.519531 270.664062 C 108.121094 270.957031 108.742188 271.21875 109.375 271.441406 C 110.007812 271.664062 110.652344 271.855469 111.304688 272.003906 C 111.960938 272.15625 112.621094 272.269531 113.289062 272.347656 C 113.957031 272.421875 114.625 272.460938 115.296875 272.460938 C 115.96875 272.460938 116.636719 272.421875 117.304688 272.347656 C 117.972656 272.269531 118.632812 272.15625 119.289062 272.003906 C 119.941406 271.855469 120.585938 271.664062 121.21875 271.441406 C 121.851562 271.21875 122.472656 270.957031 123.074219 270.664062 C 123.679688 270.367188 124.265625 270.039062 124.832031 269.679688 C 125.398438 269.320312 125.941406 268.925781 126.460938 268.503906 C 126.984375 268.082031 127.480469 267.628906 127.949219 267.152344 C 128.421875 266.671875 128.863281 266.167969 129.277344 265.636719 C 133.738281 259.925781 138.117188 254.171875 142.289062 248.457031 L 142.308594 248.457031 C 183.632812 251.890625 213.503906 262.964844 213.503906 274.90625 C 213.503906 288.203125 174.03125 302.445312 115.296875 302.445312 Z M 115.296875 302.445312 " fill-opacity="1" fill-rule="nonzero"/></g><path fill="#5e17eb" d="M 34.09375 192.242188 C 25.859375 186.9375 21.101562 180.9375 20.347656 174.898438 C 20.3125 174.628906 20.226562 174.375 20.09375 174.136719 C 19.957031 173.902344 19.78125 173.699219 19.566406 173.53125 C 19.351562 173.363281 19.113281 173.246094 18.851562 173.171875 C 18.585938 173.101562 18.320312 173.082031 18.050781 173.117188 C 17.78125 173.148438 17.527344 173.234375 17.289062 173.367188 C 17.050781 173.503906 16.851562 173.679688 16.683594 173.894531 C 16.515625 174.109375 16.394531 174.347656 16.324219 174.609375 C 16.25 174.871094 16.230469 175.140625 16.265625 175.410156 C 17.179688 182.699219 22.574219 189.714844 31.867188 195.695312 C 32.09375 195.851562 32.34375 195.953125 32.613281 196.003906 C 32.882812 196.058594 33.152344 196.054688 33.417969 195.996094 C 33.6875 195.9375 33.933594 195.828125 34.160156 195.667969 C 34.382812 195.511719 34.566406 195.316406 34.710938 195.082031 C 34.851562 194.851562 34.945312 194.601562 34.992188 194.335938 C 35.039062 194.066406 35.03125 193.800781 34.972656 193.535156 C 34.917969 193.269531 34.8125 193.027344 34.660156 192.804688 C 34.507812 192.578125 34.320312 192.390625 34.09375 192.242188 Z M 34.09375 192.242188 " fill-opacity="1" fill-rule="nonzero"/><path fill="#5e17eb" d="M 213.921875 168.671875 C 213.855469 168.410156 213.742188 168.167969 213.578125 167.949219 C 213.417969 167.730469 213.21875 167.550781 212.984375 167.410156 C 212.75 167.269531 212.5 167.179688 212.230469 167.140625 C 211.960938 167.101562 211.695312 167.113281 211.429688 167.179688 C 211.167969 167.246094 210.925781 167.359375 210.707031 167.519531 C 210.488281 167.683594 210.308594 167.878906 210.164062 168.113281 C 210.023438 168.34375 209.933594 168.597656 209.894531 168.867188 C 209.851562 169.132812 209.863281 169.402344 209.929688 169.664062 C 210.214844 170.804688 210.359375 171.960938 210.359375 173.136719 C 210.359375 179.367188 206.128906 185.597656 198.128906 191.152344 C 197.914062 191.316406 197.734375 191.511719 197.59375 191.742188 C 197.453125 191.96875 197.359375 192.21875 197.3125 192.484375 C 197.265625 192.75 197.265625 193.011719 197.320312 193.277344 C 197.371094 193.542969 197.46875 193.789062 197.617188 194.015625 C 198.375 195.382812 200.121094 194.777344 200.476562 194.527344 C 209.632812 188.167969 214.472656 180.769531 214.472656 173.136719 C 214.46875 171.625 214.285156 170.140625 213.921875 168.671875 Z M 213.921875 168.671875 " fill-opacity="1" fill-rule="nonzero"/><g fill="#5e17eb" fill-opacity="1"><g transform="translate(21.960366, 113.150872)"><g><path d="M -6.203125 -10.5625 C -6.066406 -10.519531 -5.953125 -10.425781 -5.859375 -10.28125 L -2.765625 -6.03125 L 0.890625 -4.78125 C 1.078125 -4.71875 1.210938 -4.601562 1.296875 -4.4375 C 1.378906 -4.28125 1.394531 -4.117188 1.34375 -3.953125 C 1.28125 -3.773438 1.164062 -3.640625 1 -3.546875 C 0.832031 -3.460938 0.65625 -3.453125 0.46875 -3.515625 L -3.296875 -4.796875 L -8.15625 -3.234375 C -8.363281 -3.171875 -8.546875 -3.164062 -8.703125 -3.21875 C -8.878906 -3.28125 -9.007812 -3.40625 -9.09375 -3.59375 C -9.175781 -3.78125 -9.1875 -3.960938 -9.125 -4.140625 C -9.050781 -4.335938 -8.890625 -4.476562 -8.640625 -4.5625 L -4.3125 -5.890625 L -6.953125 -9.5 C -7.109375 -9.707031 -7.148438 -9.921875 -7.078125 -10.140625 C -7.023438 -10.304688 -6.910156 -10.429688 -6.734375 -10.515625 C -6.554688 -10.609375 -6.378906 -10.625 -6.203125 -10.5625 Z M -6.203125 -10.5625 "/></g></g></g><g fill="#5e17eb" fill-opacity="1"><g transform="translate(26.422984, 100.846966)"><g><path d="M 0.265625 -11.328125 C 1.109375 -10.898438 1.78125 -10.320312 2.28125 -9.59375 C 2.78125 -8.863281 3.0625 -8.078125 3.125 -7.234375 C 3.195312 -6.390625 3.019531 -5.5625 2.59375 -4.75 C 2.175781 -3.925781 1.601562 -3.289062 0.875 -2.84375 C 0.144531 -2.40625 -0.65625 -2.179688 -1.53125 -2.171875 C -2.414062 -2.171875 -3.28125 -2.382812 -4.125 -2.8125 C -4.976562 -3.25 -5.65625 -3.828125 -6.15625 -4.546875 C -6.65625 -5.273438 -6.9375 -6.0625 -7 -6.90625 C -7.0625 -7.757812 -6.882812 -8.597656 -6.46875 -9.421875 C -6.039062 -10.234375 -5.460938 -10.859375 -4.734375 -11.296875 C -4.015625 -11.734375 -3.210938 -11.957031 -2.328125 -11.96875 C -1.453125 -11.976562 -0.585938 -11.765625 0.265625 -11.328125 Z M -0.40625 -10.03125 C -1.03125 -10.351562 -1.660156 -10.519531 -2.296875 -10.53125 C -2.941406 -10.539062 -3.523438 -10.394531 -4.046875 -10.09375 C -4.578125 -9.800781 -4.988281 -9.375 -5.28125 -8.8125 C -5.570312 -8.226562 -5.6875 -7.632812 -5.625 -7.03125 C -5.570312 -6.4375 -5.359375 -5.878906 -4.984375 -5.359375 C -4.609375 -4.847656 -4.101562 -4.425781 -3.46875 -4.09375 C -2.832031 -3.769531 -2.191406 -3.601562 -1.546875 -3.59375 C -0.910156 -3.59375 -0.332031 -3.738281 0.1875 -4.03125 C 0.707031 -4.332031 1.113281 -4.773438 1.40625 -5.359375 C 1.695312 -5.921875 1.8125 -6.5 1.75 -7.09375 C 1.695312 -7.695312 1.484375 -8.253906 1.109375 -8.765625 C 0.734375 -9.285156 0.226562 -9.707031 -0.40625 -10.03125 Z M -0.40625 -10.03125 "/></g></g></g><g fill="#5e17eb" fill-opacity="1"><g transform="translate(33.930254, 87.169597)"><g><path d="M -3.171875 -12.484375 C -3.046875 -12.648438 -2.894531 -12.738281 -2.71875 -12.75 C -2.550781 -12.769531 -2.382812 -12.722656 -2.21875 -12.609375 L 2.15625 -9.390625 C 2.757812 -8.953125 3.203125 -8.421875 3.484375 -7.796875 C 3.765625 -7.179688 3.867188 -6.539062 3.796875 -5.875 C 3.734375 -5.207031 3.484375 -4.582031 3.046875 -4 C 2.609375 -3.394531 2.082031 -2.957031 1.46875 -2.6875 C 0.851562 -2.414062 0.207031 -2.320312 -0.46875 -2.40625 C -1.144531 -2.488281 -1.785156 -2.75 -2.390625 -3.1875 L -6.765625 -6.40625 C -6.929688 -6.519531 -7.023438 -6.671875 -7.046875 -6.859375 C -7.066406 -7.046875 -7.015625 -7.226562 -6.890625 -7.40625 C -6.785156 -7.539062 -6.640625 -7.625 -6.453125 -7.65625 C -6.265625 -7.6875 -6.09375 -7.644531 -5.9375 -7.53125 L -1.5625 -4.3125 C -1.164062 -4.03125 -0.738281 -3.863281 -0.28125 -3.8125 C 0.164062 -3.769531 0.585938 -3.832031 0.984375 -4 C 1.378906 -4.175781 1.703125 -4.441406 1.953125 -4.796875 C 2.222656 -5.160156 2.382812 -5.5625 2.4375 -6 C 2.5 -6.445312 2.4375 -6.878906 2.25 -7.296875 C 2.070312 -7.710938 1.785156 -8.0625 1.390625 -8.34375 L -2.984375 -11.5625 C -3.148438 -11.675781 -3.25 -11.816406 -3.28125 -11.984375 C -3.320312 -12.160156 -3.285156 -12.328125 -3.171875 -12.484375 Z M -3.171875 -12.484375 "/></g></g></g><g fill="#5e17eb" fill-opacity="1"><g transform="translate(43.026965, 75.410646)"><g><path d="M 5.359375 -7 C 5.472656 -7.007812 5.585938 -7 5.703125 -6.96875 C 5.816406 -6.9375 5.910156 -6.882812 5.984375 -6.8125 C 6.117188 -6.675781 6.171875 -6.523438 6.140625 -6.359375 C 6.117188 -6.203125 6.046875 -6.0625 5.921875 -5.9375 C 5.796875 -5.8125 5.664062 -5.734375 5.53125 -5.703125 C 5.21875 -5.617188 4.867188 -5.640625 4.484375 -5.765625 C 4.097656 -5.890625 3.65625 -6.195312 3.15625 -6.6875 C 2.832031 -7.019531 2.488281 -7.164062 2.125 -7.125 C 1.757812 -7.09375 1.414062 -6.910156 1.09375 -6.578125 L -0.921875 -4.5625 L 1.34375 -2.3125 C 1.488281 -2.164062 1.5625 -2.003906 1.5625 -1.828125 C 1.570312 -1.660156 1.515625 -1.515625 1.390625 -1.390625 C 1.234375 -1.234375 1.050781 -1.144531 0.84375 -1.125 C 0.644531 -1.113281 0.476562 -1.175781 0.34375 -1.3125 L -5.703125 -7.34375 C -5.847656 -7.488281 -5.921875 -7.65625 -5.921875 -7.84375 C -5.921875 -8.03125 -5.851562 -8.1875 -5.71875 -8.3125 L -2.90625 -11.140625 C -2.539062 -11.492188 -2.117188 -11.734375 -1.640625 -11.859375 C -1.171875 -11.992188 -0.6875 -11.992188 -0.1875 -11.859375 C 0.3125 -11.722656 0.75 -11.460938 1.125 -11.078125 C 1.507812 -10.703125 1.757812 -10.253906 1.875 -9.734375 C 2 -9.210938 1.984375 -8.710938 1.828125 -8.234375 C 2.203125 -8.359375 2.578125 -8.378906 2.953125 -8.296875 C 3.328125 -8.210938 3.671875 -8.03125 3.984375 -7.75 C 4.378906 -7.382812 4.660156 -7.148438 4.828125 -7.046875 C 5.003906 -6.941406 5.179688 -6.925781 5.359375 -7 Z M 0.53125 -7.671875 C 0.6875 -7.867188 0.773438 -8.097656 0.796875 -8.359375 C 0.828125 -8.617188 0.789062 -8.898438 0.6875 -9.203125 C 0.582031 -9.503906 0.40625 -9.78125 0.15625 -10.03125 C -0.175781 -10.351562 -0.550781 -10.523438 -0.96875 -10.546875 C -1.394531 -10.566406 -1.742188 -10.4375 -2.015625 -10.15625 L -4.265625 -7.90625 L -1.75 -5.390625 Z M 0.53125 -7.671875 "/></g></g></g><g fill="#5e17eb" fill-opacity="1"><g transform="translate(53.675762, 65.408649)"><g/></g></g><g fill="#5e17eb" fill-opacity="1"><g transform="translate(60.801867, 60.013863)"><g><path d="M 1.328125 -12.4375 C 1.492188 -12.539062 1.660156 -12.570312 1.828125 -12.53125 C 2.003906 -12.5 2.144531 -12.398438 2.25 -12.234375 C 2.351562 -12.066406 2.378906 -11.898438 2.328125 -11.734375 C 2.273438 -11.566406 2.164062 -11.429688 2 -11.328125 L -0.15625 -10.015625 L 3.984375 -3.25 C 4.085938 -3.070312 4.113281 -2.890625 4.0625 -2.703125 C 4.007812 -2.523438 3.894531 -2.378906 3.71875 -2.265625 C 3.539062 -2.160156 3.359375 -2.125 3.171875 -2.15625 C 2.992188 -2.195312 2.851562 -2.304688 2.75 -2.484375 L -1.390625 -9.25 L -3.53125 -7.953125 C -3.695312 -7.847656 -3.863281 -7.8125 -4.03125 -7.84375 C -4.207031 -7.882812 -4.347656 -7.988281 -4.453125 -8.15625 C -4.546875 -8.3125 -4.566406 -8.472656 -4.515625 -8.640625 C -4.472656 -8.816406 -4.367188 -8.957031 -4.203125 -9.0625 Z M 1.328125 -12.4375 "/></g></g></g><g fill="#5e17eb" fill-opacity="1"><g transform="translate(72.583009, 53.197268)"><g><path d="M 7.578125 -4.46875 C 7.691406 -4.445312 7.796875 -4.398438 7.890625 -4.328125 C 7.992188 -4.253906 8.0625 -4.171875 8.09375 -4.078125 C 8.175781 -3.898438 8.175781 -3.738281 8.09375 -3.59375 C 8.007812 -3.457031 7.882812 -3.359375 7.71875 -3.296875 C 7.550781 -3.222656 7.394531 -3.191406 7.25 -3.203125 C 6.925781 -3.253906 6.609375 -3.410156 6.296875 -3.671875 C 5.992188 -3.929688 5.707031 -4.378906 5.4375 -5.015625 C 5.25 -5.453125 4.984375 -5.71875 4.640625 -5.8125 C 4.296875 -5.914062 3.910156 -5.875 3.484375 -5.6875 L 0.859375 -4.578125 L 2.109375 -1.640625 C 2.191406 -1.453125 2.203125 -1.273438 2.140625 -1.109375 C 2.085938 -0.953125 1.976562 -0.835938 1.8125 -0.765625 C 1.613281 -0.679688 1.414062 -0.664062 1.21875 -0.71875 C 1.019531 -0.78125 0.882812 -0.898438 0.8125 -1.078125 L -2.546875 -8.953125 C -2.617188 -9.128906 -2.617188 -9.304688 -2.546875 -9.484375 C -2.472656 -9.660156 -2.351562 -9.785156 -2.1875 -9.859375 L 1.484375 -11.421875 C 1.953125 -11.617188 2.429688 -11.6875 2.921875 -11.625 C 3.410156 -11.5625 3.859375 -11.375 4.265625 -11.0625 C 4.671875 -10.757812 4.976562 -10.359375 5.1875 -9.859375 C 5.40625 -9.367188 5.472656 -8.859375 5.390625 -8.328125 C 5.304688 -7.796875 5.101562 -7.335938 4.78125 -6.953125 C 5.175781 -6.921875 5.53125 -6.796875 5.84375 -6.578125 C 6.164062 -6.359375 6.410156 -6.0625 6.578125 -5.6875 C 6.828125 -5.207031 7.007812 -4.890625 7.125 -4.734375 C 7.238281 -4.578125 7.390625 -4.488281 7.578125 -4.46875 Z M 3.359375 -6.921875 C 3.578125 -7.035156 3.75 -7.207031 3.875 -7.4375 C 4 -7.675781 4.066406 -7.957031 4.078125 -8.28125 C 4.085938 -8.601562 4.023438 -8.925781 3.890625 -9.25 C 3.703125 -9.675781 3.414062 -9.976562 3.03125 -10.15625 C 2.65625 -10.332031 2.285156 -10.34375 1.921875 -10.1875 L -1 -8.9375 L 0.390625 -5.65625 Z M 3.359375 -6.921875 "/></g></g></g><g fill="#5e17eb" fill-opacity="1"><g transform="translate(86.056718, 47.861381)"><g><path d="M 8.296875 -3.078125 C 8.347656 -2.992188 8.382812 -2.910156 8.40625 -2.828125 C 8.457031 -2.640625 8.429688 -2.46875 8.328125 -2.3125 C 8.234375 -2.164062 8.109375 -2.070312 7.953125 -2.03125 C 7.816406 -2 7.6875 -2.007812 7.5625 -2.0625 C 7.445312 -2.125 7.332031 -2.207031 7.21875 -2.3125 L 5.84375 -4.125 L 1.609375 -3.015625 L 1.3125 -0.75 C 1.300781 -0.613281 1.253906 -0.488281 1.171875 -0.375 C 1.085938 -0.269531 0.976562 -0.203125 0.84375 -0.171875 C 0.65625 -0.117188 0.492188 -0.128906 0.359375 -0.203125 C 0.234375 -0.273438 0.144531 -0.398438 0.09375 -0.578125 C 0.0820312 -0.617188 0.078125 -0.695312 0.078125 -0.8125 L 1.34375 -10.203125 C 1.382812 -10.367188 1.445312 -10.5 1.53125 -10.59375 C 1.625 -10.695312 1.742188 -10.765625 1.890625 -10.796875 C 2.035156 -10.835938 2.171875 -10.832031 2.296875 -10.78125 C 2.421875 -10.738281 2.523438 -10.65625 2.609375 -10.53125 Z M 1.8125 -4.375 L 5.015625 -5.21875 L 2.390625 -8.640625 Z M 1.8125 -4.375 "/></g></g></g><g fill="#5e17eb" fill-opacity="1"><g transform="translate(99.641487, 44.653547)"><g><path d="M 7.25 -10.796875 C 7.4375 -10.816406 7.601562 -10.769531 7.75 -10.65625 C 7.894531 -10.550781 7.976562 -10.410156 8 -10.234375 C 8.007812 -10.140625 8.003906 -10.035156 7.984375 -9.921875 L 5.328125 -1.03125 C 5.265625 -0.882812 5.175781 -0.765625 5.0625 -0.671875 C 4.957031 -0.585938 4.835938 -0.535156 4.703125 -0.515625 C 4.578125 -0.515625 4.453125 -0.546875 4.328125 -0.609375 C 4.210938 -0.671875 4.117188 -0.757812 4.046875 -0.875 L -0.46875 -9 C -0.519531 -9.050781 -0.550781 -9.140625 -0.5625 -9.265625 C -0.582031 -9.460938 -0.53125 -9.628906 -0.40625 -9.765625 C -0.28125 -9.910156 -0.128906 -9.992188 0.046875 -10.015625 C 0.316406 -10.046875 0.53125 -9.914062 0.6875 -9.625 L 4.578125 -2.71875 L 6.671875 -10.3125 C 6.722656 -10.4375 6.796875 -10.546875 6.890625 -10.640625 C 6.992188 -10.734375 7.113281 -10.785156 7.25 -10.796875 Z M 7.25 -10.796875 "/></g></g></g><g fill="#5e17eb" fill-opacity="1"><g transform="translate(113.996247, 43.466405)"><g><path d="M 6.828125 -1.078125 C 7.023438 -1.078125 7.1875 -1.007812 7.3125 -0.875 C 7.4375 -0.738281 7.492188 -0.582031 7.484375 -0.40625 C 7.484375 -0.21875 7.414062 -0.0664062 7.28125 0.046875 C 7.144531 0.160156 6.976562 0.21875 6.78125 0.21875 L 1.859375 0.0625 C 1.671875 0.0507812 1.507812 -0.0195312 1.375 -0.15625 C 1.25 -0.289062 1.1875 -0.457031 1.1875 -0.65625 L 1.453125 -9.203125 C 1.460938 -9.398438 1.535156 -9.5625 1.671875 -9.6875 C 1.816406 -9.8125 1.984375 -9.867188 2.171875 -9.859375 L 7.09375 -9.703125 C 7.289062 -9.703125 7.453125 -9.632812 7.578125 -9.5 C 7.703125 -9.375 7.757812 -9.210938 7.75 -9.015625 C 7.75 -8.828125 7.679688 -8.675781 7.546875 -8.5625 C 7.410156 -8.445312 7.242188 -8.390625 7.046875 -8.390625 L 2.84375 -8.53125 L 2.75 -5.640625 L 6.328125 -5.53125 C 6.523438 -5.519531 6.6875 -5.453125 6.8125 -5.328125 C 6.9375 -5.203125 6.992188 -5.046875 6.984375 -4.859375 C 6.984375 -4.660156 6.914062 -4.503906 6.78125 -4.390625 C 6.65625 -4.285156 6.492188 -4.238281 6.296875 -4.25 L 2.71875 -4.359375 L 2.625 -1.21875 Z M 6.828125 -1.078125 "/></g></g></g><g fill="#5e17eb" fill-opacity="1"><g transform="translate(126.977998, 44.208266)"><g><path d="M 6.765625 -0.21875 C 6.960938 -0.1875 7.113281 -0.0976562 7.21875 0.046875 C 7.332031 0.191406 7.375 0.363281 7.34375 0.5625 C 7.3125 0.738281 7.21875 0.875 7.0625 0.96875 C 6.914062 1.070312 6.742188 1.109375 6.546875 1.078125 L 1.828125 0.296875 C 1.640625 0.265625 1.488281 0.171875 1.375 0.015625 C 1.269531 -0.128906 1.234375 -0.296875 1.265625 -0.484375 L 2.65625 -8.921875 C 2.695312 -9.117188 2.796875 -9.269531 2.953125 -9.375 C 3.109375 -9.476562 3.285156 -9.507812 3.484375 -9.46875 C 3.671875 -9.4375 3.820312 -9.347656 3.9375 -9.203125 C 4.050781 -9.054688 4.085938 -8.882812 4.046875 -8.6875 L 2.765625 -0.875 Z M 6.765625 -0.21875 "/></g></g></g><g fill="#5e17eb" fill-opacity="1"><g transform="translate(139.556307, 46.687075)"><g><path d="M 2.671875 0.046875 C 2.617188 0.234375 2.503906 0.367188 2.328125 0.453125 C 2.160156 0.546875 1.984375 0.566406 1.796875 0.515625 C 1.597656 0.453125 1.453125 0.335938 1.359375 0.171875 C 1.273438 0.015625 1.257812 -0.15625 1.3125 -0.34375 L 3.640625 -8.578125 C 3.691406 -8.765625 3.800781 -8.898438 3.96875 -8.984375 C 4.132812 -9.078125 4.316406 -9.09375 4.515625 -9.03125 C 4.703125 -8.976562 4.84375 -8.867188 4.9375 -8.703125 C 5.03125 -8.546875 5.050781 -8.375 5 -8.1875 Z M 2.671875 0.046875 "/></g></g></g><g fill="#5e17eb" fill-opacity="1"><g transform="translate(147.934736, 49.163866)"><g><path d="M 11.78125 -5.796875 C 11.9375 -5.722656 12.046875 -5.609375 12.109375 -5.453125 C 12.171875 -5.304688 12.171875 -5.148438 12.109375 -4.984375 L 8.75 2.9375 C 8.675781 3.125 8.550781 3.25 8.375 3.3125 C 8.207031 3.382812 8.03125 3.382812 7.84375 3.3125 C 7.75 3.269531 7.660156 3.210938 7.578125 3.140625 C 7.492188 3.078125 7.445312 3.003906 7.4375 2.921875 L 5.125 -5.921875 L 2.46875 0.359375 C 2.394531 0.523438 2.28125 0.640625 2.125 0.703125 C 1.976562 0.765625 1.816406 0.757812 1.640625 0.6875 C 1.472656 0.625 1.359375 0.515625 1.296875 0.359375 C 1.242188 0.203125 1.253906 0.0390625 1.328125 -0.125 L 4.671875 -8.046875 C 4.742188 -8.234375 4.863281 -8.359375 5.03125 -8.421875 C 5.207031 -8.492188 5.382812 -8.492188 5.5625 -8.421875 C 5.664062 -8.378906 5.753906 -8.316406 5.828125 -8.234375 C 5.910156 -8.160156 5.960938 -8.070312 5.984375 -7.96875 L 8.28125 0.875 L 10.96875 -5.46875 C 11.03125 -5.632812 11.132812 -5.75 11.28125 -5.8125 C 11.4375 -5.875 11.601562 -5.867188 11.78125 -5.796875 Z M 11.78125 -5.796875 "/></g></g></g><g fill="#5e17eb" fill-opacity="1"><g transform="translate(161.77255, 55.436548)"><g><path d="M 9.9375 0.015625 C 10.101562 0.117188 10.203125 0.257812 10.234375 0.4375 C 10.273438 0.613281 10.25 0.78125 10.15625 0.9375 L 8.46875 3.65625 C 8.34375 3.863281 8.140625 3.972656 7.859375 3.984375 C 7.347656 3.992188 6.828125 3.925781 6.296875 3.78125 C 5.773438 3.644531 5.28125 3.4375 4.8125 3.15625 C 4.007812 2.65625 3.390625 2.003906 2.953125 1.203125 C 2.523438 0.398438 2.320312 -0.445312 2.34375 -1.34375 C 2.375 -2.25 2.632812 -3.097656 3.125 -3.890625 C 3.613281 -4.679688 4.253906 -5.289062 5.046875 -5.71875 C 5.847656 -6.15625 6.703125 -6.359375 7.609375 -6.328125 C 8.523438 -6.296875 9.382812 -6.03125 10.1875 -5.53125 C 10.59375 -5.28125 10.953125 -4.992188 11.265625 -4.671875 C 11.585938 -4.359375 11.84375 -4.019531 12.03125 -3.65625 C 12.09375 -3.550781 12.117188 -3.441406 12.109375 -3.328125 C 12.109375 -3.210938 12.078125 -3.109375 12.015625 -3.015625 C 11.921875 -2.859375 11.785156 -2.753906 11.609375 -2.703125 C 11.429688 -2.648438 11.265625 -2.671875 11.109375 -2.765625 C 10.992188 -2.835938 10.90625 -2.929688 10.84375 -3.046875 C 10.46875 -3.609375 10.007812 -4.054688 9.46875 -4.390625 C 8.894531 -4.753906 8.28125 -4.9375 7.625 -4.9375 C 6.976562 -4.945312 6.363281 -4.796875 5.78125 -4.484375 C 5.195312 -4.179688 4.722656 -3.734375 4.359375 -3.140625 C 3.992188 -2.546875 3.800781 -1.914062 3.78125 -1.25 C 3.757812 -0.59375 3.898438 0.0195312 4.203125 0.59375 C 4.503906 1.175781 4.941406 1.648438 5.515625 2.015625 C 5.785156 2.179688 6.09375 2.320312 6.4375 2.4375 C 6.78125 2.5625 7.09375 2.640625 7.375 2.671875 L 8.5625 0.75 L 7.109375 -0.15625 C 6.953125 -0.257812 6.847656 -0.394531 6.796875 -0.5625 C 6.742188 -0.738281 6.769531 -0.910156 6.875 -1.078125 C 6.976562 -1.242188 7.125 -1.347656 7.3125 -1.390625 C 7.5 -1.429688 7.671875 -1.398438 7.828125 -1.296875 Z M 9.9375 0.015625 "/></g></g></g><g fill="#5e17eb" fill-opacity="1"><g transform="translate(174.111674, 63.637942)"><g/></g></g><g fill="#5e17eb" fill-opacity="1"><g transform="translate(180.987901, 69.250364)"><g><path d="M 13.953125 0.203125 C 14.078125 0.347656 14.132812 0.507812 14.125 0.6875 C 14.125 0.875 14.054688 1.035156 13.921875 1.171875 L 7.734375 7.09375 C 7.585938 7.226562 7.425781 7.296875 7.25 7.296875 C 7.070312 7.296875 6.910156 7.21875 6.765625 7.0625 C 6.617188 6.914062 6.539062 6.75 6.53125 6.5625 C 6.53125 6.375 6.609375 6.210938 6.765625 6.078125 L 11.5 1.546875 L 6.59375 2.453125 C 6.488281 2.453125 6.378906 2.4375 6.265625 2.40625 C 6.160156 2.375 6.070312 2.316406 6 2.234375 C 5.9375 2.171875 5.890625 2.082031 5.859375 1.96875 C 5.835938 1.851562 5.832031 1.75 5.84375 1.65625 L 7.03125 -3.3125 L 2.203125 1.3125 C 2.046875 1.445312 1.878906 1.515625 1.703125 1.515625 C 1.535156 1.523438 1.382812 1.457031 1.25 1.3125 C 1.125 1.175781 1.0625 1.019531 1.0625 0.84375 C 1.070312 0.664062 1.15625 0.507812 1.3125 0.375 L 7.5 -5.546875 C 7.632812 -5.679688 7.796875 -5.742188 7.984375 -5.734375 C 8.179688 -5.734375 8.347656 -5.660156 8.484375 -5.515625 C 8.566406 -5.429688 8.617188 -5.332031 8.640625 -5.21875 C 8.671875 -5.101562 8.675781 -4.988281 8.65625 -4.875 L 7.3125 1.09375 L 13.328125 0 C 13.585938 -0.03125 13.796875 0.0351562 13.953125 0.203125 Z M 13.953125 0.203125 "/></g></g></g><g fill="#5e17eb" fill-opacity="1"><g transform="translate(192.010693, 81.460427)"><g><path d="M 5.734375 6.734375 C 5.679688 6.804688 5.617188 6.867188 5.546875 6.921875 C 5.390625 7.023438 5.222656 7.054688 5.046875 7.015625 C 4.867188 6.984375 4.734375 6.898438 4.640625 6.765625 C 4.566406 6.660156 4.53125 6.539062 4.53125 6.40625 C 4.539062 6.269531 4.578125 6.128906 4.640625 5.984375 L 5.875 4.078125 L 3.375 0.484375 L 1.15625 0.96875 C 1.019531 1.007812 0.890625 1.007812 0.765625 0.96875 C 0.640625 0.925781 0.535156 0.847656 0.453125 0.734375 C 0.347656 0.578125 0.304688 0.421875 0.328125 0.265625 C 0.347656 0.117188 0.429688 0 0.578125 -0.09375 C 0.609375 -0.125 0.675781 -0.160156 0.78125 -0.203125 L 10.046875 -2.234375 C 10.210938 -2.265625 10.359375 -2.253906 10.484375 -2.203125 C 10.609375 -2.148438 10.710938 -2.054688 10.796875 -1.921875 C 10.878906 -1.804688 10.921875 -1.679688 10.921875 -1.546875 C 10.921875 -1.410156 10.878906 -1.28125 10.796875 -1.15625 Z M 4.734375 0.1875 L 6.625 2.921875 L 8.9375 -0.71875 Z M 4.734375 0.1875 "/></g></g></g><g fill="#5e17eb" fill-opacity="1"><g transform="translate(199.679103, 93.143262)"><g><path d="M 12.28125 2.359375 C 12.375 2.535156 12.394531 2.707031 12.34375 2.875 C 12.289062 3.050781 12.175781 3.1875 12 3.28125 C 11.820312 3.363281 11.65625 3.367188 11.5 3.296875 C 11.34375 3.234375 11.21875 3.113281 11.125 2.9375 L 10 0.703125 L 2.890625 4.25 C 2.710938 4.34375 2.535156 4.351562 2.359375 4.28125 C 2.179688 4.207031 2.046875 4.078125 1.953125 3.890625 C 1.859375 3.710938 1.835938 3.53125 1.890625 3.34375 C 1.941406 3.164062 2.054688 3.03125 2.234375 2.9375 L 9.34375 -0.609375 L 8.234375 -2.84375 C 8.140625 -3.019531 8.113281 -3.191406 8.15625 -3.359375 C 8.207031 -3.523438 8.320312 -3.65625 8.5 -3.75 C 8.664062 -3.832031 8.832031 -3.84375 9 -3.78125 C 9.164062 -3.71875 9.296875 -3.597656 9.390625 -3.421875 Z M 12.28125 2.359375 "/></g></g></g><g fill="#5e17eb" fill-opacity="1"><g transform="translate(205.462646, 105.502807)"><g><path d="M 3.40625 6 C 3.46875 6.1875 3.457031 6.363281 3.375 6.53125 C 3.289062 6.695312 3.164062 6.8125 3 6.875 C 2.820312 6.9375 2.65625 6.921875 2.5 6.828125 C 2.34375 6.742188 2.234375 6.609375 2.171875 6.421875 L 0.59375 1.765625 C 0.53125 1.585938 0.539062 1.410156 0.625 1.234375 C 0.707031 1.066406 0.84375 0.953125 1.03125 0.890625 L 9.125 -1.859375 C 9.3125 -1.921875 9.484375 -1.90625 9.640625 -1.8125 C 9.804688 -1.726562 9.921875 -1.597656 9.984375 -1.421875 L 11.5625 3.234375 C 11.625 3.421875 11.617188 3.597656 11.546875 3.765625 C 11.472656 3.929688 11.34375 4.046875 11.15625 4.109375 C 10.976562 4.171875 10.8125 4.15625 10.65625 4.0625 C 10.5 3.976562 10.390625 3.84375 10.328125 3.65625 L 8.984375 -0.328125 L 6.25 0.609375 L 7.390625 4 C 7.460938 4.1875 7.457031 4.359375 7.375 4.515625 C 7.300781 4.671875 7.175781 4.78125 7 4.84375 C 6.8125 4.90625 6.644531 4.894531 6.5 4.8125 C 6.351562 4.726562 6.242188 4.59375 6.171875 4.40625 L 5.03125 1.015625 L 2.0625 2.015625 Z M 3.40625 6 "/></g></g></g><g fill="#5e17eb" fill-opacity="1"><g transform="translate(239.665009, 174.19657)"><g><path d="M 20.609375 -26.96875 C 21.304688 -26.96875 21.875 -26.757812 22.3125 -26.34375 C 22.75 -25.9375 22.96875 -25.398438 22.96875 -24.734375 C 22.96875 -24.066406 22.75 -23.535156 22.3125 -23.140625 C 21.875 -22.742188 21.304688 -22.546875 20.609375 -22.546875 L 14.5625 -22.546875 L 14.5625 -2.34375 C 14.5625 -1.675781 14.316406 -1.117188 13.828125 -0.671875 C 13.335938 -0.222656 12.734375 0 12.015625 0 C 11.296875 0 10.707031 -0.222656 10.25 -0.671875 C 9.789062 -1.117188 9.5625 -1.675781 9.5625 -2.34375 L 9.5625 -22.546875 L 3.5 -22.546875 C 2.8125 -22.546875 2.25 -22.75 1.8125 -23.15625 C 1.375 -23.570312 1.15625 -24.113281 1.15625 -24.78125 C 1.15625 -25.414062 1.378906 -25.9375 1.828125 -26.34375 C 2.273438 -26.757812 2.832031 -26.96875 3.5 -26.96875 Z M 20.609375 -26.96875 "/></g></g></g><g fill="#5e17eb" fill-opacity="1"><g transform="translate(265.211328, 174.19657)"><g><path d="M 13.21875 -21 C 13.988281 -21 14.632812 -20.78125 15.15625 -20.34375 C 15.6875 -19.90625 15.953125 -19.390625 15.953125 -18.796875 C 15.953125 -18.003906 15.742188 -17.410156 15.328125 -17.015625 C 14.921875 -16.617188 14.4375 -16.421875 13.875 -16.421875 C 13.488281 -16.421875 13.050781 -16.507812 12.5625 -16.6875 C 12.488281 -16.707031 12.316406 -16.753906 12.046875 -16.828125 C 11.773438 -16.910156 11.484375 -16.953125 11.171875 -16.953125 C 10.503906 -16.953125 9.863281 -16.742188 9.25 -16.328125 C 8.632812 -15.921875 8.125 -15.300781 7.71875 -14.46875 C 7.320312 -13.632812 7.125 -12.640625 7.125 -11.484375 L 7.125 -2.34375 C 7.125 -1.675781 6.90625 -1.117188 6.46875 -0.671875 C 6.03125 -0.222656 5.476562 0 4.8125 0 C 4.144531 0 3.59375 -0.222656 3.15625 -0.671875 C 2.71875 -1.117188 2.5 -1.675781 2.5 -2.34375 L 2.5 -18.265625 C 2.5 -18.929688 2.71875 -19.488281 3.15625 -19.9375 C 3.59375 -20.382812 4.144531 -20.609375 4.8125 -20.609375 C 5.476562 -20.609375 6.03125 -20.382812 6.46875 -19.9375 C 6.90625 -19.488281 7.125 -18.929688 7.125 -18.265625 L 7.125 -17.765625 C 7.71875 -18.816406 8.566406 -19.617188 9.671875 -20.171875 C 10.773438 -20.722656 11.957031 -21 13.21875 -21 Z M 13.21875 -21 "/></g></g></g><g fill="#5e17eb" fill-opacity="1"><g transform="translate(283.359659, 174.19657)"><g><path d="M 19.1875 -21 C 19.851562 -21 20.40625 -20.78125 20.84375 -20.34375 C 21.28125 -19.90625 21.5 -19.34375 21.5 -18.65625 L 21.5 -2.34375 C 21.5 -1.675781 21.28125 -1.117188 20.84375 -0.671875 C 20.40625 -0.222656 19.851562 0 19.1875 0 C 18.519531 0 17.972656 -0.21875 17.546875 -0.65625 C 17.128906 -1.09375 16.90625 -1.644531 16.875 -2.3125 C 16.226562 -1.5625 15.359375 -0.921875 14.265625 -0.390625 C 13.179688 0.128906 12.035156 0.390625 10.828125 0.390625 C 9.054688 0.390625 7.453125 -0.0625 6.015625 -0.96875 C 4.578125 -1.882812 3.4375 -3.148438 2.59375 -4.765625 C 1.757812 -6.390625 1.34375 -8.226562 1.34375 -10.28125 C 1.34375 -12.34375 1.753906 -14.1875 2.578125 -15.8125 C 3.398438 -17.445312 4.523438 -18.71875 5.953125 -19.625 C 7.378906 -20.539062 8.953125 -21 10.671875 -21 C 11.898438 -21 13.054688 -20.773438 14.140625 -20.328125 C 15.222656 -19.878906 16.132812 -19.304688 16.875 -18.609375 L 16.875 -18.65625 C 16.875 -19.320312 17.09375 -19.878906 17.53125 -20.328125 C 17.96875 -20.773438 18.519531 -21 19.1875 -21 Z M 11.40625 -3.859375 C 13.070312 -3.859375 14.429688 -4.46875 15.484375 -5.6875 C 16.535156 -6.90625 17.0625 -8.4375 17.0625 -10.28125 C 17.0625 -12.132812 16.535156 -13.675781 15.484375 -14.90625 C 14.429688 -16.144531 13.070312 -16.765625 11.40625 -16.765625 C 9.757812 -16.765625 8.410156 -16.144531 7.359375 -14.90625 C 6.304688 -13.675781 5.78125 -12.132812 5.78125 -10.28125 C 5.78125 -8.4375 6.300781 -6.90625 7.34375 -5.6875 C 8.382812 -4.46875 9.738281 -3.859375 11.40625 -3.859375 Z M 11.40625 -3.859375 "/></g></g></g><g fill="#5e17eb" fill-opacity="1"><g transform="translate(308.790392, 174.19657)"><g><path d="M 18.34375 -20.578125 C 18.957031 -20.578125 19.46875 -20.375 19.875 -19.96875 C 20.289062 -19.570312 20.5 -19.082031 20.5 -18.5 C 20.5 -18.1875 20.394531 -17.800781 20.1875 -17.34375 L 12.984375 -1.46875 C 12.804688 -1.03125 12.539062 -0.679688 12.1875 -0.421875 C 11.84375 -0.160156 11.453125 -0.0195312 11.015625 0 L 10.671875 0.03125 C 10.234375 0.03125 9.828125 -0.0976562 9.453125 -0.359375 C 9.085938 -0.628906 8.800781 -1 8.59375 -1.46875 L 1.421875 -17.34375 C 1.242188 -17.75 1.15625 -18.160156 1.15625 -18.578125 C 1.15625 -19.085938 1.375 -19.550781 1.8125 -19.96875 C 2.25 -20.394531 2.785156 -20.609375 3.421875 -20.609375 C 3.910156 -20.609375 4.359375 -20.476562 4.765625 -20.21875 C 5.179688 -19.96875 5.492188 -19.613281 5.703125 -19.15625 L 11.015625 -6.96875 L 16.296875 -19.109375 C 16.503906 -19.597656 16.785156 -19.96875 17.140625 -20.21875 C 17.503906 -20.476562 17.90625 -20.597656 18.34375 -20.578125 Z M 18.34375 -20.578125 "/></g></g></g><g fill="#5e17eb" fill-opacity="1"><g transform="translate(331.870715, 174.19657)"><g><path d="M 21 -10.78125 C 20.976562 -10.164062 20.734375 -9.664062 20.265625 -9.28125 C 19.804688 -8.894531 19.269531 -8.703125 18.65625 -8.703125 L 5.9375 -8.703125 C 6.238281 -7.191406 6.941406 -6.003906 8.046875 -5.140625 C 9.148438 -4.285156 10.398438 -3.859375 11.796875 -3.859375 C 12.847656 -3.859375 13.664062 -3.953125 14.25 -4.140625 C 14.84375 -4.335938 15.3125 -4.546875 15.65625 -4.765625 C 16.007812 -4.984375 16.25 -5.128906 16.375 -5.203125 C 16.832031 -5.429688 17.269531 -5.546875 17.6875 -5.546875 C 18.226562 -5.546875 18.691406 -5.351562 19.078125 -4.96875 C 19.460938 -4.582031 19.65625 -4.132812 19.65625 -3.625 C 19.65625 -2.925781 19.296875 -2.296875 18.578125 -1.734375 C 17.859375 -1.140625 16.894531 -0.632812 15.6875 -0.21875 C 14.476562 0.1875 13.253906 0.390625 12.015625 0.390625 C 9.859375 0.390625 7.976562 -0.0546875 6.375 -0.953125 C 4.769531 -1.859375 3.53125 -3.097656 2.65625 -4.671875 C 1.78125 -6.253906 1.34375 -8.035156 1.34375 -10.015625 C 1.34375 -12.222656 1.804688 -14.160156 2.734375 -15.828125 C 3.660156 -17.503906 4.878906 -18.785156 6.390625 -19.671875 C 7.910156 -20.554688 9.53125 -21 11.25 -21 C 12.945312 -21 14.546875 -20.535156 16.046875 -19.609375 C 17.546875 -18.679688 18.742188 -17.4375 19.640625 -15.875 C 20.546875 -14.3125 21 -12.613281 21 -10.78125 Z M 11.25 -16.765625 C 8.269531 -16.765625 6.507812 -15.363281 5.96875 -12.5625 L 16.0625 -12.5625 L 16.0625 -12.828125 C 15.957031 -13.910156 15.429688 -14.835938 14.484375 -15.609375 C 13.535156 -16.378906 12.457031 -16.765625 11.25 -16.765625 Z M 11.25 -16.765625 "/></g></g></g><g fill="#5e17eb" fill-opacity="1"><g transform="translate(355.644612, 174.19657)"><g><path d="M 7.515625 -2.34375 C 7.515625 -1.675781 7.289062 -1.117188 6.84375 -0.671875 C 6.394531 -0.222656 5.832031 0 5.15625 0 C 4.519531 0 3.984375 -0.222656 3.546875 -0.671875 C 3.109375 -1.117188 2.890625 -1.675781 2.890625 -2.34375 L 2.890625 -26.15625 C 2.890625 -26.832031 3.113281 -27.394531 3.5625 -27.84375 C 4.007812 -28.289062 4.566406 -28.515625 5.234375 -28.515625 C 5.878906 -28.515625 6.421875 -28.289062 6.859375 -27.84375 C 7.296875 -27.394531 7.515625 -26.832031 7.515625 -26.15625 Z M 7.515625 -2.34375 "/></g></g></g><g fill="#5e17eb" fill-opacity="1"><g transform="translate(240.766572, 227.446567)"><g><path d="M 19.078125 -14.953125 C 20.429688 -14.410156 21.539062 -13.585938 22.40625 -12.484375 C 23.269531 -11.378906 23.703125 -9.953125 23.703125 -8.203125 C 23.703125 -5.148438 22.828125 -3.019531 21.078125 -1.8125 C 19.328125 -0.601562 17.242188 0 14.828125 0 L 5.234375 0 C 4.566406 0 4.007812 -0.222656 3.5625 -0.671875 C 3.113281 -1.117188 2.890625 -1.675781 2.890625 -2.34375 L 2.890625 -24.625 C 2.890625 -25.289062 3.113281 -25.847656 3.5625 -26.296875 C 4.007812 -26.742188 4.566406 -26.96875 5.234375 -26.96875 L 14.953125 -26.96875 C 19.828125 -26.96875 22.265625 -24.679688 22.265625 -20.109375 C 22.265625 -18.953125 21.988281 -17.929688 21.4375 -17.046875 C 20.882812 -16.160156 20.097656 -15.460938 19.078125 -14.953125 Z M 17.265625 -19.265625 C 17.265625 -20.316406 17 -21.101562 16.46875 -21.625 C 15.945312 -22.15625 15.207031 -22.421875 14.25 -22.421875 L 7.90625 -22.421875 L 7.90625 -16.421875 L 14.375 -16.421875 C 15.144531 -16.421875 15.816406 -16.675781 16.390625 -17.1875 C 16.972656 -17.695312 17.265625 -18.390625 17.265625 -19.265625 Z M 14.828125 -4.4375 C 16.035156 -4.4375 16.976562 -4.753906 17.65625 -5.390625 C 18.34375 -6.035156 18.6875 -6.972656 18.6875 -8.203125 C 18.6875 -9.722656 18.285156 -10.710938 17.484375 -11.171875 C 16.691406 -11.640625 15.71875 -11.875 14.5625 -11.875 L 7.90625 -11.875 L 7.90625 -4.4375 Z M 14.828125 -4.4375 "/></g></g></g><g fill="#5e17eb" fill-opacity="1"><g transform="translate(267.430302, 227.446567)"><g><path d="M 17.796875 -20.609375 C 18.460938 -20.609375 19.015625 -20.382812 19.453125 -19.9375 C 19.890625 -19.488281 20.109375 -18.929688 20.109375 -18.265625 L 20.109375 -8.484375 C 20.109375 -5.703125 19.34375 -3.523438 17.8125 -1.953125 C 16.289062 -0.390625 14.117188 0.390625 11.296875 0.390625 C 8.460938 0.390625 6.285156 -0.390625 4.765625 -1.953125 C 3.253906 -3.523438 2.5 -5.703125 2.5 -8.484375 L 2.5 -18.265625 C 2.5 -18.929688 2.71875 -19.488281 3.15625 -19.9375 C 3.59375 -20.382812 4.144531 -20.609375 4.8125 -20.609375 C 5.476562 -20.609375 6.03125 -20.382812 6.46875 -19.9375 C 6.90625 -19.488281 7.125 -18.929688 7.125 -18.265625 L 7.125 -8.484375 C 7.125 -6.910156 7.46875 -5.742188 8.15625 -4.984375 C 8.851562 -4.234375 9.898438 -3.859375 11.296875 -3.859375 C 12.703125 -3.859375 13.75 -4.234375 14.4375 -4.984375 C 15.132812 -5.742188 15.484375 -6.910156 15.484375 -8.484375 L 15.484375 -18.265625 C 15.484375 -18.929688 15.703125 -19.488281 16.140625 -19.9375 C 16.578125 -20.382812 17.128906 -20.609375 17.796875 -20.609375 Z M 17.796875 -20.609375 "/></g></g></g><g fill="#5e17eb" fill-opacity="1"><g transform="translate(291.473909, 227.446567)"><g><path d="M 19.1875 -28.515625 C 19.851562 -28.515625 20.40625 -28.296875 20.84375 -27.859375 C 21.28125 -27.421875 21.5 -26.851562 21.5 -26.15625 L 21.5 -2.34375 C 21.5 -1.675781 21.28125 -1.117188 20.84375 -0.671875 C 20.40625 -0.222656 19.851562 0 19.1875 0 C 18.519531 0 17.972656 -0.21875 17.546875 -0.65625 C 17.128906 -1.09375 16.90625 -1.644531 16.875 -2.3125 C 16.226562 -1.5625 15.359375 -0.921875 14.265625 -0.390625 C 13.179688 0.128906 12.035156 0.390625 10.828125 0.390625 C 9.054688 0.390625 7.453125 -0.0625 6.015625 -0.96875 C 4.578125 -1.882812 3.4375 -3.148438 2.59375 -4.765625 C 1.757812 -6.390625 1.34375 -8.226562 1.34375 -10.28125 C 1.34375 -12.34375 1.753906 -14.1875 2.578125 -15.8125 C 3.398438 -17.445312 4.523438 -18.71875 5.953125 -19.625 C 7.378906 -20.539062 8.953125 -21 10.671875 -21 C 11.898438 -21 13.054688 -20.773438 14.140625 -20.328125 C 15.222656 -19.878906 16.132812 -19.304688 16.875 -18.609375 L 16.875 -26.15625 C 16.875 -26.832031 17.09375 -27.394531 17.53125 -27.84375 C 17.96875 -28.289062 18.519531 -28.515625 19.1875 -28.515625 Z M 11.40625 -3.859375 C 13.070312 -3.859375 14.429688 -4.46875 15.484375 -5.6875 C 16.535156 -6.90625 17.0625 -8.4375 17.0625 -10.28125 C 17.0625 -12.132812 16.535156 -13.675781 15.484375 -14.90625 C 14.429688 -16.144531 13.070312 -16.765625 11.40625 -16.765625 C 9.757812 -16.765625 8.410156 -16.144531 7.359375 -14.90625 C 6.304688 -13.675781 5.78125 -12.132812 5.78125 -10.28125 C 5.78125 -8.4375 6.300781 -6.90625 7.34375 -5.6875 C 8.382812 -4.46875 9.738281 -3.859375 11.40625 -3.859375 Z M 11.40625 -3.859375 "/></g></g></g><g fill="#5e17eb" fill-opacity="1"><g transform="translate(316.904641, 227.446567)"><g><path d="M 19.1875 -28.515625 C 19.851562 -28.515625 20.40625 -28.296875 20.84375 -27.859375 C 21.28125 -27.421875 21.5 -26.851562 21.5 -26.15625 L 21.5 -2.34375 C 21.5 -1.675781 21.28125 -1.117188 20.84375 -0.671875 C 20.40625 -0.222656 19.851562 0 19.1875 0 C 18.519531 0 17.972656 -0.21875 17.546875 -0.65625 C 17.128906 -1.09375 16.90625 -1.644531 16.875 -2.3125 C 16.226562 -1.5625 15.359375 -0.921875 14.265625 -0.390625 C 13.179688 0.128906 12.035156 0.390625 10.828125 0.390625 C 9.054688 0.390625 7.453125 -0.0625 6.015625 -0.96875 C 4.578125 -1.882812 3.4375 -3.148438 2.59375 -4.765625 C 1.757812 -6.390625 1.34375 -8.226562 1.34375 -10.28125 C 1.34375 -12.34375 1.753906 -14.1875 2.578125 -15.8125 C 3.398438 -17.445312 4.523438 -18.71875 5.953125 -19.625 C 7.378906 -20.539062 8.953125 -21 10.671875 -21 C 11.898438 -21 13.054688 -20.773438 14.140625 -20.328125 C 15.222656 -19.878906 16.132812 -19.304688 16.875 -18.609375 L 16.875 -26.15625 C 16.875 -26.832031 17.09375 -27.394531 17.53125 -27.84375 C 17.96875 -28.289062 18.519531 -28.515625 19.1875 -28.515625 Z M 11.40625 -3.859375 C 13.070312 -3.859375 14.429688 -4.46875 15.484375 -5.6875 C 16.535156 -6.90625 17.0625 -8.4375 17.0625 -10.28125 C 17.0625 -12.132812 16.535156 -13.675781 15.484375 -14.90625 C 14.429688 -16.144531 13.070312 -16.765625 11.40625 -16.765625 C 9.757812 -16.765625 8.410156 -16.144531 7.359375 -14.90625 C 6.304688 -13.675781 5.78125 -12.132812 5.78125 -10.28125 C 5.78125 -8.4375 6.300781 -6.90625 7.34375 -5.6875 C 8.382812 -4.46875 9.738281 -3.859375 11.40625 -3.859375 Z M 11.40625 -3.859375 "/></g></g></g><g fill="#5e17eb" fill-opacity="1"><g transform="translate(342.335374, 227.446567)"><g><path d="M 17.796875 -20.609375 C 18.460938 -20.609375 19.015625 -20.382812 19.453125 -19.9375 C 19.890625 -19.488281 20.109375 -18.929688 20.109375 -18.265625 L 20.109375 -1.890625 C 20.109375 1.453125 19.207031 3.882812 17.40625 5.40625 C 15.613281 6.9375 13.210938 7.703125 10.203125 7.703125 C 9.335938 7.703125 8.445312 7.628906 7.53125 7.484375 C 6.625 7.347656 5.882812 7.164062 5.3125 6.9375 C 4.050781 6.394531 3.421875 5.648438 3.421875 4.703125 C 3.421875 4.523438 3.460938 4.316406 3.546875 4.078125 C 3.703125 3.515625 3.960938 3.082031 4.328125 2.78125 C 4.703125 2.488281 5.109375 2.34375 5.546875 2.34375 C 5.804688 2.34375 6.050781 2.382812 6.28125 2.46875 C 6.457031 2.539062 6.769531 2.664062 7.21875 2.84375 C 7.675781 3.03125 8.15625 3.179688 8.65625 3.296875 C 9.15625 3.410156 9.671875 3.46875 10.203125 3.46875 C 12.035156 3.46875 13.378906 3.078125 14.234375 2.296875 C 15.097656 1.515625 15.53125 0.171875 15.53125 -1.734375 L 15.53125 -2.125 C 14.195312 -0.445312 12.113281 0.390625 9.28125 0.390625 C 7.945312 0.390625 6.765625 0.078125 5.734375 -0.546875 C 4.710938 -1.179688 3.914062 -2.054688 3.34375 -3.171875 C 2.78125 -4.296875 2.5 -5.578125 2.5 -7.015625 L 2.5 -18.265625 C 2.5 -18.929688 2.71875 -19.488281 3.15625 -19.9375 C 3.59375 -20.382812 4.144531 -20.609375 4.8125 -20.609375 C 5.476562 -20.609375 6.03125 -20.382812 6.46875 -19.9375 C 6.90625 -19.488281 7.125 -18.929688 7.125 -18.265625 L 7.125 -8.40625 C 7.125 -6.78125 7.476562 -5.613281 8.1875 -4.90625 C 8.894531 -4.207031 9.929688 -3.859375 11.296875 -3.859375 C 12.628906 -3.859375 13.660156 -4.25 14.390625 -5.03125 C 15.117188 -5.8125 15.484375 -6.9375 15.484375 -8.40625 L 15.484375 -18.265625 C 15.484375 -18.929688 15.703125 -19.488281 16.140625 -19.9375 C 16.578125 -20.382812 17.128906 -20.609375 17.796875 -20.609375 Z M 17.796875 -20.609375 "/></g></g></g></svg>