<svg xmlns="http://www.w3.org/2000/svg" xmlns:xlink="http://www.w3.org/1999/xlink" width="500" zoomAndPan="magnify" viewBox="0 0 375 374.999991" height="500" preserveAspectRatio="xMidYMid meet" version="1.0"><defs><g/><clipPath id="0d04e19bba"><path d="M 123.167969 115.191406 L 240.917969 115.191406 L 240.917969 249.441406 L 123.167969 249.441406 Z M 123.167969 115.191406 " clip-rule="nonzero"/></clipPath></defs><rect x="-37.5" width="450" fill="#ffffff" y="-37.499999" height="449.999989" fill-opacity="1"/><rect x="-37.5" width="450" fill="#ffffff" y="-37.499999" height="449.999989" fill-opacity="1"/><rect x="-37.5" width="450" fill="#1f0322" y="-37.499999" height="449.999989" fill-opacity="1"/><path fill="#ffffff" d="M 182.101562 167.273438 C 181.242188 167.273438 180.394531 167.191406 179.550781 167.023438 C 178.710938 166.855469 177.894531 166.609375 177.101562 166.28125 C 176.308594 165.953125 175.554688 165.550781 174.839844 165.074219 C 174.128906 164.597656 173.46875 164.054688 172.863281 163.449219 C 172.253906 162.839844 171.714844 162.179688 171.238281 161.464844 C 170.761719 160.753906 170.359375 160 170.027344 159.207031 C 169.699219 158.414062 169.453125 157.597656 169.285156 156.753906 C 169.117188 155.914062 169.035156 155.0625 169.035156 154.207031 C 169.035156 153.347656 169.117188 152.496094 169.285156 151.65625 C 169.453125 150.8125 169.699219 149.996094 170.027344 149.203125 C 170.355469 148.410156 170.757812 147.65625 171.234375 146.945312 C 171.710938 146.230469 172.253906 145.570312 172.859375 144.964844 C 173.46875 144.355469 174.128906 143.816406 174.839844 143.335938 C 175.554688 142.859375 176.308594 142.457031 177.097656 142.128906 C 177.890625 141.800781 178.707031 141.554688 179.550781 141.386719 C 180.390625 141.21875 181.242188 141.136719 182.097656 141.136719 C 182.957031 141.136719 183.804688 141.21875 184.648438 141.386719 C 185.488281 141.554688 186.304688 141.800781 187.097656 142.128906 C 187.890625 142.457031 188.644531 142.859375 189.355469 143.335938 C 190.070312 143.8125 190.730469 144.355469 191.335938 144.964844 C 191.945312 145.570312 192.484375 146.230469 192.960938 146.945312 C 193.4375 147.65625 193.839844 148.410156 194.167969 149.203125 C 194.496094 149.996094 194.746094 150.8125 194.914062 151.65625 C 195.078125 152.496094 195.164062 153.347656 195.164062 154.207031 C 195.164062 155.0625 195.078125 155.914062 194.910156 156.753906 C 194.742188 157.597656 194.492188 158.414062 194.164062 159.207031 C 193.835938 159.996094 193.433594 160.75 192.957031 161.464844 C 192.480469 162.175781 191.941406 162.835938 191.332031 163.441406 C 190.726562 164.050781 190.066406 164.589844 189.355469 165.070312 C 188.640625 165.546875 187.890625 165.949219 187.097656 166.277344 C 186.304688 166.605469 185.488281 166.855469 184.648438 167.023438 C 183.808594 167.191406 182.957031 167.273438 182.101562 167.273438 Z M 182.101562 143.5 C 181.398438 143.5 180.703125 143.570312 180.011719 143.707031 C 179.324219 143.84375 178.65625 144.046875 178.003906 144.316406 C 177.355469 144.585938 176.738281 144.914062 176.15625 145.304688 C 175.570312 145.695312 175.03125 146.140625 174.535156 146.636719 C 174.035156 147.132812 173.59375 147.671875 173.203125 148.257812 C 172.8125 148.84375 172.484375 149.460938 172.214844 150.109375 C 171.945312 150.757812 171.742188 151.425781 171.605469 152.117188 C 171.46875 152.804688 171.398438 153.503906 171.398438 154.207031 C 171.398438 154.90625 171.46875 155.605469 171.605469 156.292969 C 171.742188 156.984375 171.945312 157.652344 172.214844 158.300781 C 172.484375 158.949219 172.8125 159.566406 173.203125 160.152344 C 173.59375 160.738281 174.035156 161.277344 174.53125 161.773438 C 175.03125 162.269531 175.570312 162.714844 176.15625 163.105469 C 176.738281 163.496094 177.355469 163.824219 178.003906 164.09375 C 178.652344 164.363281 179.324219 164.566406 180.011719 164.703125 C 180.699219 164.839844 181.398438 164.910156 182.097656 164.910156 C 182.800781 164.910156 183.496094 164.839844 184.1875 164.703125 C 184.875 164.566406 185.542969 164.363281 186.195312 164.09375 C 186.84375 163.824219 187.460938 163.496094 188.042969 163.105469 C 188.628906 162.714844 189.167969 162.273438 189.664062 161.773438 C 190.160156 161.277344 190.605469 160.738281 190.996094 160.152344 C 191.386719 159.566406 191.714844 158.949219 191.984375 158.300781 C 192.253906 157.652344 192.457031 156.984375 192.59375 156.292969 C 192.730469 155.605469 192.800781 154.90625 192.800781 154.207031 C 192.796875 153.503906 192.730469 152.808594 192.589844 152.117188 C 192.453125 151.429688 192.25 150.761719 191.980469 150.109375 C 191.710938 149.460938 191.382812 148.847656 190.992188 148.261719 C 190.601562 147.675781 190.15625 147.136719 189.660156 146.640625 C 189.164062 146.144531 188.625 145.699219 188.042969 145.308594 C 187.457031 144.917969 186.839844 144.589844 186.191406 144.320312 C 185.542969 144.050781 184.875 143.847656 184.1875 143.710938 C 183.496094 143.570312 182.800781 143.503906 182.101562 143.5 Z M 182.101562 143.5 " fill-opacity="1" fill-rule="nonzero"/><g clip-path="url(#0d04e19bba)"><path fill="#ffffff" d="M 199.253906 213.699219 C 204.007812 207.144531 208.984375 199.835938 213.359375 192.511719 C 214.96875 192.085938 216.515625 191.613281 218.019531 191.117188 C 218.167969 191.066406 218.300781 190.992188 218.417969 190.890625 C 218.539062 190.785156 218.632812 190.664062 218.703125 190.523438 C 218.773438 190.382812 218.8125 190.234375 218.824219 190.078125 C 218.835938 189.921875 218.816406 189.769531 218.769531 189.621094 C 218.71875 189.472656 218.640625 189.339844 218.539062 189.21875 C 218.4375 189.101562 218.316406 189.007812 218.175781 188.9375 C 218.035156 188.867188 217.886719 188.824219 217.730469 188.8125 C 217.574219 188.800781 217.421875 188.820312 217.273438 188.871094 C 216.566406 189.105469 215.832031 189.332031 215.097656 189.554688 C 221.316406 178.710938 225.953125 168.050781 226.222656 160.070312 C 226.945312 160.480469 227.6875 160.835938 228.457031 161.144531 C 228.722656 161.140625 228.957031 161.058594 229.164062 160.898438 C 229.371094 160.738281 229.507812 160.53125 229.578125 160.277344 C 229.648438 160.023438 229.636719 159.773438 229.539062 159.53125 C 229.445312 159.285156 229.285156 159.09375 229.0625 158.957031 C 228.164062 158.414062 227.195312 157.890625 226.1875 157.382812 C 226.128906 155.980469 226 154.582031 225.804688 153.1875 C 225.609375 151.796875 225.351562 150.417969 225.023438 149.046875 C 224.699219 147.679688 224.308594 146.332031 223.851562 145.003906 C 223.398438 143.671875 222.878906 142.367188 222.300781 141.085938 C 221.722656 139.804688 221.082031 138.554688 220.382812 137.335938 C 219.683594 136.117188 218.929688 134.933594 218.117188 133.785156 C 217.304688 132.636719 216.4375 131.53125 215.519531 130.46875 C 214.601562 129.402344 213.636719 128.386719 212.621094 127.414062 C 211.605469 126.441406 210.546875 125.519531 209.445312 124.648438 C 208.339844 123.777344 207.199219 122.960938 206.019531 122.199219 C 204.835938 121.4375 203.621094 120.730469 202.375 120.085938 C 201.125 119.441406 199.851562 118.855469 198.546875 118.332031 C 197.242188 117.808594 195.914062 117.347656 194.566406 116.949219 C 193.21875 116.554688 191.855469 116.222656 190.476562 115.953125 C 189.09375 115.6875 187.707031 115.488281 186.308594 115.351562 C 184.90625 115.21875 183.507812 115.152344 182.101562 115.152344 C 180.695312 115.152344 179.292969 115.21875 177.894531 115.355469 C 176.496094 115.488281 175.105469 115.6875 173.726562 115.957031 C 172.34375 116.222656 170.980469 116.554688 169.632812 116.953125 C 168.285156 117.347656 166.957031 117.808594 165.652344 118.335938 C 164.347656 118.859375 163.074219 119.445312 161.824219 120.089844 C 160.574219 120.734375 159.363281 121.441406 158.179688 122.203125 C 157 122.964844 155.855469 123.78125 154.753906 124.652344 C 153.652344 125.523438 152.589844 126.445312 151.578125 127.417969 C 150.5625 128.390625 149.59375 129.410156 148.675781 130.472656 C 147.761719 131.539062 146.894531 132.644531 146.082031 133.792969 C 145.269531 134.941406 144.515625 136.125 143.816406 137.34375 C 143.117188 138.5625 142.476562 139.816406 141.898438 141.09375 C 141.320312 142.375 140.800781 143.683594 140.347656 145.011719 C 139.890625 146.34375 139.5 147.691406 139.175781 149.058594 C 138.847656 150.425781 138.589844 151.808594 138.394531 153.199219 C 138.199219 154.59375 138.074219 155.992188 138.011719 157.394531 C 135.953125 158.40625 133.996094 159.59375 132.148438 160.957031 C 132.023438 161.050781 131.917969 161.164062 131.839844 161.300781 C 131.761719 161.433594 131.710938 161.578125 131.6875 161.734375 C 131.664062 161.890625 131.671875 162.042969 131.710938 162.195312 C 131.75 162.347656 131.816406 162.484375 131.910156 162.613281 C 132.148438 162.925781 132.464844 163.082031 132.855469 163.085938 C 133.105469 163.085938 136.332031 160.957031 137.976562 160.070312 C 138.164062 165.496094 140.402344 172.582031 144.632812 181.167969 C 143.214844 181.425781 142.023438 182.09375 141.0625 183.167969 L 140.957031 183.273438 C 140.648438 183.621094 140.382812 183.992188 140.15625 184.394531 C 139.929688 184.796875 139.75 185.21875 139.609375 185.660156 C 139.472656 186.097656 139.382812 186.550781 139.339844 187.007812 C 139.296875 187.46875 139.304688 187.925781 139.359375 188.386719 C 139.414062 188.84375 139.515625 189.289062 139.664062 189.726562 C 139.816406 190.164062 140.007812 190.578125 140.246094 190.976562 C 140.484375 191.371094 140.757812 191.738281 141.074219 192.074219 C 141.390625 192.410156 141.734375 192.710938 142.113281 192.972656 C 144.371094 194.535156 146.71875 195.941406 149.160156 197.183594 L 154.742188 209.449219 C 154.890625 209.777344 155.070312 210.082031 155.28125 210.371094 C 155.488281 210.664062 155.722656 210.929688 155.984375 211.171875 C 156.246094 211.417969 156.527344 211.636719 156.832031 211.824219 C 157.132812 212.015625 157.453125 212.171875 157.785156 212.300781 C 158.121094 212.429688 158.460938 212.523438 158.8125 212.585938 C 159.164062 212.648438 159.519531 212.675781 159.878906 212.667969 C 160.234375 212.660156 160.589844 212.621094 160.9375 212.542969 C 161.285156 212.46875 161.625 212.359375 161.953125 212.21875 C 162.441406 212.011719 162.886719 211.734375 163.289062 211.390625 C 163.832031 212.160156 164.390625 212.929688 164.945312 213.699219 C 143.863281 215.625 123.257812 221.667969 123.257812 231.144531 C 123.257812 242.546875 153.179688 249.359375 182.101562 249.359375 C 211.019531 249.359375 240.945312 242.546875 240.945312 231.144531 C 240.945312 221.667969 220.335938 215.625 199.253906 213.699219 Z M 162.746094 206.234375 C 162.851562 206.601562 162.894531 206.980469 162.867188 207.363281 C 162.835938 207.746094 162.746094 208.113281 162.585938 208.460938 C 162.425781 208.8125 162.210938 209.121094 161.9375 209.394531 C 161.667969 209.664062 161.355469 209.882812 161.007812 210.042969 C 160.632812 210.207031 160.238281 210.296875 159.824219 210.304688 C 159.414062 210.316406 159.015625 210.25 158.632812 210.101562 C 158.246094 209.957031 157.902344 209.742188 157.601562 209.464844 C 157.300781 209.183594 157.066406 208.855469 156.894531 208.480469 L 150.957031 195.433594 L 150.578125 195.246094 C 148.109375 194.011719 145.734375 192.609375 143.460938 191.035156 C 142.972656 190.695312 142.574219 190.273438 142.265625 189.765625 C 141.960938 189.253906 141.769531 188.703125 141.699219 188.113281 C 141.632812 187.53125 141.683594 186.957031 141.851562 186.394531 C 142.023438 185.832031 142.300781 185.328125 142.683594 184.882812 L 142.789062 184.777344 C 143.179688 184.335938 143.640625 183.996094 144.175781 183.753906 C 144.714844 183.511719 145.273438 183.394531 145.863281 183.394531 C 146.761719 183.398438 147.582031 183.660156 148.320312 184.175781 C 150.167969 185.445312 152.082031 186.613281 154.054688 187.675781 L 154.636719 187.996094 L 166.019531 181.242188 C 166.515625 180.941406 167.050781 180.796875 167.628906 180.804688 C 167.957031 180.800781 168.277344 180.851562 168.589844 180.949219 C 168.898438 181.046875 169.191406 181.191406 169.457031 181.382812 C 169.722656 181.570312 169.957031 181.796875 170.152344 182.058594 C 170.351562 182.320312 170.503906 182.605469 170.609375 182.914062 C 170.71875 183.222656 170.777344 183.539062 170.785156 183.867188 C 170.792969 184.195312 170.753906 184.515625 170.660156 184.832031 C 170.570312 185.144531 170.433594 185.4375 170.25 185.710938 C 170.066406 185.980469 169.847656 186.21875 169.589844 186.421875 L 163.007812 191.695312 L 165.121094 192.359375 C 171.09375 194.261719 177.214844 195.242188 183.484375 195.304688 C 184.300781 195.316406 185.113281 195.316406 185.929688 195.292969 C 188.722656 195.222656 191.496094 194.972656 194.253906 194.546875 C 194.253906 194.546875 195.71875 194.300781 195.910156 194.25 C 196.132812 194.214844 196.335938 194.253906 196.527344 194.371094 C 196.71875 194.492188 196.847656 194.65625 196.910156 194.871094 C 196.972656 195.097656 196.945312 195.308594 196.832031 195.511719 C 196.722656 195.714844 196.554688 195.851562 196.335938 195.917969 C 196.335938 195.917969 194.726562 196.417969 194.136719 196.582031 C 191.523438 197.339844 189.097656 197.953125 186.746094 198.460938 C 177.476562 200.496094 169.757812 200.757812 162.4375 199.300781 L 160.488281 198.914062 Z M 188.378906 192.808594 L 191.15625 189.1875 C 191.25 189.0625 191.367188 188.976562 191.515625 188.929688 C 191.664062 188.882812 191.8125 188.882812 191.960938 188.929688 C 192.113281 188.964844 192.242188 189.042969 192.34375 189.164062 C 192.441406 189.285156 192.496094 189.421875 192.503906 189.578125 L 192.777344 192.359375 L 192.777344 192.371094 C 192.695312 192.382812 189.511719 192.808594 188.378906 192.808594 Z M 193.699219 202.269531 L 193.699219 202.28125 C 193.734375 202.625 193.601562 202.871094 193.292969 203.023438 C 192.984375 203.175781 192.707031 203.136719 192.457031 202.898438 L 189.488281 200.261719 C 190.835938 199.925781 192.445312 199.53125 193.425781 199.242188 Z M 164.78125 209.402344 C 165.09375 208.691406 165.253906 207.945312 165.253906 207.167969 C 165.25 206.613281 165.171875 206.070312 165.015625 205.535156 L 163.90625 201.964844 C 171.554688 203.039062 179.136719 202.683594 186.652344 200.898438 L 190.886719 204.671875 C 191.480469 205.199219 192.171875 205.460938 192.964844 205.464844 C 193.464844 205.460938 193.9375 205.347656 194.382812 205.121094 C 194.953125 204.832031 195.394531 204.40625 195.699219 203.84375 C 196.007812 203.28125 196.128906 202.683594 196.0625 202.046875 L 195.730469 198.570312 L 197.019531 198.191406 C 197.480469 198.050781 197.890625 197.816406 198.246094 197.492188 C 198.601562 197.167969 198.871094 196.78125 199.054688 196.332031 C 199.15625 196.089844 199.230469 195.835938 199.269531 195.570312 C 199.3125 195.308594 199.320312 195.046875 199.292969 194.78125 C 199.269531 194.515625 199.210938 194.257812 199.121094 194.007812 C 199.035156 193.757812 198.914062 193.519531 198.765625 193.300781 C 198.621094 193.078125 198.445312 192.878906 198.25 192.699219 C 198.050781 192.523438 197.835938 192.371094 197.601562 192.246094 C 197.367188 192.121094 197.121094 192.027344 196.859375 191.964844 C 196.601562 191.902344 196.339844 191.871094 196.074219 191.875 C 195.875 191.875 195.222656 191.980469 195.105469 191.992188 L 194.871094 189.367188 C 194.808594 188.726562 194.574219 188.164062 194.164062 187.667969 C 193.757812 187.175781 193.246094 186.839844 192.628906 186.660156 C 192.015625 186.480469 191.402344 186.492188 190.792969 186.6875 C 190.183594 186.886719 189.679688 187.238281 189.289062 187.746094 L 185.304688 192.9375 C 179.425781 193.046875 173.652344 192.320312 167.984375 190.75 L 171.070312 188.265625 C 171.515625 187.910156 171.898438 187.496094 172.21875 187.019531 C 172.535156 186.542969 172.773438 186.03125 172.929688 185.480469 C 173.089844 184.929688 173.160156 184.371094 173.144531 183.796875 C 173.128906 183.226562 173.027344 182.671875 172.835938 182.128906 C 172.648438 181.589844 172.382812 181.089844 172.039062 180.632812 C 171.695312 180.175781 171.289062 179.785156 170.820312 179.453125 C 170.355469 179.121094 169.847656 178.871094 169.304688 178.695312 C 168.757812 178.523438 168.199219 178.4375 167.628906 178.4375 C 166.621094 178.441406 165.683594 178.695312 164.816406 179.207031 L 154.589844 185.273438 C 152.910156 184.351562 151.253906 183.324219 149.667969 182.234375 C 148.945312 181.734375 148.152344 181.390625 147.292969 181.207031 C 142.660156 172.050781 140.328125 164.691406 140.328125 159.324219 C 140.328125 157.953125 140.398438 156.589844 140.53125 155.226562 C 140.664062 153.863281 140.863281 152.511719 141.132812 151.171875 C 141.398438 149.828125 141.730469 148.503906 142.128906 147.191406 C 142.523438 145.882812 142.984375 144.59375 143.507812 143.332031 C 144.03125 142.066406 144.617188 140.832031 145.261719 139.625 C 145.90625 138.417969 146.609375 137.246094 147.367188 136.105469 C 148.128906 134.96875 148.941406 133.871094 149.8125 132.8125 C 150.679688 131.753906 151.597656 130.742188 152.5625 129.773438 C 153.53125 128.804688 154.542969 127.886719 155.601562 127.019531 C 156.660156 126.152344 157.757812 125.335938 158.894531 124.578125 C 160.03125 123.816406 161.203125 123.113281 162.410156 122.46875 C 163.617188 121.824219 164.851562 121.238281 166.117188 120.714844 C 167.378906 120.191406 168.664062 119.730469 169.976562 119.332031 C 171.285156 118.9375 172.609375 118.605469 173.953125 118.335938 C 175.292969 118.070312 176.644531 117.871094 178.007812 117.734375 C 179.367188 117.601562 180.730469 117.535156 182.101562 117.535156 C 183.46875 117.535156 184.832031 117.601562 186.195312 117.734375 C 187.554688 117.871094 188.90625 118.070312 190.25 118.335938 C 191.589844 118.605469 192.917969 118.9375 194.226562 119.332031 C 195.535156 119.730469 196.820312 120.191406 198.085938 120.714844 C 199.347656 121.238281 200.585938 121.824219 201.789062 122.46875 C 202.996094 123.113281 204.167969 123.816406 205.308594 124.578125 C 206.445312 125.335938 207.542969 126.152344 208.597656 127.019531 C 209.65625 127.886719 210.667969 128.804688 211.636719 129.773438 C 212.605469 130.742188 213.523438 131.753906 214.390625 132.8125 C 215.257812 133.871094 216.070312 134.96875 216.832031 136.105469 C 217.589844 137.246094 218.292969 138.417969 218.9375 139.625 C 219.582031 140.832031 220.167969 142.066406 220.691406 143.332031 C 221.214844 144.59375 221.675781 145.882812 222.074219 147.191406 C 222.46875 148.503906 222.800781 149.828125 223.070312 151.171875 C 223.335938 152.511719 223.535156 153.863281 223.671875 155.226562 C 223.804688 156.589844 223.871094 157.953125 223.871094 159.324219 C 223.871094 167.449219 218.5625 179.015625 211.789062 190.480469 C 209.210938 191.140625 206.507812 191.714844 203.675781 192.207031 C 203.527344 192.226562 203.386719 192.273438 203.253906 192.347656 C 203.125 192.425781 203.011719 192.519531 202.914062 192.640625 C 202.820312 192.757812 202.753906 192.890625 202.707031 193.035156 C 202.664062 193.179688 202.648438 193.328125 202.660156 193.476562 C 202.675781 193.628906 202.714844 193.773438 202.78125 193.90625 C 202.851562 194.042969 202.941406 194.160156 203.054688 194.261719 C 203.167969 194.363281 203.296875 194.4375 203.4375 194.488281 C 203.582031 194.542969 203.726562 194.5625 203.878906 194.558594 C 203.941406 194.558594 204.003906 194.550781 204.066406 194.535156 C 206.125 194.191406 208.121094 193.789062 210.0625 193.328125 C 205.398438 201.171875 196.71875 213.285156 194.207031 216.570312 C 193.761719 217.15625 189.40625 222.910156 188.273438 224.355469 C 187.90625 224.824219 187.492188 225.246094 187.03125 225.621094 C 186.566406 225.996094 186.070312 226.316406 185.535156 226.578125 C 185 226.835938 184.441406 227.035156 183.863281 227.167969 C 183.28125 227.304688 182.695312 227.371094 182.101562 227.371094 C 181.503906 227.371094 180.917969 227.304688 180.335938 227.167969 C 179.757812 227.035156 179.199219 226.835938 178.664062 226.578125 C 178.132812 226.316406 177.632812 225.996094 177.171875 225.621094 C 176.707031 225.246094 176.292969 224.824219 175.929688 224.355469 C 173.269531 220.949219 165.726562 210.742188 164.78125 209.402344 Z M 182.101562 246.992188 C 148.320312 246.992188 125.621094 238.796875 125.621094 231.144531 C 125.621094 224.273438 142.800781 217.894531 166.566406 215.921875 L 166.578125 215.921875 C 167.179688 216.75 173.078125 224.554688 174.0625 225.808594 C 174.296875 226.113281 174.550781 226.40625 174.824219 226.679688 C 175.09375 226.957031 175.378906 227.214844 175.679688 227.460938 C 175.980469 227.703125 176.292969 227.929688 176.617188 228.136719 C 176.945312 228.34375 177.28125 228.53125 177.628906 228.703125 C 177.972656 228.871094 178.328125 229.019531 178.695312 229.148438 C 179.058594 229.28125 179.429688 229.386719 179.804688 229.472656 C 180.179688 229.5625 180.5625 229.625 180.945312 229.671875 C 181.328125 229.714844 181.714844 229.734375 182.101562 229.734375 C 182.488281 229.734375 182.871094 229.714844 183.253906 229.671875 C 183.640625 229.625 184.019531 229.5625 184.394531 229.472656 C 184.773438 229.386719 185.144531 229.28125 185.507812 229.148438 C 185.871094 229.019531 186.226562 228.871094 186.574219 228.703125 C 186.921875 228.53125 187.257812 228.34375 187.582031 228.136719 C 187.910156 227.929688 188.222656 227.703125 188.523438 227.460938 C 188.820312 227.214844 189.105469 226.957031 189.378906 226.679688 C 189.648438 226.40625 189.902344 226.113281 190.140625 225.808594 C 192.707031 222.519531 195.222656 219.210938 197.625 215.921875 L 197.636719 215.921875 C 221.398438 217.894531 238.578125 224.273438 238.578125 231.144531 C 238.578125 238.796875 215.878906 246.992188 182.101562 246.992188 Z M 182.101562 246.992188 " fill-opacity="1" fill-rule="nonzero"/></g><path fill="#ffffff" d="M 135.398438 183.566406 C 130.664062 180.511719 127.929688 177.058594 127.492188 173.582031 C 127.472656 173.425781 127.425781 173.28125 127.347656 173.144531 C 127.269531 173.007812 127.167969 172.894531 127.046875 172.796875 C 126.921875 172.699219 126.785156 172.632812 126.632812 172.589844 C 126.480469 172.550781 126.328125 172.539062 126.171875 172.558594 C 126.015625 172.578125 125.871094 172.625 125.734375 172.703125 C 125.597656 172.78125 125.484375 172.882812 125.386719 173.003906 C 125.289062 173.128906 125.222656 173.265625 125.179688 173.417969 C 125.136719 173.570312 125.125 173.722656 125.144531 173.878906 C 125.671875 178.074219 128.773438 182.109375 134.117188 185.554688 C 134.25 185.644531 134.394531 185.703125 134.546875 185.730469 C 134.703125 185.761719 134.859375 185.757812 135.011719 185.726562 C 135.167969 185.691406 135.308594 185.628906 135.4375 185.539062 C 135.566406 185.449219 135.671875 185.335938 135.753906 185.199219 C 135.835938 185.066406 135.890625 184.921875 135.917969 184.769531 C 135.941406 184.617188 135.9375 184.464844 135.90625 184.3125 C 135.875 184.160156 135.8125 184.019531 135.726562 183.890625 C 135.636719 183.757812 135.527344 183.652344 135.398438 183.566406 Z M 135.398438 183.566406 " fill-opacity="1" fill-rule="nonzero"/><path fill="#ffffff" d="M 238.820312 170 C 238.78125 169.847656 238.714844 169.710938 238.621094 169.582031 C 238.53125 169.457031 238.414062 169.355469 238.28125 169.273438 C 238.148438 169.195312 238.003906 169.140625 237.847656 169.117188 C 237.691406 169.09375 237.539062 169.101562 237.386719 169.140625 C 237.234375 169.179688 237.097656 169.242188 236.96875 169.335938 C 236.84375 169.429688 236.742188 169.542969 236.660156 169.675781 C 236.578125 169.8125 236.527344 169.957031 236.503906 170.109375 C 236.480469 170.265625 236.488281 170.417969 236.523438 170.570312 C 236.6875 171.226562 236.769531 171.894531 236.769531 172.570312 C 236.769531 176.15625 234.339844 179.742188 229.738281 182.9375 C 229.480469 183.132812 229.324219 183.386719 229.269531 183.703125 C 229.210938 184.019531 229.269531 184.316406 229.441406 184.585938 C 229.878906 185.375 230.882812 185.023438 231.089844 184.882812 C 236.351562 181.222656 239.136719 176.964844 239.136719 172.570312 C 239.136719 171.699219 239.03125 170.84375 238.820312 170 Z M 238.820312 170 " fill-opacity="1" fill-rule="nonzero"/><g fill="#ffffff" fill-opacity="1"><g transform="translate(128.442986, 138.01378)"><g><path d="M -3.59375 -6.0625 C -3.507812 -6.03125 -3.4375 -5.988281 -3.375 -5.9375 L -1.59375 -3.46875 L 0.515625 -2.75 C 0.617188 -2.71875 0.691406 -2.648438 0.734375 -2.546875 C 0.785156 -2.453125 0.796875 -2.359375 0.765625 -2.265625 C 0.734375 -2.160156 0.664062 -2.082031 0.5625 -2.03125 C 0.46875 -1.988281 0.367188 -1.984375 0.265625 -2.015625 L -1.90625 -2.75 L -4.703125 -1.875 C -4.816406 -1.832031 -4.921875 -1.828125 -5.015625 -1.859375 C -5.109375 -1.890625 -5.179688 -1.957031 -5.234375 -2.0625 C -5.285156 -2.175781 -5.289062 -2.28125 -5.25 -2.375 C -5.21875 -2.488281 -5.125 -2.566406 -4.96875 -2.609375 L -2.46875 -3.40625 L -4 -5.46875 C -4.101562 -5.582031 -4.128906 -5.707031 -4.078125 -5.84375 C -4.046875 -5.9375 -3.976562 -6.003906 -3.875 -6.046875 C -3.78125 -6.085938 -3.6875 -6.09375 -3.59375 -6.0625 Z M -3.59375 -6.0625 "/></g></g></g><g fill="#ffffff" fill-opacity="1"><g transform="translate(131.025418, 130.878955)"><g><path d="M 0.140625 -6.515625 C 0.628906 -6.253906 1.019531 -5.914062 1.3125 -5.5 C 1.601562 -5.09375 1.765625 -4.644531 1.796875 -4.15625 C 1.828125 -3.675781 1.722656 -3.203125 1.484375 -2.734375 C 1.242188 -2.265625 0.914062 -1.898438 0.5 -1.640625 C 0.0820312 -1.378906 -0.378906 -1.242188 -0.890625 -1.234375 C -1.398438 -1.234375 -1.898438 -1.363281 -2.390625 -1.625 C -2.867188 -1.863281 -3.25 -2.191406 -3.53125 -2.609375 C -3.820312 -3.023438 -3.988281 -3.476562 -4.03125 -3.96875 C -4.070312 -4.46875 -3.972656 -4.953125 -3.734375 -5.421875 C -3.492188 -5.890625 -3.160156 -6.25 -2.734375 -6.5 C -2.304688 -6.75 -1.835938 -6.875 -1.328125 -6.875 C -0.828125 -6.875 -0.335938 -6.753906 0.140625 -6.515625 Z M -0.25 -5.78125 C -0.601562 -5.96875 -0.960938 -6.0625 -1.328125 -6.0625 C -1.691406 -6.0625 -2.023438 -5.972656 -2.328125 -5.796875 C -2.628906 -5.628906 -2.863281 -5.382812 -3.03125 -5.0625 C -3.195312 -4.726562 -3.265625 -4.390625 -3.234375 -4.046875 C -3.210938 -3.710938 -3.085938 -3.394531 -2.859375 -3.09375 C -2.640625 -2.800781 -2.351562 -2.5625 -2 -2.375 C -1.632812 -2.1875 -1.265625 -2.085938 -0.890625 -2.078125 C -0.523438 -2.078125 -0.191406 -2.160156 0.109375 -2.328125 C 0.410156 -2.492188 0.644531 -2.742188 0.8125 -3.078125 C 0.976562 -3.398438 1.046875 -3.734375 1.015625 -4.078125 C 0.984375 -4.429688 0.851562 -4.753906 0.625 -5.046875 C 0.40625 -5.347656 0.113281 -5.59375 -0.25 -5.78125 Z M -0.25 -5.78125 "/></g></g></g><g fill="#ffffff" fill-opacity="1"><g transform="translate(135.369794, 122.950177)"><g><path d="M -1.828125 -7.1875 C -1.753906 -7.269531 -1.664062 -7.316406 -1.5625 -7.328125 C -1.46875 -7.347656 -1.375 -7.328125 -1.28125 -7.265625 L 1.25 -5.40625 C 1.59375 -5.15625 1.84375 -4.851562 2 -4.5 C 2.164062 -4.144531 2.226562 -3.773438 2.1875 -3.390625 C 2.15625 -3.003906 2.007812 -2.640625 1.75 -2.296875 C 1.507812 -1.960938 1.207031 -1.71875 0.84375 -1.5625 C 0.488281 -1.40625 0.117188 -1.347656 -0.265625 -1.390625 C -0.660156 -1.441406 -1.03125 -1.59375 -1.375 -1.84375 L -3.90625 -3.703125 C -4 -3.765625 -4.050781 -3.847656 -4.0625 -3.953125 C -4.070312 -4.054688 -4.039062 -4.15625 -3.96875 -4.25 C -3.90625 -4.332031 -3.816406 -4.378906 -3.703125 -4.390625 C -3.597656 -4.410156 -3.503906 -4.394531 -3.421875 -4.34375 L -0.890625 -2.484375 C -0.660156 -2.316406 -0.414062 -2.21875 -0.15625 -2.1875 C 0.101562 -2.164062 0.34375 -2.203125 0.5625 -2.296875 C 0.789062 -2.398438 0.976562 -2.550781 1.125 -2.75 C 1.28125 -2.957031 1.375 -3.1875 1.40625 -3.4375 C 1.445312 -3.695312 1.414062 -3.945312 1.3125 -4.1875 C 1.207031 -4.4375 1.039062 -4.644531 0.8125 -4.8125 L -1.71875 -6.671875 C -1.8125 -6.734375 -1.867188 -6.8125 -1.890625 -6.90625 C -1.910156 -7 -1.890625 -7.09375 -1.828125 -7.1875 Z M -1.828125 -7.1875 "/></g></g></g><g fill="#ffffff" fill-opacity="1"><g transform="translate(140.639191, 116.1382)"><g><path d="M 3.078125 -4.03125 C 3.148438 -4.039062 3.21875 -4.035156 3.28125 -4.015625 C 3.34375 -3.992188 3.394531 -3.960938 3.4375 -3.921875 C 3.519531 -3.835938 3.550781 -3.75 3.53125 -3.65625 C 3.519531 -3.570312 3.476562 -3.492188 3.40625 -3.421875 C 3.332031 -3.347656 3.253906 -3.300781 3.171875 -3.28125 C 3.003906 -3.226562 2.804688 -3.238281 2.578125 -3.3125 C 2.347656 -3.382812 2.097656 -3.5625 1.828125 -3.84375 C 1.628906 -4.039062 1.425781 -4.128906 1.21875 -4.109375 C 1.019531 -4.085938 0.820312 -3.984375 0.625 -3.796875 L -0.53125 -2.625 L 0.765625 -1.328125 C 0.847656 -1.242188 0.890625 -1.148438 0.890625 -1.046875 C 0.898438 -0.953125 0.875 -0.875 0.8125 -0.8125 C 0.71875 -0.71875 0.609375 -0.664062 0.484375 -0.65625 C 0.359375 -0.644531 0.257812 -0.675781 0.1875 -0.75 L -3.296875 -4.21875 C -3.378906 -4.300781 -3.414062 -4.394531 -3.40625 -4.5 C -3.40625 -4.613281 -3.367188 -4.707031 -3.296875 -4.78125 L -1.671875 -6.40625 C -1.460938 -6.613281 -1.21875 -6.753906 -0.9375 -6.828125 C -0.664062 -6.898438 -0.390625 -6.894531 -0.109375 -6.8125 C 0.160156 -6.738281 0.410156 -6.59375 0.640625 -6.375 C 0.847656 -6.15625 0.988281 -5.894531 1.0625 -5.59375 C 1.144531 -5.289062 1.144531 -5.007812 1.0625 -4.75 C 1.269531 -4.820312 1.476562 -4.828125 1.6875 -4.765625 C 1.90625 -4.710938 2.101562 -4.609375 2.28125 -4.453125 C 2.519531 -4.242188 2.6875 -4.109375 2.78125 -4.046875 C 2.882812 -3.992188 2.984375 -3.988281 3.078125 -4.03125 Z M 0.296875 -4.421875 C 0.390625 -4.523438 0.441406 -4.65625 0.453125 -4.8125 C 0.472656 -4.96875 0.445312 -5.128906 0.375 -5.296875 C 0.3125 -5.472656 0.210938 -5.628906 0.078125 -5.765625 C -0.109375 -5.953125 -0.320312 -6.050781 -0.5625 -6.0625 C -0.8125 -6.082031 -1.015625 -6.007812 -1.171875 -5.84375 L -2.46875 -4.546875 L -1.015625 -3.09375 Z M 0.296875 -4.421875 "/></g></g></g><g fill="#ffffff" fill-opacity="1"><g transform="translate(146.8004, 110.345323)"><g/></g></g><g fill="#ffffff" fill-opacity="1"><g transform="translate(150.933521, 107.214436)"><g><path d="M 0.765625 -7.140625 C 0.859375 -7.203125 0.953125 -7.222656 1.046875 -7.203125 C 1.140625 -7.179688 1.21875 -7.125 1.28125 -7.03125 C 1.34375 -6.9375 1.359375 -6.84375 1.328125 -6.75 C 1.296875 -6.65625 1.234375 -6.578125 1.140625 -6.515625 L -0.09375 -5.75 L 2.296875 -1.84375 C 2.347656 -1.757812 2.359375 -1.664062 2.328125 -1.5625 C 2.304688 -1.457031 2.242188 -1.375 2.140625 -1.3125 C 2.035156 -1.25 1.925781 -1.226562 1.8125 -1.25 C 1.707031 -1.28125 1.628906 -1.335938 1.578125 -1.421875 L -0.8125 -5.328125 L -2.03125 -4.578125 C -2.132812 -4.515625 -2.234375 -4.492188 -2.328125 -4.515625 C -2.421875 -4.535156 -2.492188 -4.597656 -2.546875 -4.703125 C -2.609375 -4.785156 -2.625 -4.875 -2.59375 -4.96875 C -2.570312 -5.0625 -2.507812 -5.140625 -2.40625 -5.203125 Z M 0.765625 -7.140625 "/></g></g></g><g fill="#ffffff" fill-opacity="1"><g transform="translate(157.760707, 103.265389)"><g><path d="M 4.375 -2.578125 C 4.4375 -2.554688 4.488281 -2.523438 4.53125 -2.484375 C 4.582031 -2.453125 4.625 -2.40625 4.65625 -2.34375 C 4.695312 -2.238281 4.691406 -2.144531 4.640625 -2.0625 C 4.597656 -1.988281 4.53125 -1.929688 4.4375 -1.890625 C 4.34375 -1.847656 4.253906 -1.835938 4.171875 -1.859375 C 3.992188 -1.878906 3.8125 -1.960938 3.625 -2.109375 C 3.445312 -2.265625 3.28125 -2.523438 3.125 -2.890625 C 3.019531 -3.140625 2.867188 -3.296875 2.671875 -3.359375 C 2.472656 -3.421875 2.25 -3.394531 2 -3.28125 L 0.484375 -2.640625 L 1.203125 -0.9375 C 1.253906 -0.832031 1.257812 -0.734375 1.21875 -0.640625 C 1.1875 -0.546875 1.128906 -0.484375 1.046875 -0.453125 C 0.929688 -0.398438 0.816406 -0.390625 0.703125 -0.421875 C 0.585938 -0.460938 0.507812 -0.53125 0.46875 -0.625 L -1.453125 -5.15625 C -1.503906 -5.257812 -1.507812 -5.359375 -1.46875 -5.453125 C -1.425781 -5.554688 -1.351562 -5.628906 -1.25 -5.671875 L 0.859375 -6.5625 C 1.128906 -6.675781 1.398438 -6.71875 1.671875 -6.6875 C 1.953125 -6.65625 2.207031 -6.550781 2.4375 -6.375 C 2.675781 -6.195312 2.851562 -5.960938 2.96875 -5.671875 C 3.09375 -5.398438 3.132812 -5.109375 3.09375 -4.796875 C 3.050781 -4.492188 2.9375 -4.234375 2.75 -4.015625 C 2.96875 -3.992188 3.171875 -3.914062 3.359375 -3.78125 C 3.546875 -3.65625 3.691406 -3.488281 3.796875 -3.28125 C 3.921875 -3 4.019531 -2.8125 4.09375 -2.71875 C 4.175781 -2.625 4.269531 -2.578125 4.375 -2.578125 Z M 1.9375 -3.984375 C 2.0625 -4.046875 2.160156 -4.144531 2.234375 -4.28125 C 2.304688 -4.425781 2.34375 -4.585938 2.34375 -4.765625 C 2.351562 -4.953125 2.316406 -5.132812 2.234375 -5.3125 C 2.128906 -5.550781 1.96875 -5.722656 1.75 -5.828125 C 1.53125 -5.941406 1.316406 -5.953125 1.109375 -5.859375 L -0.578125 -5.140625 L 0.21875 -3.25 Z M 1.9375 -3.984375 "/></g></g></g><g fill="#ffffff" fill-opacity="1"><g transform="translate(165.566681, 100.17408)"><g><path d="M 4.765625 -1.765625 C 4.796875 -1.734375 4.816406 -1.6875 4.828125 -1.625 C 4.859375 -1.53125 4.847656 -1.4375 4.796875 -1.34375 C 4.753906 -1.25 4.679688 -1.191406 4.578125 -1.171875 C 4.503906 -1.148438 4.429688 -1.15625 4.359375 -1.1875 C 4.285156 -1.21875 4.21875 -1.269531 4.15625 -1.34375 L 3.375 -2.375 L 0.9375 -1.734375 L 0.75 -0.453125 C 0.738281 -0.359375 0.710938 -0.28125 0.671875 -0.21875 C 0.628906 -0.15625 0.570312 -0.113281 0.5 -0.09375 C 0.382812 -0.0625 0.285156 -0.0664062 0.203125 -0.109375 C 0.128906 -0.160156 0.0820312 -0.234375 0.0625 -0.328125 C 0.0507812 -0.347656 0.046875 -0.394531 0.046875 -0.46875 L 0.78125 -5.890625 C 0.789062 -5.960938 0.820312 -6.03125 0.875 -6.09375 C 0.9375 -6.164062 1.007812 -6.207031 1.09375 -6.21875 C 1.164062 -6.238281 1.238281 -6.234375 1.3125 -6.203125 C 1.394531 -6.179688 1.460938 -6.140625 1.515625 -6.078125 Z M 1.046875 -2.515625 L 2.890625 -3 L 1.375 -4.984375 Z M 1.046875 -2.515625 "/></g></g></g><g fill="#ffffff" fill-opacity="1"><g transform="translate(173.438423, 98.315737)"><g><path d="M 4.171875 -6.21875 C 4.273438 -6.226562 4.367188 -6.203125 4.453125 -6.140625 C 4.546875 -6.078125 4.597656 -5.992188 4.609375 -5.890625 C 4.617188 -5.835938 4.613281 -5.773438 4.59375 -5.703125 L 3.0625 -0.59375 C 3.03125 -0.5 2.984375 -0.425781 2.921875 -0.375 C 2.859375 -0.332031 2.785156 -0.304688 2.703125 -0.296875 C 2.640625 -0.296875 2.570312 -0.3125 2.5 -0.34375 C 2.4375 -0.375 2.378906 -0.429688 2.328125 -0.515625 L -0.265625 -5.171875 C -0.296875 -5.210938 -0.316406 -5.269531 -0.328125 -5.34375 C -0.335938 -5.457031 -0.304688 -5.550781 -0.234375 -5.625 C -0.160156 -5.707031 -0.0703125 -5.753906 0.03125 -5.765625 C 0.1875 -5.773438 0.316406 -5.703125 0.421875 -5.546875 L 2.640625 -1.578125 L 3.84375 -5.921875 C 3.875 -6.015625 3.914062 -6.082031 3.96875 -6.125 C 4.03125 -6.175781 4.097656 -6.207031 4.171875 -6.21875 Z M 4.171875 -6.21875 "/></g></g></g><g fill="#ffffff" fill-opacity="1"><g transform="translate(181.753586, 97.628977)"><g><path d="M 3.921875 -0.625 C 4.035156 -0.625 4.128906 -0.582031 4.203125 -0.5 C 4.273438 -0.414062 4.3125 -0.320312 4.3125 -0.21875 C 4.300781 -0.113281 4.257812 -0.03125 4.1875 0.03125 C 4.113281 0.09375 4.019531 0.125 3.90625 0.125 L 1.0625 0.03125 C 0.957031 0.03125 0.863281 -0.0078125 0.78125 -0.09375 C 0.707031 -0.175781 0.675781 -0.269531 0.6875 -0.375 L 0.84375 -5.296875 C 0.84375 -5.410156 0.878906 -5.5 0.953125 -5.5625 C 1.035156 -5.632812 1.128906 -5.671875 1.234375 -5.671875 L 4.078125 -5.578125 C 4.191406 -5.578125 4.285156 -5.539062 4.359375 -5.46875 C 4.429688 -5.394531 4.46875 -5.300781 4.46875 -5.1875 C 4.457031 -5.070312 4.414062 -4.984375 4.34375 -4.921875 C 4.269531 -4.859375 4.175781 -4.828125 4.0625 -4.828125 L 1.640625 -4.90625 L 1.59375 -3.25 L 3.65625 -3.1875 C 3.769531 -3.1875 3.859375 -3.144531 3.921875 -3.0625 C 3.992188 -2.988281 4.03125 -2.898438 4.03125 -2.796875 C 4.019531 -2.679688 3.976562 -2.59375 3.90625 -2.53125 C 3.832031 -2.46875 3.738281 -2.4375 3.625 -2.4375 L 1.5625 -2.5 L 1.5 -0.703125 Z M 3.921875 -0.625 "/></g></g></g><g fill="#ffffff" fill-opacity="1"><g transform="translate(189.274499, 98.060394)"><g><path d="M 3.90625 -0.125 C 4.019531 -0.101562 4.101562 -0.0546875 4.15625 0.015625 C 4.21875 0.0976562 4.238281 0.195312 4.21875 0.3125 C 4.195312 0.414062 4.144531 0.5 4.0625 0.5625 C 3.988281 0.625 3.894531 0.644531 3.78125 0.625 L 1.046875 0.171875 C 0.929688 0.148438 0.84375 0.09375 0.78125 0 C 0.71875 -0.0820312 0.695312 -0.175781 0.71875 -0.28125 L 1.53125 -5.125 C 1.539062 -5.238281 1.59375 -5.328125 1.6875 -5.390625 C 1.78125 -5.453125 1.882812 -5.472656 2 -5.453125 C 2.113281 -5.429688 2.203125 -5.375 2.265625 -5.28125 C 2.328125 -5.195312 2.351562 -5.097656 2.34375 -4.984375 L 1.59375 -0.5 Z M 3.90625 -0.125 "/></g></g></g><g fill="#ffffff" fill-opacity="1"><g transform="translate(196.555798, 99.497349)"><g><path d="M 1.53125 0.015625 C 1.5 0.128906 1.429688 0.210938 1.328125 0.265625 C 1.234375 0.316406 1.132812 0.328125 1.03125 0.296875 C 0.914062 0.265625 0.832031 0.203125 0.78125 0.109375 C 0.726562 0.015625 0.71875 -0.0859375 0.75 -0.203125 L 2.09375 -4.921875 C 2.125 -5.035156 2.1875 -5.113281 2.28125 -5.15625 C 2.375 -5.207031 2.472656 -5.21875 2.578125 -5.1875 C 2.691406 -5.15625 2.773438 -5.09375 2.828125 -5 C 2.890625 -4.914062 2.90625 -4.816406 2.875 -4.703125 Z M 1.53125 0.015625 "/></g></g></g><g fill="#ffffff" fill-opacity="1"><g transform="translate(201.418166, 100.936538)"><g><path d="M 6.765625 -3.328125 C 6.859375 -3.285156 6.921875 -3.21875 6.953125 -3.125 C 6.992188 -3.039062 6.992188 -2.953125 6.953125 -2.859375 L 5.03125 1.6875 C 4.988281 1.789062 4.914062 1.863281 4.8125 1.90625 C 4.71875 1.957031 4.617188 1.957031 4.515625 1.90625 C 4.460938 1.882812 4.414062 1.851562 4.375 1.8125 C 4.332031 1.769531 4.300781 1.726562 4.28125 1.6875 L 2.953125 -3.40625 L 1.421875 0.21875 C 1.378906 0.3125 1.3125 0.375 1.21875 0.40625 C 1.132812 0.445312 1.046875 0.445312 0.953125 0.40625 C 0.859375 0.363281 0.789062 0.296875 0.75 0.203125 C 0.71875 0.117188 0.722656 0.03125 0.765625 -0.0625 L 2.6875 -4.625 C 2.738281 -4.726562 2.8125 -4.800781 2.90625 -4.84375 C 3 -4.882812 3.097656 -4.882812 3.203125 -4.84375 C 3.253906 -4.8125 3.304688 -4.773438 3.359375 -4.734375 C 3.410156 -4.703125 3.441406 -4.65625 3.453125 -4.59375 L 4.765625 0.5 L 6.296875 -3.140625 C 6.335938 -3.234375 6.398438 -3.296875 6.484375 -3.328125 C 6.578125 -3.367188 6.671875 -3.367188 6.765625 -3.328125 Z M 6.765625 -3.328125 "/></g></g></g><g fill="#ffffff" fill-opacity="1"><g transform="translate(209.433329, 104.575568)"><g><path d="M 5.71875 0.015625 C 5.8125 0.0664062 5.867188 0.144531 5.890625 0.25 C 5.910156 0.351562 5.894531 0.453125 5.84375 0.546875 L 4.875 2.09375 C 4.789062 2.226562 4.679688 2.289062 4.546875 2.28125 C 4.234375 2.300781 3.925781 2.265625 3.625 2.171875 C 3.320312 2.085938 3.035156 1.96875 2.765625 1.8125 C 2.304688 1.519531 1.953125 1.144531 1.703125 0.6875 C 1.460938 0.226562 1.347656 -0.253906 1.359375 -0.765625 C 1.367188 -1.285156 1.515625 -1.78125 1.796875 -2.25 C 2.078125 -2.695312 2.445312 -3.046875 2.90625 -3.296875 C 3.375 -3.546875 3.867188 -3.660156 4.390625 -3.640625 C 4.910156 -3.617188 5.398438 -3.460938 5.859375 -3.171875 C 6.085938 -3.035156 6.296875 -2.875 6.484375 -2.6875 C 6.671875 -2.5 6.816406 -2.304688 6.921875 -2.109375 C 6.953125 -2.046875 6.96875 -1.984375 6.96875 -1.921875 C 6.96875 -1.859375 6.945312 -1.796875 6.90625 -1.734375 C 6.851562 -1.648438 6.773438 -1.59375 6.671875 -1.5625 C 6.578125 -1.53125 6.484375 -1.539062 6.390625 -1.59375 C 6.328125 -1.632812 6.273438 -1.679688 6.234375 -1.734375 C 6.023438 -2.066406 5.765625 -2.328125 5.453125 -2.515625 C 5.117188 -2.722656 4.757812 -2.828125 4.375 -2.828125 C 4 -2.835938 3.644531 -2.753906 3.3125 -2.578125 C 2.988281 -2.398438 2.722656 -2.144531 2.515625 -1.8125 C 2.304688 -1.46875 2.191406 -1.101562 2.171875 -0.71875 C 2.160156 -0.34375 2.238281 0.0078125 2.40625 0.34375 C 2.582031 0.6875 2.835938 0.960938 3.171875 1.171875 C 3.335938 1.265625 3.519531 1.34375 3.71875 1.40625 C 3.914062 1.476562 4.097656 1.519531 4.265625 1.53125 L 4.9375 0.421875 L 4.09375 -0.09375 C 4 -0.15625 3.941406 -0.234375 3.921875 -0.328125 C 3.898438 -0.429688 3.914062 -0.523438 3.96875 -0.609375 C 4.03125 -0.703125 4.109375 -0.757812 4.203125 -0.78125 C 4.304688 -0.8125 4.40625 -0.796875 4.5 -0.734375 Z M 5.71875 0.015625 "/></g></g></g><g fill="#ffffff" fill-opacity="1"><g transform="translate(216.573178, 109.325757)"><g/></g></g><g fill="#ffffff" fill-opacity="1"><g transform="translate(220.563858, 112.584925)"><g><path d="M 8.03125 0.125 C 8.09375 0.207031 8.125 0.300781 8.125 0.40625 C 8.132812 0.507812 8.101562 0.597656 8.03125 0.671875 L 4.453125 4.09375 C 4.378906 4.164062 4.285156 4.203125 4.171875 4.203125 C 4.066406 4.203125 3.972656 4.15625 3.890625 4.0625 C 3.804688 3.976562 3.765625 3.878906 3.765625 3.765625 C 3.765625 3.660156 3.804688 3.570312 3.890625 3.5 L 6.625 0.890625 L 3.796875 1.40625 C 3.734375 1.414062 3.671875 1.410156 3.609375 1.390625 C 3.546875 1.378906 3.488281 1.34375 3.4375 1.28125 C 3.40625 1.257812 3.378906 1.210938 3.359375 1.140625 C 3.347656 1.078125 3.347656 1.019531 3.359375 0.96875 L 4.046875 -1.890625 L 1.265625 0.765625 C 1.179688 0.835938 1.085938 0.875 0.984375 0.875 C 0.890625 0.875 0.800781 0.832031 0.71875 0.75 C 0.644531 0.664062 0.609375 0.570312 0.609375 0.46875 C 0.617188 0.375 0.664062 0.289062 0.75 0.21875 L 4.328125 -3.203125 C 4.398438 -3.273438 4.488281 -3.304688 4.59375 -3.296875 C 4.707031 -3.296875 4.804688 -3.253906 4.890625 -3.171875 C 4.929688 -3.128906 4.957031 -3.070312 4.96875 -3 C 4.988281 -2.9375 4.992188 -2.867188 4.984375 -2.796875 L 4.21875 0.625 L 7.671875 0.015625 C 7.816406 -0.00390625 7.9375 0.03125 8.03125 0.125 Z M 8.03125 0.125 "/></g></g></g><g fill="#ffffff" fill-opacity="1"><g transform="translate(226.943473, 119.661423)"><g><path d="M 3.296875 3.875 C 3.273438 3.914062 3.238281 3.953125 3.1875 3.984375 C 3.101562 4.046875 3.007812 4.066406 2.90625 4.046875 C 2.800781 4.023438 2.71875 3.972656 2.65625 3.890625 C 2.613281 3.828125 2.59375 3.757812 2.59375 3.6875 C 2.601562 3.613281 2.628906 3.53125 2.671875 3.4375 L 3.390625 2.359375 L 1.953125 0.296875 L 0.671875 0.546875 C 0.585938 0.578125 0.503906 0.578125 0.421875 0.546875 C 0.347656 0.523438 0.289062 0.484375 0.25 0.421875 C 0.1875 0.328125 0.160156 0.234375 0.171875 0.140625 C 0.191406 0.0546875 0.242188 -0.0078125 0.328125 -0.0625 C 0.347656 -0.0820312 0.390625 -0.101562 0.453125 -0.125 L 5.796875 -1.28125 C 5.878906 -1.289062 5.957031 -1.28125 6.03125 -1.25 C 6.101562 -1.226562 6.164062 -1.175781 6.21875 -1.09375 C 6.257812 -1.03125 6.28125 -0.957031 6.28125 -0.875 C 6.289062 -0.800781 6.269531 -0.726562 6.21875 -0.65625 Z M 2.71875 0.109375 L 3.796875 1.6875 L 5.15625 -0.421875 Z M 2.71875 0.109375 "/></g></g></g><g fill="#ffffff" fill-opacity="1"><g transform="translate(231.378379, 126.437829)"><g><path d="M 7.046875 1.359375 C 7.097656 1.460938 7.109375 1.5625 7.078125 1.65625 C 7.054688 1.757812 6.992188 1.835938 6.890625 1.890625 C 6.785156 1.929688 6.6875 1.929688 6.59375 1.890625 C 6.507812 1.859375 6.441406 1.789062 6.390625 1.6875 L 5.75 0.390625 L 1.65625 2.4375 C 1.5625 2.476562 1.460938 2.484375 1.359375 2.453125 C 1.253906 2.421875 1.175781 2.351562 1.125 2.25 C 1.070312 2.132812 1.0625 2.023438 1.09375 1.921875 C 1.125 1.816406 1.1875 1.742188 1.28125 1.703125 L 5.375 -0.34375 L 4.734375 -1.625 C 4.679688 -1.726562 4.671875 -1.828125 4.703125 -1.921875 C 4.734375 -2.023438 4.800781 -2.101562 4.90625 -2.15625 C 5 -2.195312 5.085938 -2.195312 5.171875 -2.15625 C 5.265625 -2.125 5.335938 -2.054688 5.390625 -1.953125 Z M 7.046875 1.359375 "/></g></g></g><g fill="#ffffff" fill-opacity="1"><g transform="translate(234.723181, 133.599839)"><g><path d="M 1.953125 3.46875 C 1.992188 3.570312 1.988281 3.671875 1.9375 3.765625 C 1.882812 3.859375 1.8125 3.925781 1.71875 3.96875 C 1.613281 4 1.519531 3.988281 1.4375 3.9375 C 1.351562 3.882812 1.289062 3.804688 1.25 3.703125 L 0.34375 1 C 0.3125 0.90625 0.316406 0.804688 0.359375 0.703125 C 0.410156 0.609375 0.488281 0.546875 0.59375 0.515625 L 5.25 -1.0625 C 5.363281 -1.09375 5.46875 -1.082031 5.5625 -1.03125 C 5.65625 -0.988281 5.71875 -0.921875 5.75 -0.828125 L 6.65625 1.875 C 6.695312 1.976562 6.691406 2.078125 6.640625 2.171875 C 6.597656 2.265625 6.523438 2.332031 6.421875 2.375 C 6.316406 2.40625 6.21875 2.394531 6.125 2.34375 C 6.039062 2.289062 5.976562 2.210938 5.9375 2.109375 L 5.15625 -0.1875 L 3.59375 0.34375 L 4.265625 2.296875 C 4.296875 2.398438 4.289062 2.5 4.25 2.59375 C 4.207031 2.695312 4.132812 2.765625 4.03125 2.796875 C 3.925781 2.835938 3.828125 2.832031 3.734375 2.78125 C 3.640625 2.726562 3.578125 2.648438 3.546875 2.546875 L 2.875 0.59375 L 1.171875 1.171875 Z M 1.953125 3.46875 "/></g></g></g><g fill="#ffffff" fill-opacity="1"><g transform="translate(104.65529, 279.152062)"><g><path d="M 12.9375 -16.921875 C 13.363281 -16.921875 13.710938 -16.789062 13.984375 -16.53125 C 14.265625 -16.269531 14.40625 -15.929688 14.40625 -15.515625 C 14.40625 -15.097656 14.265625 -14.765625 13.984375 -14.515625 C 13.710938 -14.265625 13.363281 -14.140625 12.9375 -14.140625 L 9.140625 -14.140625 L 9.140625 -1.46875 C 9.140625 -1.050781 8.984375 -0.703125 8.671875 -0.421875 C 8.367188 -0.140625 7.992188 0 7.546875 0 C 7.085938 0 6.710938 -0.140625 6.421875 -0.421875 C 6.140625 -0.703125 6 -1.050781 6 -1.46875 L 6 -14.140625 L 2.203125 -14.140625 C 1.765625 -14.140625 1.40625 -14.265625 1.125 -14.515625 C 0.851562 -14.773438 0.71875 -15.117188 0.71875 -15.546875 C 0.71875 -15.941406 0.859375 -16.269531 1.140625 -16.53125 C 1.429688 -16.789062 1.785156 -16.921875 2.203125 -16.921875 Z M 12.9375 -16.921875 "/></g></g></g><g fill="#ffffff" fill-opacity="1"><g transform="translate(120.676347, 279.152062)"><g><path d="M 8.296875 -13.171875 C 8.773438 -13.171875 9.175781 -13.035156 9.5 -12.765625 C 9.832031 -12.492188 10 -12.171875 10 -11.796875 C 10 -11.296875 9.867188 -10.921875 9.609375 -10.671875 C 9.359375 -10.421875 9.054688 -10.296875 8.703125 -10.296875 C 8.460938 -10.296875 8.1875 -10.351562 7.875 -10.46875 C 7.832031 -10.476562 7.722656 -10.507812 7.546875 -10.5625 C 7.378906 -10.613281 7.203125 -10.640625 7.015625 -10.640625 C 6.585938 -10.640625 6.179688 -10.507812 5.796875 -10.25 C 5.410156 -9.988281 5.09375 -9.597656 4.84375 -9.078125 C 4.59375 -8.554688 4.46875 -7.929688 4.46875 -7.203125 L 4.46875 -1.46875 C 4.46875 -1.050781 4.332031 -0.703125 4.0625 -0.421875 C 3.789062 -0.140625 3.441406 0 3.015625 0 C 2.597656 0 2.253906 -0.140625 1.984375 -0.421875 C 1.710938 -0.703125 1.578125 -1.050781 1.578125 -1.46875 L 1.578125 -11.453125 C 1.578125 -11.867188 1.710938 -12.21875 1.984375 -12.5 C 2.253906 -12.789062 2.597656 -12.9375 3.015625 -12.9375 C 3.441406 -12.9375 3.789062 -12.789062 4.0625 -12.5 C 4.332031 -12.21875 4.46875 -11.867188 4.46875 -11.453125 L 4.46875 -11.140625 C 4.84375 -11.804688 5.375 -12.3125 6.0625 -12.65625 C 6.757812 -13 7.503906 -13.171875 8.296875 -13.171875 Z M 8.296875 -13.171875 "/></g></g></g><g fill="#ffffff" fill-opacity="1"><g transform="translate(132.057912, 279.152062)"><g><path d="M 12.03125 -13.171875 C 12.457031 -13.171875 12.804688 -13.035156 13.078125 -12.765625 C 13.347656 -12.492188 13.484375 -12.140625 13.484375 -11.703125 L 13.484375 -1.46875 C 13.484375 -1.050781 13.347656 -0.703125 13.078125 -0.421875 C 12.804688 -0.140625 12.457031 0 12.03125 0 C 11.613281 0 11.269531 -0.132812 11 -0.40625 C 10.738281 -0.6875 10.601562 -1.035156 10.59375 -1.453125 C 10.1875 -0.984375 9.640625 -0.582031 8.953125 -0.25 C 8.265625 0.0703125 7.546875 0.234375 6.796875 0.234375 C 5.679688 0.234375 4.671875 -0.046875 3.765625 -0.609375 C 2.867188 -1.179688 2.15625 -1.972656 1.625 -2.984375 C 1.101562 -4.003906 0.84375 -5.160156 0.84375 -6.453125 C 0.84375 -7.742188 1.097656 -8.898438 1.609375 -9.921875 C 2.128906 -10.941406 2.835938 -11.738281 3.734375 -12.3125 C 4.628906 -12.882812 5.617188 -13.171875 6.703125 -13.171875 C 7.472656 -13.171875 8.195312 -13.03125 8.875 -12.75 C 9.550781 -12.46875 10.125 -12.109375 10.59375 -11.671875 L 10.59375 -11.703125 C 10.59375 -12.117188 10.726562 -12.46875 11 -12.75 C 11.269531 -13.03125 11.613281 -13.171875 12.03125 -13.171875 Z M 7.15625 -2.421875 C 8.195312 -2.421875 9.046875 -2.800781 9.703125 -3.5625 C 10.367188 -4.332031 10.703125 -5.296875 10.703125 -6.453125 C 10.703125 -7.609375 10.367188 -8.570312 9.703125 -9.34375 C 9.046875 -10.125 8.195312 -10.515625 7.15625 -10.515625 C 6.125 -10.515625 5.273438 -10.125 4.609375 -9.34375 C 3.953125 -8.570312 3.625 -7.609375 3.625 -6.453125 C 3.625 -5.296875 3.945312 -4.332031 4.59375 -3.5625 C 5.25 -2.800781 6.101562 -2.421875 7.15625 -2.421875 Z M 7.15625 -2.421875 "/></g></g></g><g fill="#ffffff" fill-opacity="1"><g transform="translate(148.00648, 279.152062)"><g><path d="M 11.5 -12.90625 C 11.882812 -12.90625 12.207031 -12.78125 12.46875 -12.53125 C 12.726562 -12.28125 12.859375 -11.972656 12.859375 -11.609375 C 12.859375 -11.410156 12.796875 -11.164062 12.671875 -10.875 L 8.140625 -0.921875 C 8.035156 -0.640625 7.875 -0.421875 7.65625 -0.265625 C 7.4375 -0.109375 7.1875 -0.0195312 6.90625 0 L 6.703125 0.03125 C 6.421875 0.03125 6.160156 -0.0507812 5.921875 -0.21875 C 5.691406 -0.394531 5.515625 -0.628906 5.390625 -0.921875 L 0.890625 -10.875 C 0.773438 -11.132812 0.71875 -11.394531 0.71875 -11.65625 C 0.71875 -11.976562 0.851562 -12.269531 1.125 -12.53125 C 1.40625 -12.800781 1.75 -12.9375 2.15625 -12.9375 C 2.457031 -12.9375 2.738281 -12.851562 3 -12.6875 C 3.257812 -12.53125 3.453125 -12.304688 3.578125 -12.015625 L 6.90625 -4.375 L 10.21875 -11.984375 C 10.351562 -12.296875 10.53125 -12.53125 10.75 -12.6875 C 10.976562 -12.851562 11.226562 -12.925781 11.5 -12.90625 Z M 11.5 -12.90625 "/></g></g></g><g fill="#ffffff" fill-opacity="1"><g transform="translate(162.481041, 279.152062)"><g><path d="M 13.171875 -6.765625 C 13.160156 -6.378906 13.007812 -6.066406 12.71875 -5.828125 C 12.425781 -5.585938 12.085938 -5.46875 11.703125 -5.46875 L 3.71875 -5.46875 C 3.914062 -4.507812 4.359375 -3.757812 5.046875 -3.21875 C 5.742188 -2.6875 6.523438 -2.421875 7.390625 -2.421875 C 8.054688 -2.421875 8.570312 -2.476562 8.9375 -2.59375 C 9.3125 -2.71875 9.609375 -2.847656 9.828125 -2.984375 C 10.046875 -3.117188 10.191406 -3.210938 10.265625 -3.265625 C 10.554688 -3.410156 10.832031 -3.484375 11.09375 -3.484375 C 11.4375 -3.484375 11.726562 -3.359375 11.96875 -3.109375 C 12.207031 -2.867188 12.328125 -2.585938 12.328125 -2.265625 C 12.328125 -1.835938 12.101562 -1.445312 11.65625 -1.09375 C 11.195312 -0.71875 10.585938 -0.398438 9.828125 -0.140625 C 9.078125 0.109375 8.316406 0.234375 7.546875 0.234375 C 6.191406 0.234375 5.007812 -0.046875 4 -0.609375 C 2.988281 -1.171875 2.207031 -1.945312 1.65625 -2.9375 C 1.113281 -3.925781 0.84375 -5.039062 0.84375 -6.28125 C 0.84375 -7.664062 1.132812 -8.878906 1.71875 -9.921875 C 2.300781 -10.972656 3.066406 -11.773438 4.015625 -12.328125 C 4.960938 -12.890625 5.976562 -13.171875 7.0625 -13.171875 C 8.125 -13.171875 9.125 -12.878906 10.0625 -12.296875 C 11.007812 -11.722656 11.765625 -10.941406 12.328125 -9.953125 C 12.890625 -8.972656 13.171875 -7.910156 13.171875 -6.765625 Z M 7.0625 -10.515625 C 5.1875 -10.515625 4.082031 -9.632812 3.75 -7.875 L 10.078125 -7.875 L 10.078125 -8.046875 C 10.015625 -8.722656 9.679688 -9.300781 9.078125 -9.78125 C 8.484375 -10.269531 7.8125 -10.515625 7.0625 -10.515625 Z M 7.0625 -10.515625 "/></g></g></g><g fill="#ffffff" fill-opacity="1"><g transform="translate(177.390557, 279.152062)"><g><path d="M 4.71875 -1.46875 C 4.71875 -1.050781 4.578125 -0.703125 4.296875 -0.421875 C 4.015625 -0.140625 3.660156 0 3.234375 0 C 2.835938 0 2.5 -0.140625 2.21875 -0.421875 C 1.945312 -0.703125 1.8125 -1.050781 1.8125 -1.46875 L 1.8125 -16.40625 C 1.8125 -16.832031 1.953125 -17.1875 2.234375 -17.46875 C 2.515625 -17.75 2.863281 -17.890625 3.28125 -17.890625 C 3.6875 -17.890625 4.023438 -17.75 4.296875 -17.46875 C 4.578125 -17.1875 4.71875 -16.832031 4.71875 -16.40625 Z M 4.71875 -1.46875 "/></g></g></g><g fill="#ffffff" fill-opacity="1"><g transform="translate(184.809229, 279.152062)"><g/></g></g><g fill="#ffffff" fill-opacity="1"><g transform="translate(192.469543, 279.152062)"><g><path d="M 11.96875 -9.375 C 12.820312 -9.039062 13.515625 -8.523438 14.046875 -7.828125 C 14.585938 -7.140625 14.859375 -6.25 14.859375 -5.15625 C 14.859375 -3.226562 14.3125 -1.882812 13.21875 -1.125 C 12.125 -0.375 10.820312 0 9.3125 0 L 3.28125 0 C 2.863281 0 2.515625 -0.140625 2.234375 -0.421875 C 1.953125 -0.703125 1.8125 -1.050781 1.8125 -1.46875 L 1.8125 -15.453125 C 1.8125 -15.867188 1.953125 -16.21875 2.234375 -16.5 C 2.515625 -16.78125 2.863281 -16.921875 3.28125 -16.921875 L 9.375 -16.921875 C 12.4375 -16.921875 13.96875 -15.488281 13.96875 -12.625 C 13.96875 -11.894531 13.796875 -11.25 13.453125 -10.6875 C 13.109375 -10.132812 12.613281 -9.695312 11.96875 -9.375 Z M 10.828125 -12.078125 C 10.828125 -12.742188 10.660156 -13.238281 10.328125 -13.5625 C 10.003906 -13.894531 9.539062 -14.0625 8.9375 -14.0625 L 4.953125 -14.0625 L 4.953125 -10.296875 L 9.015625 -10.296875 C 9.492188 -10.296875 9.914062 -10.457031 10.28125 -10.78125 C 10.644531 -11.101562 10.828125 -11.535156 10.828125 -12.078125 Z M 9.3125 -2.78125 C 10.0625 -2.78125 10.648438 -2.976562 11.078125 -3.375 C 11.503906 -3.78125 11.71875 -4.375 11.71875 -5.15625 C 11.71875 -6.101562 11.46875 -6.71875 10.96875 -7 C 10.46875 -7.289062 9.859375 -7.4375 9.140625 -7.4375 L 4.953125 -7.4375 L 4.953125 -2.78125 Z M 9.3125 -2.78125 "/></g></g></g><g fill="#ffffff" fill-opacity="1"><g transform="translate(209.191351, 279.152062)"><g><path d="M 11.171875 -12.9375 C 11.585938 -12.9375 11.929688 -12.789062 12.203125 -12.5 C 12.484375 -12.21875 12.625 -11.867188 12.625 -11.453125 L 12.625 -5.3125 C 12.625 -3.570312 12.140625 -2.210938 11.171875 -1.234375 C 10.210938 -0.253906 8.847656 0.234375 7.078125 0.234375 C 5.304688 0.234375 3.945312 -0.253906 3 -1.234375 C 2.050781 -2.210938 1.578125 -3.570312 1.578125 -5.3125 L 1.578125 -11.453125 C 1.578125 -11.867188 1.710938 -12.21875 1.984375 -12.5 C 2.253906 -12.789062 2.597656 -12.9375 3.015625 -12.9375 C 3.441406 -12.9375 3.789062 -12.789062 4.0625 -12.5 C 4.332031 -12.21875 4.46875 -11.867188 4.46875 -11.453125 L 4.46875 -5.3125 C 4.46875 -4.332031 4.6875 -3.601562 5.125 -3.125 C 5.5625 -2.65625 6.210938 -2.421875 7.078125 -2.421875 C 7.960938 -2.421875 8.625 -2.65625 9.0625 -3.125 C 9.5 -3.601562 9.71875 -4.332031 9.71875 -5.3125 L 9.71875 -11.453125 C 9.71875 -11.867188 9.851562 -12.21875 10.125 -12.5 C 10.394531 -12.789062 10.742188 -12.9375 11.171875 -12.9375 Z M 11.171875 -12.9375 "/></g></g></g><g fill="#ffffff" fill-opacity="1"><g transform="translate(224.270006, 279.152062)"><g><path d="M 12.03125 -17.890625 C 12.457031 -17.890625 12.804688 -17.75 13.078125 -17.46875 C 13.347656 -17.195312 13.484375 -16.84375 13.484375 -16.40625 L 13.484375 -1.46875 C 13.484375 -1.050781 13.347656 -0.703125 13.078125 -0.421875 C 12.804688 -0.140625 12.457031 0 12.03125 0 C 11.613281 0 11.269531 -0.132812 11 -0.40625 C 10.738281 -0.6875 10.601562 -1.035156 10.59375 -1.453125 C 10.1875 -0.984375 9.640625 -0.582031 8.953125 -0.25 C 8.265625 0.0703125 7.546875 0.234375 6.796875 0.234375 C 5.679688 0.234375 4.671875 -0.046875 3.765625 -0.609375 C 2.867188 -1.179688 2.15625 -1.972656 1.625 -2.984375 C 1.101562 -4.003906 0.84375 -5.160156 0.84375 -6.453125 C 0.84375 -7.742188 1.097656 -8.898438 1.609375 -9.921875 C 2.128906 -10.941406 2.835938 -11.738281 3.734375 -12.3125 C 4.628906 -12.882812 5.617188 -13.171875 6.703125 -13.171875 C 7.472656 -13.171875 8.195312 -13.03125 8.875 -12.75 C 9.550781 -12.46875 10.125 -12.109375 10.59375 -11.671875 L 10.59375 -16.40625 C 10.59375 -16.832031 10.726562 -17.1875 11 -17.46875 C 11.269531 -17.75 11.613281 -17.890625 12.03125 -17.890625 Z M 7.15625 -2.421875 C 8.195312 -2.421875 9.046875 -2.800781 9.703125 -3.5625 C 10.367188 -4.332031 10.703125 -5.296875 10.703125 -6.453125 C 10.703125 -7.609375 10.367188 -8.570312 9.703125 -9.34375 C 9.046875 -10.125 8.195312 -10.515625 7.15625 -10.515625 C 6.125 -10.515625 5.273438 -10.125 4.609375 -9.34375 C 3.953125 -8.570312 3.625 -7.609375 3.625 -6.453125 C 3.625 -5.296875 3.945312 -4.332031 4.59375 -3.5625 C 5.25 -2.800781 6.101562 -2.421875 7.15625 -2.421875 Z M 7.15625 -2.421875 "/></g></g></g><g fill="#ffffff" fill-opacity="1"><g transform="translate(240.218571, 279.152062)"><g><path d="M 12.03125 -17.890625 C 12.457031 -17.890625 12.804688 -17.75 13.078125 -17.46875 C 13.347656 -17.195312 13.484375 -16.84375 13.484375 -16.40625 L 13.484375 -1.46875 C 13.484375 -1.050781 13.347656 -0.703125 13.078125 -0.421875 C 12.804688 -0.140625 12.457031 0 12.03125 0 C 11.613281 0 11.269531 -0.132812 11 -0.40625 C 10.738281 -0.6875 10.601562 -1.035156 10.59375 -1.453125 C 10.1875 -0.984375 9.640625 -0.582031 8.953125 -0.25 C 8.265625 0.0703125 7.546875 0.234375 6.796875 0.234375 C 5.679688 0.234375 4.671875 -0.046875 3.765625 -0.609375 C 2.867188 -1.179688 2.15625 -1.972656 1.625 -2.984375 C 1.101562 -4.003906 0.84375 -5.160156 0.84375 -6.453125 C 0.84375 -7.742188 1.097656 -8.898438 1.609375 -9.921875 C 2.128906 -10.941406 2.835938 -11.738281 3.734375 -12.3125 C 4.628906 -12.882812 5.617188 -13.171875 6.703125 -13.171875 C 7.472656 -13.171875 8.195312 -13.03125 8.875 -12.75 C 9.550781 -12.46875 10.125 -12.109375 10.59375 -11.671875 L 10.59375 -16.40625 C 10.59375 -16.832031 10.726562 -17.1875 11 -17.46875 C 11.269531 -17.75 11.613281 -17.890625 12.03125 -17.890625 Z M 7.15625 -2.421875 C 8.195312 -2.421875 9.046875 -2.800781 9.703125 -3.5625 C 10.367188 -4.332031 10.703125 -5.296875 10.703125 -6.453125 C 10.703125 -7.609375 10.367188 -8.570312 9.703125 -9.34375 C 9.046875 -10.125 8.195312 -10.515625 7.15625 -10.515625 C 6.125 -10.515625 5.273438 -10.125 4.609375 -9.34375 C 3.953125 -8.570312 3.625 -7.609375 3.625 -6.453125 C 3.625 -5.296875 3.945312 -4.332031 4.59375 -3.5625 C 5.25 -2.800781 6.101562 -2.421875 7.15625 -2.421875 Z M 7.15625 -2.421875 "/></g></g></g><g fill="#ffffff" fill-opacity="1"><g transform="translate(256.167136, 279.152062)"><g><path d="M 11.171875 -12.9375 C 11.585938 -12.9375 11.929688 -12.789062 12.203125 -12.5 C 12.484375 -12.21875 12.625 -11.867188 12.625 -11.453125 L 12.625 -1.1875 C 12.625 0.90625 12.054688 2.429688 10.921875 3.390625 C 9.796875 4.347656 8.289062 4.828125 6.40625 4.828125 C 5.851562 4.828125 5.289062 4.78125 4.71875 4.6875 C 4.15625 4.601562 3.691406 4.488281 3.328125 4.34375 C 2.546875 4.007812 2.15625 3.546875 2.15625 2.953125 C 2.15625 2.835938 2.175781 2.707031 2.21875 2.5625 C 2.320312 2.207031 2.488281 1.9375 2.71875 1.75 C 2.945312 1.5625 3.203125 1.46875 3.484375 1.46875 C 3.640625 1.46875 3.789062 1.492188 3.9375 1.546875 C 4.050781 1.597656 4.25 1.675781 4.53125 1.78125 C 4.8125 1.894531 5.109375 1.988281 5.421875 2.0625 C 5.734375 2.132812 6.0625 2.171875 6.40625 2.171875 C 7.550781 2.171875 8.390625 1.925781 8.921875 1.4375 C 9.460938 0.945312 9.734375 0.101562 9.734375 -1.09375 L 9.734375 -1.328125 C 8.898438 -0.285156 7.597656 0.234375 5.828125 0.234375 C 4.984375 0.234375 4.238281 0.0390625 3.59375 -0.34375 C 2.957031 -0.738281 2.460938 -1.285156 2.109375 -1.984375 C 1.753906 -2.691406 1.578125 -3.5 1.578125 -4.40625 L 1.578125 -11.453125 C 1.578125 -11.867188 1.710938 -12.21875 1.984375 -12.5 C 2.253906 -12.789062 2.597656 -12.9375 3.015625 -12.9375 C 3.441406 -12.9375 3.789062 -12.789062 4.0625 -12.5 C 4.332031 -12.21875 4.46875 -11.867188 4.46875 -11.453125 L 4.46875 -5.265625 C 4.46875 -4.253906 4.6875 -3.523438 5.125 -3.078125 C 5.570312 -2.640625 6.222656 -2.421875 7.078125 -2.421875 C 7.921875 -2.421875 8.570312 -2.664062 9.03125 -3.15625 C 9.488281 -3.644531 9.71875 -4.347656 9.71875 -5.265625 L 9.71875 -11.453125 C 9.71875 -11.867188 9.851562 -12.21875 10.125 -12.5 C 10.394531 -12.789062 10.742188 -12.9375 11.171875 -12.9375 Z M 11.171875 -12.9375 "/></g></g></g></svg>